SplineFontDB: 3.0
FontName: Mario
FullName: Mario
FamilyName: Mario
Weight: Medium
Copyright: Klas
Version: 001.000
ItalicAngle: 0
UnderlinePosition: -153
UnderlineWidth: 51
Ascent: 768
Descent: 256
InvalidEm: 0
sfntRevision: 0x00010000
LayerCount: 2
Layer: 0 1 "Back" 1
Layer: 1 1 "Fore" 0
XUID: [1021 957 -1400181134 550120]
StyleMap: 0x0040
FSType: 8
OS2Version: 1
OS2_WeightWidthSlopeOnly: 0
OS2_UseTypoMetrics: 0
CreationTime: 1280473793
ModificationTime: 1477735746
PfmFamily: 17
TTFWeight: 500
TTFWidth: 5
LineGap: 0
VLineGap: 0
Panose: 2 0 6 9 0 0 0 0 0 0
OS2TypoAscent: 768
OS2TypoAOffset: 0
OS2TypoDescent: -256
OS2TypoDOffset: 0
OS2TypoLinegap: 0
OS2WinAscent: 0
OS2WinAOffset: 0
OS2WinDescent: 0
OS2WinDOffset: 0
HheadAscent: 768
HheadAOffset: 0
HheadDescent: -256
HheadDOffset: 0
OS2SubXSize: 665
OS2SubYSize: 716
OS2SubXOff: 0
OS2SubYOff: 143
OS2SupXSize: 665
OS2SupYSize: 716
OS2SupXOff: 0
OS2SupYOff: 491
OS2StrikeYSize: 51
OS2StrikeYPos: 265
OS2Vendor: '2ttf'
OS2CodePages: 00000001.00000000
OS2UnicodeRanges: 00000003.00000000.00000000.00000000
MarkAttachClasses: 1
DEI: 91125
ShortTable: cvt  2
  34
  648
EndShort
ShortTable: maxp 16
  1
  0
  54
  244
  22
  0
  0
  2
  0
  1
  1
  0
  64
  46
  0
  0
EndShort
LangName: 1033 "" "" "" "Klas:Mario"
GaspTable: 1 65535 0 0
Encoding: UnicodeBmp
UnicodeInterp: none
NameList: AGL For New Fonts
DisplaySize: -48
AntiAlias: 1
FitToEm: 0
WinInfo: 58 29 12
BeginPrivate: 0
EndPrivate
BeginChars: 65539 54

StartChar: .notdef
Encoding: 65536 -1 0
Width: 1024
Flags: W
LayerCount: 2
Fore
SplineSet
34 0 m 1,0,-1
 34 682 l 1,1,-1
 306 682 l 1,2,-1
 306 0 l 1,3,-1
 34 0 l 1,0,-1
68 34 m 1,4,-1
 272 34 l 1,5,-1
 272 648 l 1,6,-1
 68 648 l 1,7,-1
 68 34 l 1,4,-1
EndSplineSet
EndChar

StartChar: one
Encoding: 49 49 4
Width: 1024
Flags: W
LayerCount: 2
Fore
SplineSet
832 -256 m 1,0,-1
 768 -256 l 1,1,-1
 704 -256 l 1,2,-1
 640 -256 l 1,3,-1
 576 -256 l 1,4,-1
 512 -256 l 1,5,-1
 448 -256 l 1,6,-1
 384 -256 l 1,7,-1
 320 -256 l 1,8,-1
 256 -256 l 1,9,-1
 192 -256 l 1,10,-1
 128 -256 l 1,11,-1
 64 -256 l 1,12,-1
 0 -256 l 1,13,-1
 -64 -256 l 1,14,-1
 -128 -256 l 1,15,-1
 -128 -192 l 1,16,-1
 -64 -192 l 1,17,-1
 0 -192 l 1,18,-1
 64 -192 l 1,19,-1
 64 -128 l 1,20,-1
 64 -64 l 1,21,-1
 64 0 l 1,22,-1
 0 0 l 1,23,-1
 -64 0 l 1,24,-1
 -128 0 l 1,25,-1
 -128 64 l 1,26,-1
 -64 64 l 1,27,-1
 0 64 l 1,28,-1
 64 64 l 1,29,-1
 128 64 l 1,30,-1
 192 64 l 1,31,-1
 256 64 l 1,32,-1
 320 64 l 1,33,-1
 320 128 l 1,34,-1
 320 192 l 1,35,-1
 320 256 l 1,36,-1
 256 256 l 1,37,-1
 192 256 l 1,38,-1
 128 256 l 1,39,-1
 64 256 l 1,40,-1
 0 256 l 1,41,-1
 -64 256 l 1,42,-1
 -128 256 l 1,43,-1
 -128 320 l 1,44,-1
 -64 320 l 1,45,-1
 0 320 l 1,46,-1
 64 320 l 1,47,-1
 64 384 l 1,48,-1
 64 448 l 1,49,-1
 64 512 l 1,50,-1
 0 512 l 1,51,-1
 -64 512 l 1,52,-1
 -128 512 l 1,53,-1
 -128 576 l 1,54,-1
 -64 576 l 1,55,-1
 0 576 l 1,56,-1
 64 576 l 1,57,-1
 128 576 l 1,58,-1
 192 576 l 1,59,-1
 256 576 l 1,60,-1
 320 576 l 1,61,-1
 320 640 l 1,62,-1
 320 704 l 1,63,-1
 320 768 l 1,64,-1
 384 768 l 1,65,-1
 448 768 l 1,66,-1
 512 768 l 1,67,-1
 576 768 l 1,68,-1
 640 768 l 1,69,-1
 704 768 l 1,70,-1
 768 768 l 1,71,-1
 832 768 l 1,72,-1
 896 768 l 1,73,-1
 896 704 l 1,74,-1
 896 640 l 1,75,-1
 896 576 l 1,76,-1
 896 512 l 1,77,-1
 896 448 l 1,78,-1
 896 384 l 1,79,-1
 896 320 l 1,80,-1
 896 256 l 1,81,-1
 896 192 l 1,82,-1
 896 128 l 1,83,-1
 896 64 l 1,84,-1
 896 0 l 1,85,-1
 896 -64 l 1,86,-1
 896 -128 l 1,87,-1
 896 -192 l 1,88,-1
 896 -256 l 1,89,-1
 832 -256 l 1,0,-1
320 -192 m 1,90,-1
 384 -192 l 1,91,-1
 384 -128 l 1,92,-1
 384 -64 l 1,93,-1
 384 0 l 1,94,-1
 320 0 l 1,95,-1
 256 0 l 1,96,-1
 192 0 l 1,97,-1
 128 0 l 1,98,-1
 128 -64 l 1,99,-1
 128 -128 l 1,100,-1
 128 -192 l 1,101,-1
 192 -192 l 1,102,-1
 256 -192 l 1,103,-1
 320 -192 l 1,90,-1
320 320 m 1,104,-1
 384 320 l 1,105,-1
 384 384 l 1,106,-1
 384 448 l 1,107,-1
 384 512 l 1,108,-1
 320 512 l 1,109,-1
 256 512 l 1,110,-1
 192 512 l 1,111,-1
 128 512 l 1,112,-1
 128 448 l 1,113,-1
 128 384 l 1,114,-1
 128 320 l 1,115,-1
 192 320 l 1,116,-1
 256 320 l 1,117,-1
 320 320 l 1,104,-1
EndSplineSet
EndChar

StartChar: two
Encoding: 50 50 5
Width: 1024
Flags: W
LayerCount: 2
Fore
SplineSet
832 -192 m 1,0,-1
 896 -192 l 1,1,-1
 896 -256 l 1,2,-1
 832 -256 l 1,3,-1
 768 -256 l 1,4,-1
 704 -256 l 1,5,-1
 640 -256 l 1,6,-1
 576 -256 l 1,7,-1
 512 -256 l 1,8,-1
 448 -256 l 1,9,-1
 384 -256 l 1,10,-1
 320 -256 l 1,11,-1
 256 -256 l 1,12,-1
 192 -256 l 1,13,-1
 128 -256 l 1,14,-1
 64 -256 l 1,15,-1
 0 -256 l 1,16,-1
 -64 -256 l 1,17,-1
 -128 -256 l 1,18,-1
 -128 -192 l 1,19,-1
 -64 -192 l 1,20,-1
 0 -192 l 1,21,-1
 64 -192 l 1,22,-1
 64 -128 l 1,23,-1
 64 -64 l 1,24,-1
 64 0 l 1,25,-1
 0 0 l 1,26,-1
 -64 0 l 1,27,-1
 -128 0 l 1,28,-1
 -128 64 l 1,29,-1
 -64 64 l 1,30,-1
 0 64 l 1,31,-1
 64 64 l 1,32,-1
 128 64 l 1,33,-1
 192 64 l 1,34,-1
 256 64 l 1,35,-1
 320 64 l 1,36,-1
 320 128 l 1,37,-1
 320 192 l 1,38,-1
 320 256 l 1,39,-1
 256 256 l 1,40,-1
 192 256 l 1,41,-1
 128 256 l 1,42,-1
 64 256 l 1,43,-1
 0 256 l 1,44,-1
 -64 256 l 1,45,-1
 -128 256 l 1,46,-1
 -128 320 l 1,47,-1
 -64 320 l 1,48,-1
 0 320 l 1,49,-1
 64 320 l 1,50,-1
 64 384 l 1,51,-1
 64 448 l 1,52,-1
 64 512 l 1,53,-1
 0 512 l 1,54,-1
 -64 512 l 1,55,-1
 -128 512 l 1,56,-1
 -128 576 l 1,57,-1
 -64 576 l 1,58,-1
 0 576 l 1,59,-1
 64 576 l 1,60,-1
 128 576 l 1,61,-1
 192 576 l 1,62,-1
 256 576 l 1,63,-1
 320 576 l 1,64,-1
 320 640 l 1,65,-1
 320 704 l 1,66,-1
 320 768 l 1,67,-1
 384 768 l 1,68,-1
 384 704 l 1,69,-1
 384 640 l 1,70,-1
 384 576 l 1,71,-1
 448 576 l 1,72,-1
 512 576 l 1,73,-1
 576 576 l 1,74,-1
 640 576 l 1,75,-1
 704 576 l 1,76,-1
 768 576 l 1,77,-1
 832 576 l 1,78,-1
 832 640 l 1,79,-1
 832 704 l 1,80,-1
 832 768 l 1,81,-1
 896 768 l 1,82,-1
 896 704 l 1,83,-1
 896 640 l 1,84,-1
 896 576 l 1,85,-1
 896 512 l 1,86,-1
 832 512 l 1,87,-1
 768 512 l 1,88,-1
 704 512 l 1,89,-1
 640 512 l 1,90,-1
 640 448 l 1,91,-1
 640 384 l 1,92,-1
 640 320 l 1,93,-1
 704 320 l 1,94,-1
 768 320 l 1,95,-1
 832 320 l 1,96,-1
 896 320 l 1,97,-1
 896 256 l 1,98,-1
 896 192 l 1,99,-1
 896 128 l 1,100,-1
 896 64 l 1,101,-1
 896 0 l 1,102,-1
 832 0 l 1,103,-1
 768 0 l 1,104,-1
 704 0 l 1,105,-1
 640 0 l 1,106,-1
 640 -64 l 1,107,-1
 640 -128 l 1,108,-1
 640 -192 l 1,109,-1
 704 -192 l 1,110,-1
 768 -192 l 1,111,-1
 832 -192 l 1,0,-1
512 -192 m 1,112,-1
 576 -192 l 1,113,-1
 576 -128 l 1,114,-1
 576 -64 l 1,115,-1
 576 0 l 1,116,-1
 512 0 l 1,117,-1
 448 0 l 1,118,-1
 384 0 l 1,119,-1
 320 0 l 1,120,-1
 256 0 l 1,121,-1
 192 0 l 1,122,-1
 128 0 l 1,123,-1
 128 -64 l 1,124,-1
 128 -128 l 1,125,-1
 128 -192 l 1,126,-1
 192 -192 l 1,127,-1
 256 -192 l 1,128,-1
 320 -192 l 1,129,-1
 384 -192 l 1,130,-1
 448 -192 l 1,131,-1
 512 -192 l 1,112,-1
768 64 m 1,132,-1
 832 64 l 1,133,-1
 832 128 l 1,134,-1
 832 192 l 1,135,-1
 832 256 l 1,136,-1
 768 256 l 1,137,-1
 704 256 l 1,138,-1
 640 256 l 1,139,-1
 576 256 l 1,140,-1
 512 256 l 1,141,-1
 448 256 l 1,142,-1
 384 256 l 1,143,-1
 384 192 l 1,144,-1
 384 128 l 1,145,-1
 384 64 l 1,146,-1
 448 64 l 1,147,-1
 512 64 l 1,148,-1
 576 64 l 1,149,-1
 640 64 l 1,150,-1
 704 64 l 1,151,-1
 768 64 l 1,132,-1
512 320 m 1,152,-1
 576 320 l 1,153,-1
 576 384 l 1,154,-1
 576 448 l 1,155,-1
 576 512 l 1,156,-1
 512 512 l 1,157,-1
 448 512 l 1,158,-1
 384 512 l 1,159,-1
 320 512 l 1,160,-1
 256 512 l 1,161,-1
 192 512 l 1,162,-1
 128 512 l 1,163,-1
 128 448 l 1,164,-1
 128 384 l 1,165,-1
 128 320 l 1,166,-1
 192 320 l 1,167,-1
 256 320 l 1,168,-1
 320 320 l 1,169,-1
 384 320 l 1,170,-1
 448 320 l 1,171,-1
 512 320 l 1,152,-1
EndSplineSet
EndChar

StartChar: three
Encoding: 51 51 6
Width: 1024
Flags: W
LayerCount: 2
Fore
SplineSet
832 -192 m 1,0,-1
 896 -192 l 1,1,-1
 896 -256 l 1,2,-1
 832 -256 l 1,3,-1
 768 -256 l 1,4,-1
 704 -256 l 1,5,-1
 640 -256 l 1,6,-1
 576 -256 l 1,7,-1
 512 -256 l 1,8,-1
 448 -256 l 1,9,-1
 384 -256 l 1,10,-1
 320 -256 l 1,11,-1
 256 -256 l 1,12,-1
 192 -256 l 1,13,-1
 128 -256 l 1,14,-1
 64 -256 l 1,15,-1
 0 -256 l 1,16,-1
 -64 -256 l 1,17,-1
 -128 -256 l 1,18,-1
 -128 -192 l 1,19,-1
 -64 -192 l 1,20,-1
 -64 -128 l 1,21,-1
 -64 -64 l 1,22,-1
 -64 0 l 1,23,-1
 -64 64 l 1,24,-1
 -128 64 l 1,25,-1
 -128 128 l 1,26,-1
 -128 192 l 1,27,-1
 -128 256 l 1,28,-1
 -128 320 l 1,29,-1
 -64 320 l 1,30,-1
 -64 384 l 1,31,-1
 -64 448 l 1,32,-1
 -64 512 l 1,33,-1
 -64 576 l 1,34,-1
 -128 576 l 1,35,-1
 -128 640 l 1,36,-1
 -128 704 l 1,37,-1
 -128 768 l 1,38,-1
 -64 768 l 1,39,-1
 0 768 l 1,40,-1
 64 768 l 1,41,-1
 128 768 l 1,42,-1
 192 768 l 1,43,-1
 256 768 l 1,44,-1
 320 768 l 1,45,-1
 384 768 l 1,46,-1
 384 704 l 1,47,-1
 384 640 l 1,48,-1
 384 576 l 1,49,-1
 448 576 l 1,50,-1
 512 576 l 1,51,-1
 576 576 l 1,52,-1
 640 576 l 1,53,-1
 704 576 l 1,54,-1
 768 576 l 1,55,-1
 832 576 l 1,56,-1
 832 640 l 1,57,-1
 832 704 l 1,58,-1
 832 768 l 1,59,-1
 896 768 l 1,60,-1
 896 704 l 1,61,-1
 896 640 l 1,62,-1
 896 576 l 1,63,-1
 896 512 l 1,64,-1
 832 512 l 1,65,-1
 768 512 l 1,66,-1
 704 512 l 1,67,-1
 640 512 l 1,68,-1
 640 448 l 1,69,-1
 640 384 l 1,70,-1
 640 320 l 1,71,-1
 704 320 l 1,72,-1
 768 320 l 1,73,-1
 832 320 l 1,74,-1
 896 320 l 1,75,-1
 896 256 l 1,76,-1
 896 192 l 1,77,-1
 896 128 l 1,78,-1
 896 64 l 1,79,-1
 896 0 l 1,80,-1
 832 0 l 1,81,-1
 768 0 l 1,82,-1
 704 0 l 1,83,-1
 640 0 l 1,84,-1
 640 -64 l 1,85,-1
 640 -128 l 1,86,-1
 640 -192 l 1,87,-1
 704 -192 l 1,88,-1
 768 -192 l 1,89,-1
 832 -192 l 1,0,-1
512 -192 m 1,90,-1
 576 -192 l 1,91,-1
 576 -128 l 1,92,-1
 576 -64 l 1,93,-1
 576 0 l 1,94,-1
 512 0 l 1,95,-1
 448 0 l 1,96,-1
 384 0 l 1,97,-1
 384 -64 l 1,98,-1
 384 -128 l 1,99,-1
 384 -192 l 1,100,-1
 448 -192 l 1,101,-1
 512 -192 l 1,90,-1
768 64 m 1,102,-1
 832 64 l 1,103,-1
 832 128 l 1,104,-1
 832 192 l 1,105,-1
 832 256 l 1,106,-1
 768 256 l 1,107,-1
 704 256 l 1,108,-1
 640 256 l 1,109,-1
 576 256 l 1,110,-1
 512 256 l 1,111,-1
 448 256 l 1,112,-1
 384 256 l 1,113,-1
 384 192 l 1,114,-1
 384 128 l 1,115,-1
 384 64 l 1,116,-1
 448 64 l 1,117,-1
 512 64 l 1,118,-1
 576 64 l 1,119,-1
 640 64 l 1,120,-1
 704 64 l 1,121,-1
 768 64 l 1,102,-1
512 320 m 1,122,-1
 576 320 l 1,123,-1
 576 384 l 1,124,-1
 576 448 l 1,125,-1
 576 512 l 1,126,-1
 512 512 l 1,127,-1
 448 512 l 1,128,-1
 384 512 l 1,129,-1
 384 448 l 1,130,-1
 384 384 l 1,131,-1
 384 320 l 1,132,-1
 448 320 l 1,133,-1
 512 320 l 1,122,-1
EndSplineSet
EndChar

StartChar: four
Encoding: 52 52 7
Width: 1024
Flags: W
LayerCount: 2
Fore
SplineSet
64 576 m 1,0,-1
 64 640 l 1,1,-1
 128 640 l 1,2,-1
 128 576 l 1,3,-1
 64 576 l 1,0,-1
704 -192 m 1,4,-1
 768 -192 l 1,5,-1
 768 -256 l 1,6,-1
 704 -256 l 1,7,-1
 640 -256 l 1,8,-1
 576 -256 l 1,9,-1
 576 -192 l 1,10,-1
 640 -192 l 1,11,-1
 704 -192 l 1,4,-1
768 -192 m 1,12,-1
 768 -128 l 1,13,-1
 832 -128 l 1,14,-1
 832 -192 l 1,15,-1
 768 -192 l 1,12,-1
576 -192 m 1,16,-1
 512 -192 l 1,17,-1
 448 -192 l 1,18,-1
 448 -128 l 1,19,-1
 512 -128 l 1,20,-1
 576 -128 l 1,21,-1
 576 -192 l 1,16,-1
832 -128 m 1,22,-1
 832 -64 l 1,23,-1
 896 -64 l 1,24,-1
 896 -128 l 1,25,-1
 832 -128 l 1,22,-1
448 -128 m 1,26,-1
 384 -128 l 1,27,-1
 384 -64 l 1,28,-1
 448 -64 l 1,29,-1
 448 -128 l 1,26,-1
704 -64 m 1,30,-1
 640 -64 l 1,31,-1
 640 0 l 1,32,-1
 576 0 l 1,33,-1
 576 64 l 1,34,-1
 512 64 l 1,35,-1
 448 64 l 1,36,-1
 384 64 l 1,37,-1
 320 64 l 1,38,-1
 320 128 l 1,39,-1
 384 128 l 1,40,-1
 448 128 l 1,41,-1
 512 128 l 1,42,-1
 512 192 l 1,43,-1
 576 192 l 1,44,-1
 576 128 l 1,45,-1
 640 128 l 1,46,-1
 640 64 l 1,47,-1
 704 64 l 1,48,-1
 768 64 l 1,49,-1
 768 128 l 1,50,-1
 832 128 l 1,51,-1
 896 128 l 1,52,-1
 896 64 l 1,53,-1
 896 0 l 1,54,-1
 832 0 l 1,55,-1
 768 0 l 1,56,-1
 768 -64 l 1,57,-1
 704 -64 l 1,30,-1
384 -64 m 1,58,-1
 320 -64 l 1,59,-1
 256 -64 l 1,60,-1
 192 -64 l 1,61,-1
 192 0 l 1,62,-1
 256 0 l 1,63,-1
 320 0 l 1,64,-1
 384 0 l 1,65,-1
 384 -64 l 1,58,-1
192 0 m 1,66,-1
 128 0 l 1,67,-1
 128 64 l 1,68,-1
 128 128 l 1,69,-1
 192 128 l 1,70,-1
 192 64 l 1,71,-1
 192 0 l 1,66,-1
320 128 m 1,72,-1
 256 128 l 1,73,-1
 256 192 l 1,74,-1
 320 192 l 1,75,-1
 320 128 l 1,72,-1
128 128 m 1,76,-1
 64 128 l 1,77,-1
 64 192 l 1,78,-1
 128 192 l 1,79,-1
 128 128 l 1,76,-1
256 192 m 1,80,-1
 192 192 l 1,81,-1
 192 256 l 1,82,-1
 256 256 l 1,83,-1
 256 192 l 1,80,-1
64 192 m 1,84,-1
 0 192 l 1,85,-1
 0 256 l 1,86,-1
 64 256 l 1,87,-1
 64 192 l 1,84,-1
0 256 m 1,88,-1
 -64 256 l 1,89,-1
 -64 320 l 1,90,-1
 0 320 l 1,91,-1
 0 256 l 1,88,-1
-64 320 m 1,92,-1
 -128 320 l 1,93,-1
 -128 384 l 1,94,-1
 -128 448 l 1,95,-1
 -64 448 l 1,96,-1
 -64 384 l 1,97,-1
 -64 320 l 1,92,-1
0 512 m 1,98,-1
 64 512 l 1,99,-1
 64 448 l 1,100,-1
 0 448 l 1,101,-1
 -64 448 l 1,102,-1
 -64 512 l 1,103,-1
 0 512 l 1,98,-1
128 640 m 1,104,-1
 128 704 l 1,105,-1
 192 704 l 1,106,-1
 192 640 l 1,107,-1
 128 640 l 1,104,-1
192 704 m 1,108,-1
 192 768 l 1,109,-1
 256 768 l 1,110,-1
 256 704 l 1,111,-1
 192 704 l 1,108,-1
EndSplineSet
EndChar

StartChar: five
Encoding: 53 53 8
Width: 1024
Flags: W
LayerCount: 2
Fore
SplineSet
704 -192 m 1,0,-1
 768 -192 l 1,1,-1
 768 -256 l 1,2,-1
 704 -256 l 1,3,-1
 640 -256 l 1,4,-1
 576 -256 l 1,5,-1
 576 -192 l 1,6,-1
 640 -192 l 1,7,-1
 704 -192 l 1,0,-1
192 -192 m 1,8,-1
 256 -192 l 1,9,-1
 256 -256 l 1,10,-1
 192 -256 l 1,11,-1
 128 -256 l 1,12,-1
 64 -256 l 1,13,-1
 0 -256 l 1,14,-1
 0 -192 l 1,15,-1
 64 -192 l 1,16,-1
 128 -192 l 1,17,-1
 192 -192 l 1,8,-1
768 -192 m 1,18,-1
 768 -128 l 1,19,-1
 832 -128 l 1,20,-1
 832 -192 l 1,21,-1
 768 -192 l 1,18,-1
576 -192 m 1,22,-1
 512 -192 l 1,23,-1
 448 -192 l 1,24,-1
 448 -128 l 1,25,-1
 512 -128 l 1,26,-1
 576 -128 l 1,27,-1
 576 -192 l 1,22,-1
320 -128 m 1,28,-1
 384 -128 l 1,29,-1
 384 -192 l 1,30,-1
 320 -192 l 1,31,-1
 256 -192 l 1,32,-1
 256 -128 l 1,33,-1
 320 -128 l 1,28,-1
0 -192 m 1,34,-1
 -64 -192 l 1,35,-1
 -128 -192 l 1,36,-1
 -128 -128 l 1,37,-1
 -64 -128 l 1,38,-1
 0 -128 l 1,39,-1
 0 -192 l 1,34,-1
832 -128 m 1,40,-1
 832 -64 l 1,41,-1
 896 -64 l 1,42,-1
 896 -128 l 1,43,-1
 832 -128 l 1,40,-1
448 -128 m 1,44,-1
 384 -128 l 1,45,-1
 384 -64 l 1,46,-1
 448 -64 l 1,47,-1
 448 -128 l 1,44,-1
704 -64 m 1,48,-1
 640 -64 l 1,49,-1
 640 0 l 1,50,-1
 576 0 l 1,51,-1
 512 0 l 1,52,-1
 512 64 l 1,53,-1
 448 64 l 1,54,-1
 384 64 l 1,55,-1
 384 128 l 1,56,-1
 448 128 l 1,57,-1
 448 192 l 1,58,-1
 512 192 l 1,59,-1
 512 128 l 1,60,-1
 576 128 l 1,61,-1
 576 64 l 1,62,-1
 640 64 l 1,63,-1
 704 64 l 1,64,-1
 768 64 l 1,65,-1
 768 128 l 1,66,-1
 832 128 l 1,67,-1
 896 128 l 1,68,-1
 896 64 l 1,69,-1
 896 0 l 1,70,-1
 832 0 l 1,71,-1
 768 0 l 1,72,-1
 768 -64 l 1,73,-1
 704 -64 l 1,48,-1
128 -64 m 1,74,-1
 64 -64 l 1,75,-1
 0 -64 l 1,76,-1
 0 0 l 1,77,-1
 -64 0 l 1,78,-1
 -64 64 l 1,79,-1
 -128 64 l 1,80,-1
 -128 128 l 1,81,-1
 -128 192 l 1,82,-1
 -64 192 l 1,83,-1
 -64 128 l 1,84,-1
 0 128 l 1,85,-1
 0 64 l 1,86,-1
 64 64 l 1,87,-1
 128 64 l 1,88,-1
 192 64 l 1,89,-1
 256 64 l 1,90,-1
 256 0 l 1,91,-1
 192 0 l 1,92,-1
 192 -64 l 1,93,-1
 128 -64 l 1,74,-1
256 64 m 1,94,-1
 256 128 l 1,95,-1
 320 128 l 1,96,-1
 320 64 l 1,97,-1
 256 64 l 1,94,-1
-64 192 m 1,98,-1
 -64 256 l 1,99,-1
 0 256 l 1,100,-1
 0 192 l 1,101,-1
 -64 192 l 1,98,-1
EndSplineSet
EndChar

StartChar: six
Encoding: 54 54 9
Width: 1024
Flags: W
LayerCount: 2
Fore
SplineSet
832 64 m 1,0,-1
 832 128 l 1,1,-1
 896 128 l 1,2,-1
 896 64 l 1,3,-1
 832 64 l 1,0,-1
704 448 m 1,4,-1
 704 512 l 1,5,-1
 768 512 l 1,6,-1
 768 448 l 1,7,-1
 704 448 l 1,4,-1
448 576 m 1,8,-1
 448 640 l 1,9,-1
 512 640 l 1,10,-1
 512 576 l 1,11,-1
 448 576 l 1,8,-1
192 -192 m 1,12,-1
 256 -192 l 1,13,-1
 256 -256 l 1,14,-1
 192 -256 l 1,15,-1
 128 -256 l 1,16,-1
 64 -256 l 1,17,-1
 0 -256 l 1,18,-1
 0 -192 l 1,19,-1
 64 -192 l 1,20,-1
 128 -192 l 1,21,-1
 192 -192 l 1,12,-1
512 -128 m 1,22,-1
 576 -128 l 1,23,-1
 576 -192 l 1,24,-1
 512 -192 l 1,25,-1
 448 -192 l 1,26,-1
 448 -128 l 1,27,-1
 512 -128 l 1,22,-1
320 -128 m 1,28,-1
 384 -128 l 1,29,-1
 384 -192 l 1,30,-1
 320 -192 l 1,31,-1
 256 -192 l 1,32,-1
 256 -128 l 1,33,-1
 320 -128 l 1,28,-1
0 -192 m 1,34,-1
 -64 -192 l 1,35,-1
 -128 -192 l 1,36,-1
 -128 -128 l 1,37,-1
 -64 -128 l 1,38,-1
 0 -128 l 1,39,-1
 0 -192 l 1,34,-1
640 -64 m 1,40,-1
 704 -64 l 1,41,-1
 704 -128 l 1,42,-1
 640 -128 l 1,43,-1
 576 -128 l 1,44,-1
 576 -64 l 1,45,-1
 640 -64 l 1,40,-1
448 -128 m 1,46,-1
 384 -128 l 1,47,-1
 384 -64 l 1,48,-1
 448 -64 l 1,49,-1
 448 -128 l 1,46,-1
768 0 m 1,50,-1
 832 0 l 1,51,-1
 832 -64 l 1,52,-1
 768 -64 l 1,53,-1
 704 -64 l 1,54,-1
 704 0 l 1,55,-1
 768 0 l 1,50,-1
128 -64 m 1,56,-1
 64 -64 l 1,57,-1
 0 -64 l 1,58,-1
 0 0 l 1,59,-1
 -64 0 l 1,60,-1
 -64 64 l 1,61,-1
 -128 64 l 1,62,-1
 -128 128 l 1,63,-1
 -128 192 l 1,64,-1
 -64 192 l 1,65,-1
 -64 128 l 1,66,-1
 0 128 l 1,67,-1
 0 64 l 1,68,-1
 64 64 l 1,69,-1
 128 64 l 1,70,-1
 192 64 l 1,71,-1
 256 64 l 1,72,-1
 256 0 l 1,73,-1
 192 0 l 1,74,-1
 192 -64 l 1,75,-1
 128 -64 l 1,56,-1
256 64 m 1,76,-1
 256 128 l 1,77,-1
 320 128 l 1,78,-1
 320 64 l 1,79,-1
 256 64 l 1,76,-1
832 128 m 1,80,-1
 768 128 l 1,81,-1
 768 192 l 1,82,-1
 832 192 l 1,83,-1
 832 128 l 1,80,-1
768 192 m 1,84,-1
 704 192 l 1,85,-1
 704 256 l 1,86,-1
 768 256 l 1,87,-1
 768 192 l 1,84,-1
-64 192 m 1,88,-1
 -64 256 l 1,89,-1
 0 256 l 1,90,-1
 0 192 l 1,91,-1
 -64 192 l 1,88,-1
768 256 m 1,92,-1
 768 320 l 1,93,-1
 832 320 l 1,94,-1
 832 256 l 1,95,-1
 768 256 l 1,92,-1
832 320 m 1,96,-1
 832 384 l 1,97,-1
 832 448 l 1,98,-1
 832 512 l 1,99,-1
 896 512 l 1,100,-1
 896 448 l 1,101,-1
 896 384 l 1,102,-1
 896 320 l 1,103,-1
 832 320 l 1,96,-1
832 512 m 1,104,-1
 768 512 l 1,105,-1
 768 576 l 1,106,-1
 832 576 l 1,107,-1
 832 512 l 1,104,-1
704 512 m 1,108,-1
 640 512 l 1,109,-1
 640 576 l 1,110,-1
 640 640 l 1,111,-1
 640 704 l 1,112,-1
 704 704 l 1,113,-1
 704 640 l 1,114,-1
 704 576 l 1,115,-1
 704 512 l 1,108,-1
512 640 m 1,116,-1
 512 704 l 1,117,-1
 576 704 l 1,118,-1
 576 640 l 1,119,-1
 512 640 l 1,116,-1
448 640 m 1,120,-1
 384 640 l 1,121,-1
 384 704 l 1,122,-1
 384 768 l 1,123,-1
 448 768 l 1,124,-1
 448 704 l 1,125,-1
 448 640 l 1,120,-1
640 704 m 1,126,-1
 576 704 l 1,127,-1
 576 768 l 1,128,-1
 640 768 l 1,129,-1
 640 704 l 1,126,-1
EndSplineSet
EndChar

StartChar: seven
Encoding: 55 55 10
Width: 1024
Flags: W
LayerCount: 2
Fore
SplineSet
832 -192 m 1,0,-1
 896 -192 l 1,1,-1
 896 -256 l 1,2,-1
 832 -256 l 1,3,-1
 768 -256 l 1,4,-1
 768 -192 l 1,5,-1
 832 -192 l 1,0,-1
-64 -192 m 1,6,-1
 0 -192 l 1,7,-1
 0 -256 l 1,8,-1
 -64 -256 l 1,9,-1
 -128 -256 l 1,10,-1
 -128 -192 l 1,11,-1
 -64 -192 l 1,6,-1
768 -192 m 1,12,-1
 704 -192 l 1,13,-1
 640 -192 l 1,14,-1
 576 -192 l 1,15,-1
 576 -128 l 1,16,-1
 640 -128 l 1,17,-1
 704 -128 l 1,18,-1
 768 -128 l 1,19,-1
 768 -192 l 1,12,-1
128 -128 m 1,20,-1
 192 -128 l 1,21,-1
 192 -192 l 1,22,-1
 128 -192 l 1,23,-1
 64 -192 l 1,24,-1
 0 -192 l 1,25,-1
 0 -128 l 1,26,-1
 64 -128 l 1,27,-1
 128 -128 l 1,20,-1
576 -128 m 1,28,-1
 512 -128 l 1,29,-1
 448 -128 l 1,30,-1
 384 -128 l 1,31,-1
 320 -128 l 1,32,-1
 256 -128 l 1,33,-1
 192 -128 l 1,34,-1
 192 -64 l 1,35,-1
 256 -64 l 1,36,-1
 320 -64 l 1,37,-1
 384 -64 l 1,38,-1
 448 -64 l 1,39,-1
 512 -64 l 1,40,-1
 576 -64 l 1,41,-1
 576 -128 l 1,28,-1
EndSplineSet
EndChar

StartChar: eight
Encoding: 56 56 11
Width: 1024
Flags: W
LayerCount: 2
Fore
SplineSet
832 -256 m 1,0,-1
 832 -192 l 1,1,-1
 896 -192 l 1,2,-1
 896 -256 l 1,3,-1
 832 -256 l 1,0,-1
832 -192 m 1,4,-1
 768 -192 l 1,5,-1
 768 -128 l 1,6,-1
 832 -128 l 1,7,-1
 832 -192 l 1,4,-1
768 -128 m 1,8,-1
 704 -128 l 1,9,-1
 704 -64 l 1,10,-1
 768 -64 l 1,11,-1
 768 -128 l 1,8,-1
704 -64 m 1,12,-1
 640 -64 l 1,13,-1
 640 0 l 1,14,-1
 704 0 l 1,15,-1
 704 -64 l 1,12,-1
640 0 m 1,16,-1
 576 0 l 1,17,-1
 576 64 l 1,18,-1
 640 64 l 1,19,-1
 640 0 l 1,16,-1
576 64 m 1,20,-1
 512 64 l 1,21,-1
 512 128 l 1,22,-1
 576 128 l 1,23,-1
 576 64 l 1,20,-1
512 128 m 1,24,-1
 448 128 l 1,25,-1
 448 192 l 1,26,-1
 512 192 l 1,27,-1
 512 128 l 1,24,-1
448 192 m 1,28,-1
 384 192 l 1,29,-1
 384 256 l 1,30,-1
 448 256 l 1,31,-1
 448 192 l 1,28,-1
384 256 m 1,32,-1
 320 256 l 1,33,-1
 320 320 l 1,34,-1
 384 320 l 1,35,-1
 384 256 l 1,32,-1
320 320 m 1,36,-1
 256 320 l 1,37,-1
 256 384 l 1,38,-1
 320 384 l 1,39,-1
 320 320 l 1,36,-1
256 384 m 1,40,-1
 192 384 l 1,41,-1
 192 448 l 1,42,-1
 256 448 l 1,43,-1
 256 384 l 1,40,-1
192 448 m 1,44,-1
 128 448 l 1,45,-1
 128 512 l 1,46,-1
 192 512 l 1,47,-1
 192 448 l 1,44,-1
128 512 m 1,48,-1
 64 512 l 1,49,-1
 64 576 l 1,50,-1
 128 576 l 1,51,-1
 128 512 l 1,48,-1
64 576 m 1,52,-1
 0 576 l 1,53,-1
 0 640 l 1,54,-1
 64 640 l 1,55,-1
 64 576 l 1,52,-1
0 640 m 1,56,-1
 -64 640 l 1,57,-1
 -64 704 l 1,58,-1
 0 704 l 1,59,-1
 0 640 l 1,56,-1
-64 704 m 1,60,-1
 -128 704 l 1,61,-1
 -128 768 l 1,62,-1
 -64 768 l 1,63,-1
 -64 704 l 1,60,-1
EndSplineSet
EndChar

StartChar: A
Encoding: 65 65 12
Width: 1024
Flags: W
LayerCount: 2
Fore
SplineSet
448 -192 m 1,0,-1
 512 -192 l 1,1,-1
 512 -256 l 1,2,-1
 448 -256 l 1,3,-1
 384 -256 l 1,4,-1
 320 -256 l 1,5,-1
 256 -256 l 1,6,-1
 256 -192 l 1,7,-1
 320 -192 l 1,8,-1
 384 -192 l 1,9,-1
 448 -192 l 1,0,-1
512 -192 m 1,10,-1
 512 -128 l 1,11,-1
 512 -64 l 1,12,-1
 576 -64 l 1,13,-1
 576 -128 l 1,14,-1
 640 -128 l 1,15,-1
 640 -192 l 1,16,-1
 576 -192 l 1,17,-1
 512 -192 l 1,10,-1
256 -192 m 1,18,-1
 192 -192 l 1,19,-1
 128 -192 l 1,20,-1
 128 -128 l 1,21,-1
 192 -128 l 1,22,-1
 256 -128 l 1,23,-1
 256 -192 l 1,18,-1
640 -128 m 1,24,-1
 640 -64 l 1,25,-1
 704 -64 l 1,26,-1
 704 -128 l 1,27,-1
 640 -128 l 1,24,-1
128 -128 m 1,28,-1
 64 -128 l 1,29,-1
 64 -64 l 1,30,-1
 128 -64 l 1,31,-1
 128 -128 l 1,28,-1
704 -64 m 1,32,-1
 704 0 l 1,33,-1
 768 0 l 1,34,-1
 768 -64 l 1,35,-1
 704 -64 l 1,32,-1
64 -64 m 1,36,-1
 0 -64 l 1,37,-1
 0 0 l 1,38,-1
 64 0 l 1,39,-1
 64 -64 l 1,36,-1
768 0 m 1,40,-1
 768 64 l 1,41,-1
 704 64 l 1,42,-1
 640 64 l 1,43,-1
 576 64 l 1,44,-1
 512 64 l 1,45,-1
 448 64 l 1,46,-1
 384 64 l 1,47,-1
 320 64 l 1,48,-1
 256 64 l 1,49,-1
 192 64 l 1,50,-1
 128 64 l 1,51,-1
 64 64 l 1,52,-1
 0 64 l 1,53,-1
 0 0 l 1,54,-1
 -64 0 l 1,55,-1
 -64 64 l 1,56,-1
 -128 64 l 1,57,-1
 -128 128 l 1,58,-1
 -128 192 l 1,59,-1
 -128 256 l 1,60,-1
 -128 320 l 1,61,-1
 -64 320 l 1,62,-1
 -64 384 l 1,63,-1
 -64 448 l 1,64,-1
 0 448 l 1,65,-1
 0 512 l 1,66,-1
 64 512 l 1,67,-1
 64 576 l 1,68,-1
 128 576 l 1,69,-1
 128 640 l 1,70,-1
 192 640 l 1,71,-1
 192 704 l 1,72,-1
 256 704 l 1,73,-1
 256 768 l 1,74,-1
 320 768 l 1,75,-1
 384 768 l 1,76,-1
 448 768 l 1,77,-1
 512 768 l 1,78,-1
 576 768 l 1,79,-1
 576 704 l 1,80,-1
 640 704 l 1,81,-1
 640 640 l 1,82,-1
 704 640 l 1,83,-1
 704 576 l 1,84,-1
 640 576 l 1,85,-1
 640 640 l 1,86,-1
 576 640 l 1,87,-1
 576 704 l 1,88,-1
 512 704 l 1,89,-1
 448 704 l 1,90,-1
 448 640 l 1,91,-1
 384 640 l 1,92,-1
 384 576 l 1,93,-1
 384 512 l 1,94,-1
 448 512 l 1,95,-1
 448 448 l 1,96,-1
 512 448 l 1,97,-1
 576 448 l 1,98,-1
 640 448 l 1,99,-1
 640 512 l 1,100,-1
 704 512 l 1,101,-1
 704 576 l 1,102,-1
 768 576 l 1,103,-1
 768 512 l 1,104,-1
 768 448 l 1,105,-1
 832 448 l 1,106,-1
 832 384 l 1,107,-1
 832 320 l 1,108,-1
 896 320 l 1,109,-1
 896 256 l 1,110,-1
 896 192 l 1,111,-1
 896 128 l 1,112,-1
 896 64 l 1,113,-1
 832 64 l 1,114,-1
 832 0 l 1,115,-1
 768 0 l 1,40,-1
768 128 m 1,116,-1
 832 128 l 1,117,-1
 832 192 l 1,118,-1
 832 256 l 1,119,-1
 768 256 l 1,120,-1
 768 320 l 1,121,-1
 704 320 l 1,122,-1
 640 320 l 1,123,-1
 640 256 l 1,124,-1
 640 192 l 1,125,-1
 704 192 l 1,126,-1
 704 128 l 1,127,-1
 768 128 l 1,116,-1
192 128 m 1,128,-1
 256 128 l 1,129,-1
 256 192 l 1,130,-1
 320 192 l 1,131,-1
 320 256 l 1,132,-1
 320 320 l 1,133,-1
 320 384 l 1,134,-1
 256 384 l 1,135,-1
 256 448 l 1,136,-1
 192 448 l 1,137,-1
 128 448 l 1,138,-1
 64 448 l 1,139,-1
 64 384 l 1,140,-1
 0 384 l 1,141,-1
 0 320 l 1,142,-1
 0 256 l 1,143,-1
 0 192 l 1,144,-1
 64 192 l 1,145,-1
 64 128 l 1,146,-1
 128 128 l 1,147,-1
 192 128 l 1,128,-1
EndSplineSet
EndChar

StartChar: B
Encoding: 66 66 13
Width: 1024
Flags: W
LayerCount: 2
Fore
SplineSet
768 -256 m 1,0,-1
 704 -256 l 1,1,-1
 640 -256 l 1,2,-1
 576 -256 l 1,3,-1
 512 -256 l 1,4,-1
 448 -256 l 1,5,-1
 384 -256 l 1,6,-1
 320 -256 l 1,7,-1
 256 -256 l 1,8,-1
 192 -256 l 1,9,-1
 128 -256 l 1,10,-1
 64 -256 l 1,11,-1
 0 -256 l 1,12,-1
 -64 -256 l 1,13,-1
 -64 -192 l 1,14,-1
 -128 -192 l 1,15,-1
 -128 -128 l 1,16,-1
 -128 -64 l 1,17,-1
 -128 0 l 1,18,-1
 -128 64 l 1,19,-1
 -128 128 l 1,20,-1
 -128 192 l 1,21,-1
 -128 256 l 1,22,-1
 -128 320 l 1,23,-1
 -128 384 l 1,24,-1
 -128 448 l 1,25,-1
 -128 512 l 1,26,-1
 -128 576 l 1,27,-1
 -128 640 l 1,28,-1
 -128 704 l 1,29,-1
 -64 704 l 1,30,-1
 -64 768 l 1,31,-1
 0 768 l 1,32,-1
 64 768 l 1,33,-1
 128 768 l 1,34,-1
 192 768 l 1,35,-1
 256 768 l 1,36,-1
 320 768 l 1,37,-1
 384 768 l 1,38,-1
 448 768 l 1,39,-1
 512 768 l 1,40,-1
 576 768 l 1,41,-1
 640 768 l 1,42,-1
 704 768 l 1,43,-1
 768 768 l 1,44,-1
 832 768 l 1,45,-1
 832 704 l 1,46,-1
 896 704 l 1,47,-1
 896 640 l 1,48,-1
 896 576 l 1,49,-1
 896 512 l 1,50,-1
 896 448 l 1,51,-1
 896 384 l 1,52,-1
 896 320 l 1,53,-1
 896 256 l 1,54,-1
 896 192 l 1,55,-1
 896 128 l 1,56,-1
 896 64 l 1,57,-1
 896 0 l 1,58,-1
 896 -64 l 1,59,-1
 896 -128 l 1,60,-1
 896 -192 l 1,61,-1
 832 -192 l 1,62,-1
 832 -256 l 1,63,-1
 768 -256 l 1,0,-1
768 -128 m 1,64,-1
 768 -64 l 1,65,-1
 704 -64 l 1,66,-1
 704 -128 l 1,67,-1
 768 -128 l 1,64,-1
384 -64 m 1,68,-1
 448 -64 l 1,69,-1
 448 0 l 1,70,-1
 448 64 l 1,71,-1
 384 64 l 1,72,-1
 320 64 l 1,73,-1
 320 0 l 1,74,-1
 320 -64 l 1,75,-1
 384 -64 l 1,68,-1
64 -128 m 1,76,-1
 64 -64 l 1,77,-1
 0 -64 l 1,78,-1
 0 -128 l 1,79,-1
 64 -128 l 1,76,-1
384 128 m 1,80,-1
 448 128 l 1,81,-1
 448 192 l 1,82,-1
 448 256 l 1,83,-1
 512 256 l 1,84,-1
 576 256 l 1,85,-1
 576 320 l 1,86,-1
 576 384 l 1,87,-1
 576 448 l 1,88,-1
 576 512 l 1,89,-1
 512 512 l 1,90,-1
 512 576 l 1,91,-1
 448 576 l 1,92,-1
 384 576 l 1,93,-1
 320 576 l 1,94,-1
 256 576 l 1,95,-1
 192 576 l 1,96,-1
 192 512 l 1,97,-1
 128 512 l 1,98,-1
 128 448 l 1,99,-1
 128 384 l 1,100,-1
 128 320 l 1,101,-1
 192 320 l 1,102,-1
 256 320 l 1,103,-1
 256 384 l 1,104,-1
 256 448 l 1,105,-1
 256 512 l 1,106,-1
 320 512 l 1,107,-1
 384 512 l 1,108,-1
 448 512 l 1,109,-1
 448 448 l 1,110,-1
 448 384 l 1,111,-1
 448 320 l 1,112,-1
 384 320 l 1,113,-1
 384 256 l 1,114,-1
 320 256 l 1,115,-1
 320 192 l 1,116,-1
 320 128 l 1,117,-1
 384 128 l 1,80,-1
768 576 m 1,118,-1
 768 640 l 1,119,-1
 704 640 l 1,120,-1
 704 576 l 1,121,-1
 768 576 l 1,118,-1
64 576 m 1,122,-1
 64 640 l 1,123,-1
 0 640 l 1,124,-1
 0 576 l 1,125,-1
 64 576 l 1,122,-1
EndSplineSet
EndChar

StartChar: C
Encoding: 67 67 14
Width: 1024
Flags: W
LayerCount: 2
Fore
SplineSet
576 -192 m 1,0,-1
 576 -128 l 1,1,-1
 640 -128 l 1,2,-1
 640 -192 l 1,3,-1
 576 -192 l 1,0,-1
448 -192 m 1,4,-1
 384 -192 l 1,5,-1
 320 -192 l 1,6,-1
 256 -192 l 1,7,-1
 256 -128 l 1,8,-1
 192 -128 l 1,9,-1
 192 -64 l 1,10,-1
 192 0 l 1,11,-1
 128 0 l 1,12,-1
 128 64 l 1,13,-1
 128 128 l 1,14,-1
 128 192 l 1,15,-1
 128 256 l 1,16,-1
 128 320 l 1,17,-1
 128 384 l 1,18,-1
 128 448 l 1,19,-1
 128 512 l 1,20,-1
 192 512 l 1,21,-1
 192 576 l 1,22,-1
 192 640 l 1,23,-1
 256 640 l 1,24,-1
 256 704 l 1,25,-1
 320 704 l 1,26,-1
 384 704 l 1,27,-1
 448 704 l 1,28,-1
 512 704 l 1,29,-1
 512 640 l 1,30,-1
 576 640 l 1,31,-1
 576 576 l 1,32,-1
 576 512 l 1,33,-1
 640 512 l 1,34,-1
 640 448 l 1,35,-1
 640 384 l 1,36,-1
 640 320 l 1,37,-1
 640 256 l 1,38,-1
 640 192 l 1,39,-1
 640 128 l 1,40,-1
 640 64 l 1,41,-1
 640 0 l 1,42,-1
 576 0 l 1,43,-1
 576 -64 l 1,44,-1
 576 -128 l 1,45,-1
 512 -128 l 1,46,-1
 512 -192 l 1,47,-1
 448 -192 l 1,4,-1
640 -128 m 1,48,-1
 640 -64 l 1,49,-1
 704 -64 l 1,50,-1
 704 -128 l 1,51,-1
 640 -128 l 1,48,-1
384 -64 m 1,52,-1
 448 -64 l 1,53,-1
 448 0 l 1,54,-1
 384 0 l 1,55,-1
 320 0 l 1,56,-1
 320 64 l 1,57,-1
 320 128 l 1,58,-1
 320 192 l 1,59,-1
 320 256 l 1,60,-1
 320 320 l 1,61,-1
 320 384 l 1,62,-1
 320 448 l 1,63,-1
 320 512 l 1,64,-1
 256 512 l 1,65,-1
 256 448 l 1,66,-1
 256 384 l 1,67,-1
 256 320 l 1,68,-1
 256 256 l 1,69,-1
 256 192 l 1,70,-1
 256 128 l 1,71,-1
 256 64 l 1,72,-1
 256 0 l 1,73,-1
 320 0 l 1,74,-1
 320 -64 l 1,75,-1
 384 -64 l 1,52,-1
704 -64 m 1,76,-1
 704 0 l 1,77,-1
 704 64 l 1,78,-1
 704 128 l 1,79,-1
 704 192 l 1,80,-1
 704 256 l 1,81,-1
 704 320 l 1,82,-1
 704 384 l 1,83,-1
 704 448 l 1,84,-1
 704 512 l 1,85,-1
 704 576 l 1,86,-1
 768 576 l 1,87,-1
 768 512 l 1,88,-1
 768 448 l 1,89,-1
 768 384 l 1,90,-1
 768 320 l 1,91,-1
 768 256 l 1,92,-1
 768 192 l 1,93,-1
 768 128 l 1,94,-1
 768 64 l 1,95,-1
 768 0 l 1,96,-1
 768 -64 l 1,97,-1
 704 -64 l 1,76,-1
512 0 m 1,98,-1
 512 64 l 1,99,-1
 512 128 l 1,100,-1
 512 192 l 1,101,-1
 512 256 l 1,102,-1
 512 320 l 1,103,-1
 512 384 l 1,104,-1
 512 448 l 1,105,-1
 512 512 l 1,106,-1
 448 512 l 1,107,-1
 448 576 l 1,108,-1
 384 576 l 1,109,-1
 320 576 l 1,110,-1
 320 512 l 1,111,-1
 384 512 l 1,112,-1
 448 512 l 1,113,-1
 448 448 l 1,114,-1
 448 384 l 1,115,-1
 448 320 l 1,116,-1
 448 256 l 1,117,-1
 448 192 l 1,118,-1
 448 128 l 1,119,-1
 448 64 l 1,120,-1
 448 0 l 1,121,-1
 512 0 l 1,98,-1
704 576 m 1,122,-1
 640 576 l 1,123,-1
 640 640 l 1,124,-1
 704 640 l 1,125,-1
 704 576 l 1,122,-1
640 640 m 1,126,-1
 576 640 l 1,127,-1
 576 704 l 1,128,-1
 640 704 l 1,129,-1
 640 640 l 1,126,-1
EndSplineSet
EndChar

StartChar: D
Encoding: 68 68 15
Width: 1024
Flags: W
LayerCount: 2
Fore
SplineSet
704 64 m 1,0,-1
 704 128 l 1,1,-1
 768 128 l 1,2,-1
 768 64 l 1,3,-1
 704 64 l 1,0,-1
0 64 m 1,4,-1
 0 128 l 1,5,-1
 64 128 l 1,6,-1
 64 64 l 1,7,-1
 0 64 l 1,4,-1
384 -256 m 1,8,-1
 320 -256 l 1,9,-1
 320 -192 l 1,10,-1
 320 -128 l 1,11,-1
 320 -64 l 1,12,-1
 320 0 l 1,13,-1
 320 64 l 1,14,-1
 320 128 l 1,15,-1
 320 192 l 1,16,-1
 256 192 l 1,17,-1
 192 192 l 1,18,-1
 192 128 l 1,19,-1
 128 128 l 1,20,-1
 64 128 l 1,21,-1
 64 192 l 1,22,-1
 64 256 l 1,23,-1
 0 256 l 1,24,-1
 0 192 l 1,25,-1
 0 128 l 1,26,-1
 -64 128 l 1,27,-1
 -64 192 l 1,28,-1
 -64 256 l 1,29,-1
 -128 256 l 1,30,-1
 -128 320 l 1,31,-1
 -128 384 l 1,32,-1
 -128 448 l 1,33,-1
 -128 512 l 1,34,-1
 -128 576 l 1,35,-1
 -64 576 l 1,36,-1
 -64 640 l 1,37,-1
 -64 704 l 1,38,-1
 0 704 l 1,39,-1
 0 768 l 1,40,-1
 64 768 l 1,41,-1
 64 704 l 1,42,-1
 128 704 l 1,43,-1
 192 704 l 1,44,-1
 192 640 l 1,45,-1
 256 640 l 1,46,-1
 320 640 l 1,47,-1
 320 704 l 1,48,-1
 384 704 l 1,49,-1
 448 704 l 1,50,-1
 448 640 l 1,51,-1
 512 640 l 1,52,-1
 576 640 l 1,53,-1
 576 704 l 1,54,-1
 640 704 l 1,55,-1
 704 704 l 1,56,-1
 704 640 l 1,57,-1
 704 576 l 1,58,-1
 768 576 l 1,59,-1
 768 512 l 1,60,-1
 768 448 l 1,61,-1
 768 384 l 1,62,-1
 768 320 l 1,63,-1
 768 256 l 1,64,-1
 832 256 l 1,65,-1
 832 192 l 1,66,-1
 832 128 l 1,67,-1
 768 128 l 1,68,-1
 768 192 l 1,69,-1
 768 256 l 1,70,-1
 704 256 l 1,71,-1
 704 192 l 1,72,-1
 704 128 l 1,73,-1
 640 128 l 1,74,-1
 640 192 l 1,75,-1
 576 192 l 1,76,-1
 512 192 l 1,77,-1
 448 192 l 1,78,-1
 448 128 l 1,79,-1
 448 64 l 1,80,-1
 448 0 l 1,81,-1
 448 -64 l 1,82,-1
 448 -128 l 1,83,-1
 448 -192 l 1,84,-1
 448 -256 l 1,85,-1
 384 -256 l 1,8,-1
832 256 m 1,86,-1
 832 320 l 1,87,-1
 832 384 l 1,88,-1
 832 448 l 1,89,-1
 832 512 l 1,90,-1
 832 576 l 1,91,-1
 896 576 l 1,92,-1
 896 512 l 1,93,-1
 896 448 l 1,94,-1
 896 384 l 1,95,-1
 896 320 l 1,96,-1
 896 256 l 1,97,-1
 832 256 l 1,86,-1
0 320 m 1,98,-1
 0 384 l 1,99,-1
 0 448 l 1,100,-1
 0 512 l 1,101,-1
 -64 512 l 1,102,-1
 -64 448 l 1,103,-1
 -64 384 l 1,104,-1
 -64 320 l 1,105,-1
 0 320 l 1,98,-1
64 512 m 1,106,-1
 64 576 l 1,107,-1
 64 640 l 1,108,-1
 0 640 l 1,109,-1
 0 576 l 1,110,-1
 0 512 l 1,111,-1
 64 512 l 1,106,-1
832 576 m 1,112,-1
 768 576 l 1,113,-1
 768 640 l 1,114,-1
 768 704 l 1,115,-1
 832 704 l 1,116,-1
 832 640 l 1,117,-1
 832 576 l 1,112,-1
768 704 m 1,118,-1
 704 704 l 1,119,-1
 704 768 l 1,120,-1
 768 768 l 1,121,-1
 768 704 l 1,118,-1
EndSplineSet
EndChar

StartChar: E
Encoding: 69 69 16
Width: 1024
Flags: W
LayerCount: 2
Fore
SplineSet
832 -256 m 1,0,-1
 832 -192 l 1,1,-1
 896 -192 l 1,2,-1
 896 -256 l 1,3,-1
 832 -256 l 1,0,-1
320 -256 m 1,4,-1
 320 -192 l 1,5,-1
 384 -192 l 1,6,-1
 384 -256 l 1,7,-1
 320 -256 l 1,4,-1
-128 -256 m 1,8,-1
 -128 -192 l 1,9,-1
 -64 -192 l 1,10,-1
 -64 -256 l 1,11,-1
 -128 -256 l 1,8,-1
832 384 m 1,12,-1
 832 448 l 1,13,-1
 896 448 l 1,14,-1
 896 384 l 1,15,-1
 832 384 l 1,12,-1
512 384 m 1,16,-1
 512 448 l 1,17,-1
 576 448 l 1,18,-1
 576 384 l 1,19,-1
 512 384 l 1,16,-1
704 -192 m 1,20,-1
 640 -192 l 1,21,-1
 576 -192 l 1,22,-1
 512 -192 l 1,23,-1
 448 -192 l 1,24,-1
 448 -128 l 1,25,-1
 448 -64 l 1,26,-1
 448 0 l 1,27,-1
 512 0 l 1,28,-1
 512 64 l 1,29,-1
 512 128 l 1,30,-1
 576 128 l 1,31,-1
 576 192 l 1,32,-1
 576 256 l 1,33,-1
 576 320 l 1,34,-1
 640 320 l 1,35,-1
 704 320 l 1,36,-1
 768 320 l 1,37,-1
 832 320 l 1,38,-1
 832 256 l 1,39,-1
 832 192 l 1,40,-1
 832 128 l 1,41,-1
 832 64 l 1,42,-1
 832 0 l 1,43,-1
 832 -64 l 1,44,-1
 832 -128 l 1,45,-1
 768 -128 l 1,46,-1
 768 -192 l 1,47,-1
 704 -192 l 1,20,-1
320 -192 m 1,48,-1
 256 -192 l 1,49,-1
 192 -192 l 1,50,-1
 128 -192 l 1,51,-1
 64 -192 l 1,52,-1
 0 -192 l 1,53,-1
 -64 -192 l 1,54,-1
 -64 -128 l 1,55,-1
 -64 -64 l 1,56,-1
 -64 0 l 1,57,-1
 0 0 l 1,58,-1
 0 -64 l 1,59,-1
 64 -64 l 1,60,-1
 128 -64 l 1,61,-1
 128 -128 l 1,62,-1
 192 -128 l 1,63,-1
 256 -128 l 1,64,-1
 320 -128 l 1,65,-1
 320 -192 l 1,48,-1
320 0 m 1,66,-1
 256 0 l 1,67,-1
 192 0 l 1,68,-1
 128 0 l 1,69,-1
 128 64 l 1,70,-1
 64 64 l 1,71,-1
 0 64 l 1,72,-1
 0 128 l 1,73,-1
 -64 128 l 1,74,-1
 -64 192 l 1,75,-1
 -64 256 l 1,76,-1
 -64 320 l 1,77,-1
 -64 384 l 1,78,-1
 -64 448 l 1,79,-1
 -64 512 l 1,80,-1
 -64 576 l 1,81,-1
 -64 640 l 1,82,-1
 -64 704 l 1,83,-1
 0 704 l 1,84,-1
 64 704 l 1,85,-1
 128 704 l 1,86,-1
 192 704 l 1,87,-1
 256 704 l 1,88,-1
 320 704 l 1,89,-1
 384 704 l 1,90,-1
 448 704 l 1,91,-1
 448 640 l 1,92,-1
 448 576 l 1,93,-1
 448 512 l 1,94,-1
 448 448 l 1,95,-1
 448 384 l 1,96,-1
 448 320 l 1,97,-1
 448 256 l 1,98,-1
 448 192 l 1,99,-1
 448 128 l 1,100,-1
 384 128 l 1,101,-1
 384 64 l 1,102,-1
 384 0 l 1,103,-1
 320 0 l 1,66,-1
832 448 m 1,104,-1
 768 448 l 1,105,-1
 704 448 l 1,106,-1
 640 448 l 1,107,-1
 640 512 l 1,108,-1
 576 512 l 1,109,-1
 576 576 l 1,110,-1
 576 640 l 1,111,-1
 576 704 l 1,112,-1
 640 704 l 1,113,-1
 704 704 l 1,114,-1
 768 704 l 1,115,-1
 832 704 l 1,116,-1
 832 640 l 1,117,-1
 832 576 l 1,118,-1
 832 512 l 1,119,-1
 832 448 l 1,104,-1
832 704 m 1,120,-1
 832 768 l 1,121,-1
 896 768 l 1,122,-1
 896 704 l 1,123,-1
 832 704 l 1,120,-1
576 704 m 1,124,-1
 512 704 l 1,125,-1
 512 768 l 1,126,-1
 576 768 l 1,127,-1
 576 704 l 1,124,-1
-64 704 m 1,128,-1
 -128 704 l 1,129,-1
 -128 768 l 1,130,-1
 -64 768 l 1,131,-1
 -64 704 l 1,128,-1
EndSplineSet
EndChar

StartChar: F
Encoding: 70 70 17
Width: 1024
Flags: W
LayerCount: 2
Fore
SplineSet
768 -192 m 1,0,-1
 832 -192 l 1,1,-1
 832 -128 l 1,2,-1
 832 -64 l 1,3,-1
 832 0 l 1,4,-1
 832 64 l 1,5,-1
 832 128 l 1,6,-1
 832 192 l 1,7,-1
 832 256 l 1,8,-1
 832 320 l 1,9,-1
 768 320 l 1,10,-1
 704 320 l 1,11,-1
 640 320 l 1,12,-1
 576 320 l 1,13,-1
 576 256 l 1,14,-1
 576 192 l 1,15,-1
 576 128 l 1,16,-1
 512 128 l 1,17,-1
 512 64 l 1,18,-1
 512 0 l 1,19,-1
 512 -64 l 1,20,-1
 512 -128 l 1,21,-1
 512 -192 l 1,22,-1
 576 -192 l 1,23,-1
 640 -192 l 1,24,-1
 704 -192 l 1,25,-1
 768 -192 l 1,0,-1
768 -256 m 1,26,-1
 704 -256 l 1,27,-1
 640 -256 l 1,28,-1
 576 -256 l 1,29,-1
 512 -256 l 1,30,-1
 448 -256 l 1,31,-1
 384 -256 l 1,32,-1
 384 -192 l 1,33,-1
 320 -192 l 1,34,-1
 320 -128 l 1,35,-1
 256 -128 l 1,36,-1
 192 -128 l 1,37,-1
 128 -128 l 1,38,-1
 128 -64 l 1,39,-1
 64 -64 l 1,40,-1
 0 -64 l 1,41,-1
 0 0 l 1,42,-1
 -64 0 l 1,43,-1
 -64 -64 l 1,44,-1
 -64 -128 l 1,45,-1
 -64 -192 l 1,46,-1
 0 -192 l 1,47,-1
 64 -192 l 1,48,-1
 128 -192 l 1,49,-1
 192 -192 l 1,50,-1
 256 -192 l 1,51,-1
 320 -192 l 1,52,-1
 320 -256 l 1,53,-1
 256 -256 l 1,54,-1
 192 -256 l 1,55,-1
 128 -256 l 1,56,-1
 64 -256 l 1,57,-1
 0 -256 l 1,58,-1
 -64 -256 l 1,59,-1
 -64 -192 l 1,60,-1
 -128 -192 l 1,61,-1
 -128 -128 l 1,62,-1
 -128 -64 l 1,63,-1
 -128 0 l 1,64,-1
 -128 64 l 1,65,-1
 -128 128 l 1,66,-1
 -128 192 l 1,67,-1
 -128 256 l 1,68,-1
 -128 320 l 1,69,-1
 -128 384 l 1,70,-1
 -128 448 l 1,71,-1
 -128 512 l 1,72,-1
 -128 576 l 1,73,-1
 -128 640 l 1,74,-1
 -128 704 l 1,75,-1
 -64 704 l 1,76,-1
 -64 768 l 1,77,-1
 0 768 l 1,78,-1
 64 768 l 1,79,-1
 128 768 l 1,80,-1
 192 768 l 1,81,-1
 256 768 l 1,82,-1
 320 768 l 1,83,-1
 384 768 l 1,84,-1
 448 768 l 1,85,-1
 512 768 l 1,86,-1
 512 704 l 1,87,-1
 576 704 l 1,88,-1
 576 640 l 1,89,-1
 576 576 l 1,90,-1
 576 512 l 1,91,-1
 640 512 l 1,92,-1
 640 448 l 1,93,-1
 704 448 l 1,94,-1
 768 448 l 1,95,-1
 832 448 l 1,96,-1
 832 384 l 1,97,-1
 896 384 l 1,98,-1
 896 320 l 1,99,-1
 896 256 l 1,100,-1
 896 192 l 1,101,-1
 896 128 l 1,102,-1
 896 64 l 1,103,-1
 896 0 l 1,104,-1
 896 -64 l 1,105,-1
 896 -128 l 1,106,-1
 896 -192 l 1,107,-1
 832 -192 l 1,108,-1
 832 -256 l 1,109,-1
 768 -256 l 1,26,-1
320 0 m 1,110,-1
 384 0 l 1,111,-1
 384 64 l 1,112,-1
 384 128 l 1,113,-1
 448 128 l 1,114,-1
 448 192 l 1,115,-1
 448 256 l 1,116,-1
 448 320 l 1,117,-1
 448 384 l 1,118,-1
 448 448 l 1,119,-1
 448 512 l 1,120,-1
 448 576 l 1,121,-1
 448 640 l 1,122,-1
 448 704 l 1,123,-1
 384 704 l 1,124,-1
 320 704 l 1,125,-1
 256 704 l 1,126,-1
 192 704 l 1,127,-1
 128 704 l 1,128,-1
 64 704 l 1,129,-1
 0 704 l 1,130,-1
 -64 704 l 1,131,-1
 -64 640 l 1,132,-1
 -64 576 l 1,133,-1
 -64 512 l 1,134,-1
 -64 448 l 1,135,-1
 -64 384 l 1,136,-1
 -64 320 l 1,137,-1
 -64 256 l 1,138,-1
 -64 192 l 1,139,-1
 -64 128 l 1,140,-1
 0 128 l 1,141,-1
 0 64 l 1,142,-1
 64 64 l 1,143,-1
 128 64 l 1,144,-1
 128 0 l 1,145,-1
 192 0 l 1,146,-1
 256 0 l 1,147,-1
 320 0 l 1,110,-1
576 384 m 1,148,-1
 576 448 l 1,149,-1
 512 448 l 1,150,-1
 512 384 l 1,151,-1
 576 384 l 1,148,-1
832 448 m 1,152,-1
 832 512 l 1,153,-1
 832 576 l 1,154,-1
 832 640 l 1,155,-1
 832 704 l 1,156,-1
 896 704 l 1,157,-1
 896 640 l 1,158,-1
 896 576 l 1,159,-1
 896 512 l 1,160,-1
 896 448 l 1,161,-1
 832 448 l 1,152,-1
832 704 m 1,162,-1
 768 704 l 1,163,-1
 704 704 l 1,164,-1
 640 704 l 1,165,-1
 576 704 l 1,166,-1
 576 768 l 1,167,-1
 640 768 l 1,168,-1
 704 768 l 1,169,-1
 768 768 l 1,170,-1
 832 768 l 1,171,-1
 832 704 l 1,162,-1
EndSplineSet
EndChar

StartChar: G
Encoding: 71 71 18
Width: 1024
Flags: W
LayerCount: 2
Fore
SplineSet
0 -256 m 1,0,-1
 0 -192 l 1,1,-1
 64 -192 l 1,2,-1
 64 -256 l 1,3,-1
 0 -256 l 1,0,-1
512 256 m 1,4,-1
 512 320 l 1,5,-1
 448 320 l 1,6,-1
 448 256 l 1,7,-1
 448 192 l 1,8,-1
 512 192 l 1,9,-1
 576 192 l 1,10,-1
 640 192 l 1,11,-1
 640 256 l 1,12,-1
 640 320 l 1,13,-1
 640 384 l 1,14,-1
 640 448 l 1,15,-1
 704 448 l 1,16,-1
 704 512 l 1,17,-1
 640 512 l 1,18,-1
 576 512 l 1,19,-1
 576 448 l 1,20,-1
 576 384 l 1,21,-1
 576 320 l 1,22,-1
 576 256 l 1,23,-1
 512 256 l 1,4,-1
192 256 m 1,24,-1
 192 320 l 1,25,-1
 192 384 l 1,26,-1
 192 448 l 1,27,-1
 192 512 l 1,28,-1
 128 512 l 1,29,-1
 64 512 l 1,30,-1
 64 576 l 1,31,-1
 128 576 l 1,32,-1
 128 640 l 1,33,-1
 192 640 l 1,34,-1
 192 704 l 1,35,-1
 256 704 l 1,36,-1
 256 768 l 1,37,-1
 320 768 l 1,38,-1
 384 768 l 1,39,-1
 448 768 l 1,40,-1
 512 768 l 1,41,-1
 512 704 l 1,42,-1
 576 704 l 1,43,-1
 576 640 l 1,44,-1
 640 640 l 1,45,-1
 640 576 l 1,46,-1
 704 576 l 1,47,-1
 704 512 l 1,48,-1
 768 512 l 1,49,-1
 768 448 l 1,50,-1
 832 448 l 1,51,-1
 832 384 l 1,52,-1
 832 320 l 1,53,-1
 896 320 l 1,54,-1
 896 256 l 1,55,-1
 896 192 l 1,56,-1
 896 128 l 1,57,-1
 832 128 l 1,58,-1
 832 64 l 1,59,-1
 768 64 l 1,60,-1
 704 64 l 1,61,-1
 640 64 l 1,62,-1
 640 0 l 1,63,-1
 704 0 l 1,64,-1
 768 0 l 1,65,-1
 768 -64 l 1,66,-1
 832 -64 l 1,67,-1
 832 -128 l 1,68,-1
 832 -192 l 1,69,-1
 768 -192 l 1,70,-1
 768 -256 l 1,71,-1
 704 -256 l 1,72,-1
 640 -256 l 1,73,-1
 576 -256 l 1,74,-1
 512 -256 l 1,75,-1
 448 -256 l 1,76,-1
 448 -192 l 1,77,-1
 384 -192 l 1,78,-1
 320 -192 l 1,79,-1
 320 -128 l 1,80,-1
 384 -128 l 1,81,-1
 448 -128 l 1,82,-1
 512 -128 l 1,83,-1
 512 -64 l 1,84,-1
 576 -64 l 1,85,-1
 576 0 l 1,86,-1
 576 64 l 1,87,-1
 576 128 l 1,88,-1
 512 128 l 1,89,-1
 448 128 l 1,90,-1
 384 128 l 1,91,-1
 320 128 l 1,92,-1
 256 128 l 1,93,-1
 192 128 l 1,94,-1
 192 64 l 1,95,-1
 192 0 l 1,96,-1
 192 -64 l 1,97,-1
 192 -128 l 1,98,-1
 256 -128 l 1,99,-1
 256 -192 l 1,100,-1
 320 -192 l 1,101,-1
 320 -256 l 1,102,-1
 256 -256 l 1,103,-1
 192 -256 l 1,104,-1
 128 -256 l 1,105,-1
 128 -192 l 1,106,-1
 64 -192 l 1,107,-1
 64 -128 l 1,108,-1
 64 -64 l 1,109,-1
 128 -64 l 1,110,-1
 128 0 l 1,111,-1
 128 64 l 1,112,-1
 64 64 l 1,113,-1
 0 64 l 1,114,-1
 -64 64 l 1,115,-1
 -64 128 l 1,116,-1
 -128 128 l 1,117,-1
 -128 192 l 1,118,-1
 -128 256 l 1,119,-1
 -128 320 l 1,120,-1
 -64 320 l 1,121,-1
 -64 384 l 1,122,-1
 -64 448 l 1,123,-1
 0 448 l 1,124,-1
 0 512 l 1,125,-1
 64 512 l 1,126,-1
 64 448 l 1,127,-1
 128 448 l 1,128,-1
 128 384 l 1,129,-1
 128 320 l 1,130,-1
 128 256 l 1,131,-1
 128 192 l 1,132,-1
 192 192 l 1,133,-1
 256 192 l 1,134,-1
 320 192 l 1,135,-1
 320 256 l 1,136,-1
 320 320 l 1,137,-1
 256 320 l 1,138,-1
 256 256 l 1,139,-1
 192 256 l 1,24,-1
EndSplineSet
EndChar

StartChar: H
Encoding: 72 72 19
Width: 1024
Flags: W
LayerCount: 2
Fore
SplineSet
768 -256 m 1,0,-1
 704 -256 l 1,1,-1
 640 -256 l 1,2,-1
 576 -256 l 1,3,-1
 512 -256 l 1,4,-1
 448 -256 l 1,5,-1
 384 -256 l 1,6,-1
 320 -256 l 1,7,-1
 256 -256 l 1,8,-1
 192 -256 l 1,9,-1
 128 -256 l 1,10,-1
 64 -256 l 1,11,-1
 0 -256 l 1,12,-1
 -64 -256 l 1,13,-1
 -64 -192 l 1,14,-1
 0 -192 l 1,15,-1
 0 -128 l 1,16,-1
 64 -128 l 1,17,-1
 64 -64 l 1,18,-1
 128 -64 l 1,19,-1
 128 0 l 1,20,-1
 192 0 l 1,21,-1
 256 0 l 1,22,-1
 320 0 l 1,23,-1
 384 0 l 1,24,-1
 448 0 l 1,25,-1
 512 0 l 1,26,-1
 576 0 l 1,27,-1
 640 0 l 1,28,-1
 640 -64 l 1,29,-1
 704 -64 l 1,30,-1
 704 -128 l 1,31,-1
 768 -128 l 1,32,-1
 768 -192 l 1,33,-1
 832 -192 l 1,34,-1
 832 -256 l 1,35,-1
 768 -256 l 1,0,-1
832 -192 m 1,36,-1
 832 -128 l 1,37,-1
 768 -128 l 1,38,-1
 768 -64 l 1,39,-1
 704 -64 l 1,40,-1
 704 0 l 1,41,-1
 640 0 l 1,42,-1
 640 64 l 1,43,-1
 640 128 l 1,44,-1
 640 192 l 1,45,-1
 640 256 l 1,46,-1
 640 320 l 1,47,-1
 640 384 l 1,48,-1
 640 448 l 1,49,-1
 640 512 l 1,50,-1
 704 512 l 1,51,-1
 704 576 l 1,52,-1
 768 576 l 1,53,-1
 768 640 l 1,54,-1
 832 640 l 1,55,-1
 832 704 l 1,56,-1
 896 704 l 1,57,-1
 896 640 l 1,58,-1
 896 576 l 1,59,-1
 896 512 l 1,60,-1
 896 448 l 1,61,-1
 896 384 l 1,62,-1
 896 320 l 1,63,-1
 896 256 l 1,64,-1
 896 192 l 1,65,-1
 896 128 l 1,66,-1
 896 64 l 1,67,-1
 896 0 l 1,68,-1
 896 -64 l 1,69,-1
 896 -128 l 1,70,-1
 896 -192 l 1,71,-1
 832 -192 l 1,36,-1
-64 -192 m 1,72,-1
 -128 -192 l 1,73,-1
 -128 -128 l 1,74,-1
 -128 -64 l 1,75,-1
 -128 0 l 1,76,-1
 -128 64 l 1,77,-1
 -128 128 l 1,78,-1
 -128 192 l 1,79,-1
 -128 256 l 1,80,-1
 -128 320 l 1,81,-1
 -128 384 l 1,82,-1
 -128 448 l 1,83,-1
 -128 512 l 1,84,-1
 -128 576 l 1,85,-1
 -128 640 l 1,86,-1
 -128 704 l 1,87,-1
 -64 704 l 1,88,-1
 -64 640 l 1,89,-1
 0 640 l 1,90,-1
 0 576 l 1,91,-1
 64 576 l 1,92,-1
 64 512 l 1,93,-1
 128 512 l 1,94,-1
 128 448 l 1,95,-1
 128 384 l 1,96,-1
 128 320 l 1,97,-1
 128 256 l 1,98,-1
 128 192 l 1,99,-1
 128 128 l 1,100,-1
 128 64 l 1,101,-1
 128 0 l 1,102,-1
 64 0 l 1,103,-1
 64 -64 l 1,104,-1
 0 -64 l 1,105,-1
 0 -128 l 1,106,-1
 -64 -128 l 1,107,-1
 -64 -192 l 1,72,-1
640 512 m 1,108,-1
 576 512 l 1,109,-1
 512 512 l 1,110,-1
 448 512 l 1,111,-1
 384 512 l 1,112,-1
 320 512 l 1,113,-1
 256 512 l 1,114,-1
 192 512 l 1,115,-1
 128 512 l 1,116,-1
 128 576 l 1,117,-1
 64 576 l 1,118,-1
 64 640 l 1,119,-1
 0 640 l 1,120,-1
 0 704 l 1,121,-1
 -64 704 l 1,122,-1
 -64 768 l 1,123,-1
 0 768 l 1,124,-1
 64 768 l 1,125,-1
 128 768 l 1,126,-1
 192 768 l 1,127,-1
 256 768 l 1,128,-1
 320 768 l 1,129,-1
 384 768 l 1,130,-1
 448 768 l 1,131,-1
 512 768 l 1,132,-1
 576 768 l 1,133,-1
 640 768 l 1,134,-1
 704 768 l 1,135,-1
 768 768 l 1,136,-1
 832 768 l 1,137,-1
 832 704 l 1,138,-1
 768 704 l 1,139,-1
 768 640 l 1,140,-1
 704 640 l 1,141,-1
 704 576 l 1,142,-1
 640 576 l 1,143,-1
 640 512 l 1,108,-1
EndSplineSet
EndChar

StartChar: I
Encoding: 73 73 20
Width: 1024
Flags: W
LayerCount: 2
Fore
SplineSet
704 -256 m 1,0,-1
 640 -256 l 1,1,-1
 640 -192 l 1,2,-1
 576 -192 l 1,3,-1
 576 -128 l 1,4,-1
 512 -128 l 1,5,-1
 448 -128 l 1,6,-1
 448 -64 l 1,7,-1
 384 -64 l 1,8,-1
 320 -64 l 1,9,-1
 320 -128 l 1,10,-1
 256 -128 l 1,11,-1
 192 -128 l 1,12,-1
 192 -192 l 1,13,-1
 128 -192 l 1,14,-1
 128 -256 l 1,15,-1
 64 -256 l 1,16,-1
 0 -256 l 1,17,-1
 0 -192 l 1,18,-1
 0 -128 l 1,19,-1
 64 -128 l 1,20,-1
 64 -64 l 1,21,-1
 64 0 l 1,22,-1
 64 64 l 1,23,-1
 128 64 l 1,24,-1
 128 128 l 1,25,-1
 128 192 l 1,26,-1
 64 192 l 1,27,-1
 64 256 l 1,28,-1
 0 256 l 1,29,-1
 0 320 l 1,30,-1
 -64 320 l 1,31,-1
 -64 384 l 1,32,-1
 -64 448 l 1,33,-1
 0 448 l 1,34,-1
 64 448 l 1,35,-1
 128 448 l 1,36,-1
 192 448 l 1,37,-1
 192 512 l 1,38,-1
 256 512 l 1,39,-1
 256 576 l 1,40,-1
 256 640 l 1,41,-1
 320 640 l 1,42,-1
 320 704 l 1,43,-1
 320 768 l 1,44,-1
 384 768 l 1,45,-1
 448 768 l 1,46,-1
 448 704 l 1,47,-1
 448 640 l 1,48,-1
 512 640 l 1,49,-1
 512 576 l 1,50,-1
 512 512 l 1,51,-1
 576 512 l 1,52,-1
 576 448 l 1,53,-1
 640 448 l 1,54,-1
 704 448 l 1,55,-1
 768 448 l 1,56,-1
 832 448 l 1,57,-1
 832 384 l 1,58,-1
 832 320 l 1,59,-1
 768 320 l 1,60,-1
 768 256 l 1,61,-1
 704 256 l 1,62,-1
 704 192 l 1,63,-1
 704 128 l 1,64,-1
 704 64 l 1,65,-1
 704 0 l 1,66,-1
 704 -64 l 1,67,-1
 768 -64 l 1,68,-1
 768 -128 l 1,69,-1
 768 -192 l 1,70,-1
 768 -256 l 1,71,-1
 704 -256 l 1,0,-1
512 192 m 1,72,-1
 512 256 l 1,73,-1
 512 320 l 1,74,-1
 512 384 l 1,75,-1
 448 384 l 1,76,-1
 448 320 l 1,77,-1
 448 256 l 1,78,-1
 448 192 l 1,79,-1
 512 192 l 1,72,-1
320 192 m 1,80,-1
 320 256 l 1,81,-1
 320 320 l 1,82,-1
 320 384 l 1,83,-1
 256 384 l 1,84,-1
 256 320 l 1,85,-1
 256 256 l 1,86,-1
 256 192 l 1,87,-1
 320 192 l 1,80,-1
EndSplineSet
EndChar

StartChar: J
Encoding: 74 74 21
Width: 1024
Flags: W
LayerCount: 2
Fore
SplineSet
832 0 m 1,0,-1
 768 0 l 1,1,-1
 704 0 l 1,2,-1
 640 0 l 1,3,-1
 576 0 l 1,4,-1
 512 0 l 1,5,-1
 448 0 l 1,6,-1
 384 0 l 1,7,-1
 320 0 l 1,8,-1
 256 0 l 1,9,-1
 192 0 l 1,10,-1
 128 0 l 1,11,-1
 64 0 l 1,12,-1
 0 0 l 1,13,-1
 -64 0 l 1,14,-1
 -128 0 l 1,15,-1
 -128 64 l 1,16,-1
 -128 128 l 1,17,-1
 -128 192 l 1,18,-1
 -128 256 l 1,19,-1
 -128 320 l 1,20,-1
 -128 384 l 1,21,-1
 -128 448 l 1,22,-1
 -128 512 l 1,23,-1
 -64 512 l 1,24,-1
 0 512 l 1,25,-1
 64 512 l 1,26,-1
 128 512 l 1,27,-1
 192 512 l 1,28,-1
 256 512 l 1,29,-1
 320 512 l 1,30,-1
 384 512 l 1,31,-1
 448 512 l 1,32,-1
 512 512 l 1,33,-1
 576 512 l 1,34,-1
 640 512 l 1,35,-1
 704 512 l 1,36,-1
 768 512 l 1,37,-1
 832 512 l 1,38,-1
 896 512 l 1,39,-1
 896 448 l 1,40,-1
 896 384 l 1,41,-1
 896 320 l 1,42,-1
 896 256 l 1,43,-1
 896 192 l 1,44,-1
 896 128 l 1,45,-1
 896 64 l 1,46,-1
 896 0 l 1,47,-1
 832 0 l 1,0,-1
704 128 m 1,48,-1
 768 128 l 1,49,-1
 768 192 l 1,50,-1
 832 192 l 1,51,-1
 832 256 l 1,52,-1
 832 320 l 1,53,-1
 768 320 l 1,54,-1
 768 384 l 1,55,-1
 704 384 l 1,56,-1
 640 384 l 1,57,-1
 576 384 l 1,58,-1
 512 384 l 1,59,-1
 448 384 l 1,60,-1
 384 384 l 1,61,-1
 320 384 l 1,62,-1
 256 384 l 1,63,-1
 192 384 l 1,64,-1
 128 384 l 1,65,-1
 64 384 l 1,66,-1
 0 384 l 1,67,-1
 0 320 l 1,68,-1
 -64 320 l 1,69,-1
 -64 256 l 1,70,-1
 -64 192 l 1,71,-1
 0 192 l 1,72,-1
 0 128 l 1,73,-1
 64 128 l 1,74,-1
 128 128 l 1,75,-1
 192 128 l 1,76,-1
 256 128 l 1,77,-1
 320 128 l 1,78,-1
 384 128 l 1,79,-1
 448 128 l 1,80,-1
 512 128 l 1,81,-1
 576 128 l 1,82,-1
 640 128 l 1,83,-1
 704 128 l 1,48,-1
EndSplineSet
EndChar

StartChar: K
Encoding: 75 75 22
Width: 1024
Flags: W
LayerCount: 2
Fore
SplineSet
448 -192 m 1,0,-1
 512 -192 l 1,1,-1
 512 -256 l 1,2,-1
 448 -256 l 1,3,-1
 384 -256 l 1,4,-1
 320 -256 l 1,5,-1
 256 -256 l 1,6,-1
 256 -192 l 1,7,-1
 320 -192 l 1,8,-1
 384 -192 l 1,9,-1
 448 -192 l 1,0,-1
512 -192 m 1,10,-1
 512 -128 l 1,11,-1
 576 -128 l 1,12,-1
 576 -192 l 1,13,-1
 512 -192 l 1,10,-1
256 -192 m 1,14,-1
 192 -192 l 1,15,-1
 192 -128 l 1,16,-1
 256 -128 l 1,17,-1
 256 -192 l 1,14,-1
576 -128 m 1,18,-1
 576 -64 l 1,19,-1
 576 0 l 1,20,-1
 576 64 l 1,21,-1
 576 128 l 1,22,-1
 640 128 l 1,23,-1
 640 64 l 1,24,-1
 640 0 l 1,25,-1
 640 -64 l 1,26,-1
 640 -128 l 1,27,-1
 576 -128 l 1,18,-1
192 -128 m 1,28,-1
 128 -128 l 1,29,-1
 128 -64 l 1,30,-1
 128 0 l 1,31,-1
 128 64 l 1,32,-1
 128 128 l 1,33,-1
 192 128 l 1,34,-1
 192 64 l 1,35,-1
 192 0 l 1,36,-1
 192 -64 l 1,37,-1
 192 -128 l 1,28,-1
576 128 m 1,38,-1
 512 128 l 1,39,-1
 512 192 l 1,40,-1
 576 192 l 1,41,-1
 576 128 l 1,38,-1
192 128 m 1,42,-1
 192 192 l 1,43,-1
 256 192 l 1,44,-1
 256 128 l 1,45,-1
 192 128 l 1,42,-1
512 192 m 1,46,-1
 448 192 l 1,47,-1
 384 192 l 1,48,-1
 320 192 l 1,49,-1
 256 192 l 1,50,-1
 256 256 l 1,51,-1
 320 256 l 1,52,-1
 384 256 l 1,53,-1
 448 256 l 1,54,-1
 512 256 l 1,55,-1
 512 192 l 1,46,-1
EndSplineSet
EndChar

StartChar: L
Encoding: 76 76 23
Width: 1024
Flags: W
LayerCount: 2
Fore
SplineSet
832 -192 m 1,0,-1
 896 -192 l 1,1,-1
 896 -256 l 1,2,-1
 832 -256 l 1,3,-1
 768 -256 l 1,4,-1
 704 -256 l 1,5,-1
 640 -256 l 1,6,-1
 576 -256 l 1,7,-1
 512 -256 l 1,8,-1
 448 -256 l 1,9,-1
 384 -256 l 1,10,-1
 320 -256 l 1,11,-1
 256 -256 l 1,12,-1
 192 -256 l 1,13,-1
 128 -256 l 1,14,-1
 64 -256 l 1,15,-1
 0 -256 l 1,16,-1
 -64 -256 l 1,17,-1
 -128 -256 l 1,18,-1
 -128 -192 l 1,19,-1
 -64 -192 l 1,20,-1
 0 -192 l 1,21,-1
 64 -192 l 1,22,-1
 64 -128 l 1,23,-1
 64 -64 l 1,24,-1
 64 0 l 1,25,-1
 0 0 l 1,26,-1
 -64 0 l 1,27,-1
 -128 0 l 1,28,-1
 -128 64 l 1,29,-1
 -64 64 l 1,30,-1
 0 64 l 1,31,-1
 64 64 l 1,32,-1
 128 64 l 1,33,-1
 192 64 l 1,34,-1
 256 64 l 1,35,-1
 320 64 l 1,36,-1
 320 128 l 1,37,-1
 320 192 l 1,38,-1
 320 256 l 1,39,-1
 256 256 l 1,40,-1
 192 256 l 1,41,-1
 128 256 l 1,42,-1
 64 256 l 1,43,-1
 0 256 l 1,44,-1
 -64 256 l 1,45,-1
 -128 256 l 1,46,-1
 -128 320 l 1,47,-1
 -64 320 l 1,48,-1
 0 320 l 1,49,-1
 64 320 l 1,50,-1
 64 384 l 1,51,-1
 64 448 l 1,52,-1
 64 512 l 1,53,-1
 0 512 l 1,54,-1
 -64 512 l 1,55,-1
 -128 512 l 1,56,-1
 -128 576 l 1,57,-1
 -64 576 l 1,58,-1
 0 576 l 1,59,-1
 64 576 l 1,60,-1
 128 576 l 1,61,-1
 192 576 l 1,62,-1
 256 576 l 1,63,-1
 320 576 l 1,64,-1
 384 576 l 1,65,-1
 448 576 l 1,66,-1
 512 576 l 1,67,-1
 576 576 l 1,68,-1
 640 576 l 1,69,-1
 704 576 l 1,70,-1
 768 576 l 1,71,-1
 832 576 l 1,72,-1
 832 640 l 1,73,-1
 832 704 l 1,74,-1
 768 704 l 1,75,-1
 704 704 l 1,76,-1
 640 704 l 1,77,-1
 576 704 l 1,78,-1
 512 704 l 1,79,-1
 448 704 l 1,80,-1
 384 704 l 1,81,-1
 320 704 l 1,82,-1
 256 704 l 1,83,-1
 192 704 l 1,84,-1
 128 704 l 1,85,-1
 64 704 l 1,86,-1
 0 704 l 1,87,-1
 -64 704 l 1,88,-1
 -128 704 l 1,89,-1
 -128 768 l 1,90,-1
 -64 768 l 1,91,-1
 0 768 l 1,92,-1
 64 768 l 1,93,-1
 128 768 l 1,94,-1
 192 768 l 1,95,-1
 256 768 l 1,96,-1
 320 768 l 1,97,-1
 384 768 l 1,98,-1
 448 768 l 1,99,-1
 512 768 l 1,100,-1
 576 768 l 1,101,-1
 640 768 l 1,102,-1
 704 768 l 1,103,-1
 768 768 l 1,104,-1
 832 768 l 1,105,-1
 896 768 l 1,106,-1
 896 704 l 1,107,-1
 896 640 l 1,108,-1
 896 576 l 1,109,-1
 896 512 l 1,110,-1
 832 512 l 1,111,-1
 768 512 l 1,112,-1
 704 512 l 1,113,-1
 640 512 l 1,114,-1
 640 448 l 1,115,-1
 640 384 l 1,116,-1
 640 320 l 1,117,-1
 704 320 l 1,118,-1
 768 320 l 1,119,-1
 832 320 l 1,120,-1
 896 320 l 1,121,-1
 896 256 l 1,122,-1
 896 192 l 1,123,-1
 896 128 l 1,124,-1
 896 64 l 1,125,-1
 896 0 l 1,126,-1
 832 0 l 1,127,-1
 768 0 l 1,128,-1
 704 0 l 1,129,-1
 640 0 l 1,130,-1
 640 -64 l 1,131,-1
 640 -128 l 1,132,-1
 640 -192 l 1,133,-1
 704 -192 l 1,134,-1
 768 -192 l 1,135,-1
 832 -192 l 1,0,-1
512 -192 m 1,136,-1
 576 -192 l 1,137,-1
 576 -128 l 1,138,-1
 576 -64 l 1,139,-1
 576 0 l 1,140,-1
 512 0 l 1,141,-1
 448 0 l 1,142,-1
 384 0 l 1,143,-1
 320 0 l 1,144,-1
 256 0 l 1,145,-1
 192 0 l 1,146,-1
 128 0 l 1,147,-1
 128 -64 l 1,148,-1
 128 -128 l 1,149,-1
 128 -192 l 1,150,-1
 192 -192 l 1,151,-1
 256 -192 l 1,152,-1
 320 -192 l 1,153,-1
 384 -192 l 1,154,-1
 448 -192 l 1,155,-1
 512 -192 l 1,136,-1
768 64 m 1,156,-1
 832 64 l 1,157,-1
 832 128 l 1,158,-1
 832 192 l 1,159,-1
 832 256 l 1,160,-1
 768 256 l 1,161,-1
 704 256 l 1,162,-1
 640 256 l 1,163,-1
 576 256 l 1,164,-1
 512 256 l 1,165,-1
 448 256 l 1,166,-1
 384 256 l 1,167,-1
 384 192 l 1,168,-1
 384 128 l 1,169,-1
 384 64 l 1,170,-1
 448 64 l 1,171,-1
 512 64 l 1,172,-1
 576 64 l 1,173,-1
 640 64 l 1,174,-1
 704 64 l 1,175,-1
 768 64 l 1,156,-1
512 320 m 1,176,-1
 576 320 l 1,177,-1
 576 384 l 1,178,-1
 576 448 l 1,179,-1
 576 512 l 1,180,-1
 512 512 l 1,181,-1
 448 512 l 1,182,-1
 384 512 l 1,183,-1
 320 512 l 1,184,-1
 256 512 l 1,185,-1
 192 512 l 1,186,-1
 128 512 l 1,187,-1
 128 448 l 1,188,-1
 128 384 l 1,189,-1
 128 320 l 1,190,-1
 192 320 l 1,191,-1
 256 320 l 1,192,-1
 320 320 l 1,193,-1
 384 320 l 1,194,-1
 448 320 l 1,195,-1
 512 320 l 1,176,-1
EndSplineSet
EndChar

StartChar: N
Encoding: 78 78 24
Width: 1024
Flags: W
LayerCount: 2
Fore
SplineSet
832 -256 m 1,0,-1
 768 -256 l 1,1,-1
 704 -256 l 1,2,-1
 640 -256 l 1,3,-1
 576 -256 l 1,4,-1
 512 -256 l 1,5,-1
 448 -256 l 1,6,-1
 384 -256 l 1,7,-1
 320 -256 l 1,8,-1
 256 -256 l 1,9,-1
 192 -256 l 1,10,-1
 128 -256 l 1,11,-1
 64 -256 l 1,12,-1
 0 -256 l 1,13,-1
 -64 -256 l 1,14,-1
 -64 -192 l 1,15,-1
 -128 -192 l 1,16,-1
 -128 -128 l 1,17,-1
 -128 -64 l 1,18,-1
 -128 0 l 1,19,-1
 -128 64 l 1,20,-1
 -128 128 l 1,21,-1
 -128 192 l 1,22,-1
 -128 256 l 1,23,-1
 -128 320 l 1,24,-1
 -128 384 l 1,25,-1
 -128 448 l 1,26,-1
 -128 512 l 1,27,-1
 -128 576 l 1,28,-1
 -128 640 l 1,29,-1
 -128 704 l 1,30,-1
 -128 768 l 1,31,-1
 -64 768 l 1,32,-1
 0 768 l 1,33,-1
 64 768 l 1,34,-1
 128 768 l 1,35,-1
 192 768 l 1,36,-1
 256 768 l 1,37,-1
 320 768 l 1,38,-1
 384 768 l 1,39,-1
 448 768 l 1,40,-1
 512 768 l 1,41,-1
 576 768 l 1,42,-1
 640 768 l 1,43,-1
 704 768 l 1,44,-1
 768 768 l 1,45,-1
 832 768 l 1,46,-1
 896 768 l 1,47,-1
 896 704 l 1,48,-1
 832 704 l 1,49,-1
 768 704 l 1,50,-1
 704 704 l 1,51,-1
 640 704 l 1,52,-1
 576 704 l 1,53,-1
 512 704 l 1,54,-1
 448 704 l 1,55,-1
 384 704 l 1,56,-1
 320 704 l 1,57,-1
 256 704 l 1,58,-1
 192 704 l 1,59,-1
 128 704 l 1,60,-1
 64 704 l 1,61,-1
 0 704 l 1,62,-1
 -64 704 l 1,63,-1
 -64 640 l 1,64,-1
 0 640 l 1,65,-1
 64 640 l 1,66,-1
 128 640 l 1,67,-1
 192 640 l 1,68,-1
 256 640 l 1,69,-1
 256 576 l 1,70,-1
 256 512 l 1,71,-1
 256 448 l 1,72,-1
 256 384 l 1,73,-1
 256 320 l 1,74,-1
 256 256 l 1,75,-1
 256 192 l 1,76,-1
 256 128 l 1,77,-1
 256 64 l 1,78,-1
 256 0 l 1,79,-1
 256 -64 l 1,80,-1
 256 -128 l 1,81,-1
 320 -128 l 1,82,-1
 384 -128 l 1,83,-1
 448 -128 l 1,84,-1
 512 -128 l 1,85,-1
 576 -128 l 1,86,-1
 640 -128 l 1,87,-1
 640 -64 l 1,88,-1
 640 0 l 1,89,-1
 640 64 l 1,90,-1
 640 128 l 1,91,-1
 640 192 l 1,92,-1
 640 256 l 1,93,-1
 640 320 l 1,94,-1
 640 384 l 1,95,-1
 640 448 l 1,96,-1
 640 512 l 1,97,-1
 640 576 l 1,98,-1
 640 640 l 1,99,-1
 704 640 l 1,100,-1
 768 640 l 1,101,-1
 832 640 l 1,102,-1
 896 640 l 1,103,-1
 896 576 l 1,104,-1
 896 512 l 1,105,-1
 896 448 l 1,106,-1
 896 384 l 1,107,-1
 896 320 l 1,108,-1
 896 256 l 1,109,-1
 896 192 l 1,110,-1
 896 128 l 1,111,-1
 896 64 l 1,112,-1
 896 0 l 1,113,-1
 896 -64 l 1,114,-1
 896 -128 l 1,115,-1
 896 -192 l 1,116,-1
 896 -256 l 1,117,-1
 832 -256 l 1,0,-1
768 -128 m 1,118,-1
 832 -128 l 1,119,-1
 832 -64 l 1,120,-1
 832 0 l 1,121,-1
 832 64 l 1,122,-1
 832 128 l 1,123,-1
 832 192 l 1,124,-1
 832 256 l 1,125,-1
 832 320 l 1,126,-1
 832 384 l 1,127,-1
 832 448 l 1,128,-1
 832 512 l 1,129,-1
 832 576 l 1,130,-1
 768 576 l 1,131,-1
 704 576 l 1,132,-1
 704 512 l 1,133,-1
 704 448 l 1,134,-1
 704 384 l 1,135,-1
 704 320 l 1,136,-1
 704 256 l 1,137,-1
 704 192 l 1,138,-1
 704 128 l 1,139,-1
 704 64 l 1,140,-1
 704 0 l 1,141,-1
 704 -64 l 1,142,-1
 704 -128 l 1,143,-1
 768 -128 l 1,118,-1
64 -128 m 1,144,-1
 128 -128 l 1,145,-1
 128 -64 l 1,146,-1
 128 0 l 1,147,-1
 128 64 l 1,148,-1
 128 128 l 1,149,-1
 128 192 l 1,150,-1
 128 256 l 1,151,-1
 128 320 l 1,152,-1
 128 384 l 1,153,-1
 128 448 l 1,154,-1
 128 512 l 1,155,-1
 128 576 l 1,156,-1
 64 576 l 1,157,-1
 0 576 l 1,158,-1
 -64 576 l 1,159,-1
 -64 512 l 1,160,-1
 -64 448 l 1,161,-1
 -64 384 l 1,162,-1
 -64 320 l 1,163,-1
 -64 256 l 1,164,-1
 -64 192 l 1,165,-1
 -64 128 l 1,166,-1
 -64 64 l 1,167,-1
 -64 0 l 1,168,-1
 -64 -64 l 1,169,-1
 -64 -128 l 1,170,-1
 0 -128 l 1,171,-1
 64 -128 l 1,144,-1
EndSplineSet
EndChar

StartChar: O
Encoding: 79 79 25
Width: 1024
Flags: W
LayerCount: 2
Fore
SplineSet
704 -256 m 1,0,-1
 640 -256 l 1,1,-1
 576 -256 l 1,2,-1
 512 -256 l 1,3,-1
 448 -256 l 1,4,-1
 384 -256 l 1,5,-1
 320 -256 l 1,6,-1
 256 -256 l 1,7,-1
 192 -256 l 1,8,-1
 128 -256 l 1,9,-1
 64 -256 l 1,10,-1
 0 -256 l 1,11,-1
 -64 -256 l 1,12,-1
 -128 -256 l 1,13,-1
 -128 -192 l 1,14,-1
 -128 -128 l 1,15,-1
 -128 -64 l 1,16,-1
 -128 0 l 1,17,-1
 -128 64 l 1,18,-1
 -128 128 l 1,19,-1
 -128 192 l 1,20,-1
 -128 256 l 1,21,-1
 -128 320 l 1,22,-1
 -128 384 l 1,23,-1
 -128 448 l 1,24,-1
 -128 512 l 1,25,-1
 -128 576 l 1,26,-1
 -128 640 l 1,27,-1
 -64 640 l 1,28,-1
 0 640 l 1,29,-1
 64 640 l 1,30,-1
 128 640 l 1,31,-1
 192 640 l 1,32,-1
 256 640 l 1,33,-1
 320 640 l 1,34,-1
 384 640 l 1,35,-1
 448 640 l 1,36,-1
 512 640 l 1,37,-1
 576 640 l 1,38,-1
 640 640 l 1,39,-1
 704 640 l 1,40,-1
 768 640 l 1,41,-1
 832 640 l 1,42,-1
 832 704 l 1,43,-1
 768 704 l 1,44,-1
 704 704 l 1,45,-1
 640 704 l 1,46,-1
 576 704 l 1,47,-1
 512 704 l 1,48,-1
 448 704 l 1,49,-1
 384 704 l 1,50,-1
 320 704 l 1,51,-1
 256 704 l 1,52,-1
 192 704 l 1,53,-1
 128 704 l 1,54,-1
 64 704 l 1,55,-1
 0 704 l 1,56,-1
 -64 704 l 1,57,-1
 -128 704 l 1,58,-1
 -128 768 l 1,59,-1
 -64 768 l 1,60,-1
 0 768 l 1,61,-1
 64 768 l 1,62,-1
 128 768 l 1,63,-1
 192 768 l 1,64,-1
 256 768 l 1,65,-1
 320 768 l 1,66,-1
 384 768 l 1,67,-1
 448 768 l 1,68,-1
 512 768 l 1,69,-1
 576 768 l 1,70,-1
 640 768 l 1,71,-1
 704 768 l 1,72,-1
 768 768 l 1,73,-1
 832 768 l 1,74,-1
 896 768 l 1,75,-1
 896 704 l 1,76,-1
 896 640 l 1,77,-1
 896 576 l 1,78,-1
 896 512 l 1,79,-1
 896 448 l 1,80,-1
 896 384 l 1,81,-1
 896 320 l 1,82,-1
 896 256 l 1,83,-1
 896 192 l 1,84,-1
 896 128 l 1,85,-1
 896 64 l 1,86,-1
 896 0 l 1,87,-1
 896 -64 l 1,88,-1
 896 -128 l 1,89,-1
 896 -192 l 1,90,-1
 832 -192 l 1,91,-1
 768 -192 l 1,92,-1
 768 -256 l 1,93,-1
 704 -256 l 1,0,-1
768 -128 m 1,94,-1
 832 -128 l 1,95,-1
 832 -64 l 1,96,-1
 832 0 l 1,97,-1
 832 64 l 1,98,-1
 832 128 l 1,99,-1
 832 192 l 1,100,-1
 832 256 l 1,101,-1
 832 320 l 1,102,-1
 832 384 l 1,103,-1
 832 448 l 1,104,-1
 832 512 l 1,105,-1
 832 576 l 1,106,-1
 768 576 l 1,107,-1
 704 576 l 1,108,-1
 704 512 l 1,109,-1
 640 512 l 1,110,-1
 640 576 l 1,111,-1
 576 576 l 1,112,-1
 576 512 l 1,113,-1
 640 512 l 1,114,-1
 640 448 l 1,115,-1
 704 448 l 1,116,-1
 704 384 l 1,117,-1
 640 384 l 1,118,-1
 640 448 l 1,119,-1
 576 448 l 1,120,-1
 576 512 l 1,121,-1
 512 512 l 1,122,-1
 512 576 l 1,123,-1
 448 576 l 1,124,-1
 448 512 l 1,125,-1
 512 512 l 1,126,-1
 512 448 l 1,127,-1
 576 448 l 1,128,-1
 576 384 l 1,129,-1
 640 384 l 1,130,-1
 640 320 l 1,131,-1
 704 320 l 1,132,-1
 704 256 l 1,133,-1
 640 256 l 1,134,-1
 640 320 l 1,135,-1
 576 320 l 1,136,-1
 576 384 l 1,137,-1
 512 384 l 1,138,-1
 512 448 l 1,139,-1
 448 448 l 1,140,-1
 448 384 l 1,141,-1
 512 384 l 1,142,-1
 512 320 l 1,143,-1
 576 320 l 1,144,-1
 576 256 l 1,145,-1
 640 256 l 1,146,-1
 640 192 l 1,147,-1
 704 192 l 1,148,-1
 704 128 l 1,149,-1
 640 128 l 1,150,-1
 640 192 l 1,151,-1
 576 192 l 1,152,-1
 576 256 l 1,153,-1
 512 256 l 1,154,-1
 512 320 l 1,155,-1
 448 320 l 1,156,-1
 448 256 l 1,157,-1
 512 256 l 1,158,-1
 512 192 l 1,159,-1
 576 192 l 1,160,-1
 576 128 l 1,161,-1
 640 128 l 1,162,-1
 640 64 l 1,163,-1
 704 64 l 1,164,-1
 704 0 l 1,165,-1
 640 0 l 1,166,-1
 640 64 l 1,167,-1
 576 64 l 1,168,-1
 576 128 l 1,169,-1
 512 128 l 1,170,-1
 512 192 l 1,171,-1
 448 192 l 1,172,-1
 448 128 l 1,173,-1
 512 128 l 1,174,-1
 512 64 l 1,175,-1
 576 64 l 1,176,-1
 576 0 l 1,177,-1
 640 0 l 1,178,-1
 640 -64 l 1,179,-1
 576 -64 l 1,180,-1
 576 0 l 1,181,-1
 512 0 l 1,182,-1
 512 64 l 1,183,-1
 448 64 l 1,184,-1
 448 0 l 1,185,-1
 512 0 l 1,186,-1
 512 -64 l 1,187,-1
 448 -64 l 1,188,-1
 448 -128 l 1,189,-1
 512 -128 l 1,190,-1
 512 -64 l 1,191,-1
 576 -64 l 1,192,-1
 576 -128 l 1,193,-1
 640 -128 l 1,194,-1
 640 -64 l 1,195,-1
 704 -64 l 1,196,-1
 704 -128 l 1,197,-1
 768 -128 l 1,94,-1
EndSplineSet
EndChar

StartChar: P
Encoding: 80 80 26
Width: 1024
Flags: W
LayerCount: 2
Fore
SplineSet
-64 -256 m 1,0,-1
 -64 -192 l 1,1,-1
 -64 -128 l 1,2,-1
 -64 -64 l 1,3,-1
 -64 0 l 1,4,-1
 0 0 l 1,5,-1
 0 64 l 1,6,-1
 0 128 l 1,7,-1
 64 128 l 1,8,-1
 64 64 l 1,9,-1
 64 0 l 1,10,-1
 64 -64 l 1,11,-1
 64 -128 l 1,12,-1
 64 -192 l 1,13,-1
 0 -192 l 1,14,-1
 0 -256 l 1,15,-1
 -64 -256 l 1,0,-1
256 -256 m 1,16,-1
 192 -256 l 1,17,-1
 192 -192 l 1,18,-1
 192 -128 l 1,19,-1
 192 -64 l 1,20,-1
 192 0 l 1,21,-1
 192 64 l 1,22,-1
 256 64 l 1,23,-1
 256 0 l 1,24,-1
 320 0 l 1,25,-1
 320 -64 l 1,26,-1
 320 -128 l 1,27,-1
 320 -192 l 1,28,-1
 320 -256 l 1,29,-1
 256 -256 l 1,16,-1
192 64 m 1,30,-1
 128 64 l 1,31,-1
 128 128 l 1,32,-1
 192 128 l 1,33,-1
 192 64 l 1,30,-1
128 128 m 1,34,-1
 64 128 l 1,35,-1
 64 192 l 1,36,-1
 128 192 l 1,37,-1
 128 128 l 1,34,-1
EndSplineSet
EndChar

StartChar: Q
Encoding: 81 81 27
Width: 1024
Flags: W
LayerCount: 2
Fore
SplineSet
832 -256 m 1,0,-1
 832 -192 l 1,1,-1
 832 -128 l 1,2,-1
 896 -128 l 1,3,-1
 896 -192 l 1,4,-1
 896 -256 l 1,5,-1
 832 -256 l 1,0,-1
-128 -256 m 1,6,-1
 -128 -192 l 1,7,-1
 -128 -128 l 1,8,-1
 -64 -128 l 1,9,-1
 -64 -192 l 1,10,-1
 -64 -256 l 1,11,-1
 -128 -256 l 1,6,-1
576 -256 m 1,12,-1
 512 -256 l 1,13,-1
 448 -256 l 1,14,-1
 448 -192 l 1,15,-1
 512 -192 l 1,16,-1
 576 -192 l 1,17,-1
 576 -128 l 1,18,-1
 512 -128 l 1,19,-1
 512 -64 l 1,20,-1
 576 -64 l 1,21,-1
 640 -64 l 1,22,-1
 640 0 l 1,23,-1
 576 0 l 1,24,-1
 576 64 l 1,25,-1
 640 64 l 1,26,-1
 704 64 l 1,27,-1
 704 128 l 1,28,-1
 768 128 l 1,29,-1
 768 64 l 1,30,-1
 832 64 l 1,31,-1
 832 0 l 1,32,-1
 832 -64 l 1,33,-1
 832 -128 l 1,34,-1
 768 -128 l 1,35,-1
 768 -64 l 1,36,-1
 704 -64 l 1,37,-1
 704 -128 l 1,38,-1
 704 -192 l 1,39,-1
 640 -192 l 1,40,-1
 640 -256 l 1,41,-1
 576 -256 l 1,12,-1
256 -192 m 1,42,-1
 320 -192 l 1,43,-1
 320 -256 l 1,44,-1
 256 -256 l 1,45,-1
 192 -256 l 1,46,-1
 128 -256 l 1,47,-1
 128 -192 l 1,48,-1
 64 -192 l 1,49,-1
 64 -128 l 1,50,-1
 64 -64 l 1,51,-1
 0 -64 l 1,52,-1
 0 -128 l 1,53,-1
 -64 -128 l 1,54,-1
 -64 -64 l 1,55,-1
 -64 0 l 1,56,-1
 -64 64 l 1,57,-1
 0 64 l 1,58,-1
 0 128 l 1,59,-1
 64 128 l 1,60,-1
 64 64 l 1,61,-1
 128 64 l 1,62,-1
 192 64 l 1,63,-1
 192 0 l 1,64,-1
 128 0 l 1,65,-1
 128 -64 l 1,66,-1
 192 -64 l 1,67,-1
 256 -64 l 1,68,-1
 256 -128 l 1,69,-1
 192 -128 l 1,70,-1
 192 -192 l 1,71,-1
 256 -192 l 1,42,-1
EndSplineSet
EndChar

StartChar: R
Encoding: 82 82 28
Width: 1024
Flags: W
LayerCount: 2
Fore
SplineSet
-128 -256 m 1,0,-1
 -128 -192 l 1,1,-1
 -128 -128 l 1,2,-1
 -128 -64 l 1,3,-1
 -128 0 l 1,4,-1
 -128 64 l 1,5,-1
 -128 128 l 1,6,-1
 -128 192 l 1,7,-1
 -128 256 l 1,8,-1
 -128 320 l 1,9,-1
 -128 384 l 1,10,-1
 -128 448 l 1,11,-1
 -128 512 l 1,12,-1
 -128 576 l 1,13,-1
 -128 640 l 1,14,-1
 -128 704 l 1,15,-1
 -128 768 l 1,16,-1
 -64 768 l 1,17,-1
 0 768 l 1,18,-1
 64 768 l 1,19,-1
 128 768 l 1,20,-1
 192 768 l 1,21,-1
 256 768 l 1,22,-1
 320 768 l 1,23,-1
 384 768 l 1,24,-1
 448 768 l 1,25,-1
 512 768 l 1,26,-1
 576 768 l 1,27,-1
 640 768 l 1,28,-1
 704 768 l 1,29,-1
 768 768 l 1,30,-1
 832 768 l 1,31,-1
 832 704 l 1,32,-1
 896 704 l 1,33,-1
 896 640 l 1,34,-1
 896 576 l 1,35,-1
 896 512 l 1,36,-1
 896 448 l 1,37,-1
 896 384 l 1,38,-1
 896 320 l 1,39,-1
 896 256 l 1,40,-1
 896 192 l 1,41,-1
 896 128 l 1,42,-1
 896 64 l 1,43,-1
 896 0 l 1,44,-1
 896 -64 l 1,45,-1
 896 -128 l 1,46,-1
 896 -192 l 1,47,-1
 896 -256 l 1,48,-1
 832 -256 l 1,49,-1
 768 -256 l 1,50,-1
 768 -192 l 1,51,-1
 768 -128 l 1,52,-1
 768 -64 l 1,53,-1
 704 -64 l 1,54,-1
 640 -64 l 1,55,-1
 576 -64 l 1,56,-1
 512 -64 l 1,57,-1
 448 -64 l 1,58,-1
 384 -64 l 1,59,-1
 320 -64 l 1,60,-1
 256 -64 l 1,61,-1
 192 -64 l 1,62,-1
 128 -64 l 1,63,-1
 64 -64 l 1,64,-1
 0 -64 l 1,65,-1
 -64 -64 l 1,66,-1
 -64 -128 l 1,67,-1
 -64 -192 l 1,68,-1
 -64 -256 l 1,69,-1
 -128 -256 l 1,0,-1
704 0 m 1,70,-1
 768 0 l 1,71,-1
 768 64 l 1,72,-1
 768 128 l 1,73,-1
 768 192 l 1,74,-1
 768 256 l 1,75,-1
 768 320 l 1,76,-1
 704 320 l 1,77,-1
 640 320 l 1,78,-1
 576 320 l 1,79,-1
 512 320 l 1,80,-1
 448 320 l 1,81,-1
 384 320 l 1,82,-1
 320 320 l 1,83,-1
 256 320 l 1,84,-1
 192 320 l 1,85,-1
 128 320 l 1,86,-1
 64 320 l 1,87,-1
 0 320 l 1,88,-1
 -64 320 l 1,89,-1
 -64 256 l 1,90,-1
 -64 192 l 1,91,-1
 -64 128 l 1,92,-1
 -64 64 l 1,93,-1
 -64 0 l 1,94,-1
 0 0 l 1,95,-1
 64 0 l 1,96,-1
 128 0 l 1,97,-1
 192 0 l 1,98,-1
 256 0 l 1,99,-1
 320 0 l 1,100,-1
 384 0 l 1,101,-1
 448 0 l 1,102,-1
 512 0 l 1,103,-1
 576 0 l 1,104,-1
 640 0 l 1,105,-1
 704 0 l 1,70,-1
704 448 m 1,106,-1
 768 448 l 1,107,-1
 768 512 l 1,108,-1
 768 576 l 1,109,-1
 768 640 l 1,110,-1
 768 704 l 1,111,-1
 704 704 l 1,112,-1
 640 704 l 1,113,-1
 576 704 l 1,114,-1
 512 704 l 1,115,-1
 448 704 l 1,116,-1
 384 704 l 1,117,-1
 320 704 l 1,118,-1
 256 704 l 1,119,-1
 192 704 l 1,120,-1
 128 704 l 1,121,-1
 64 704 l 1,122,-1
 0 704 l 1,123,-1
 -64 704 l 1,124,-1
 -64 640 l 1,125,-1
 -64 576 l 1,126,-1
 -64 512 l 1,127,-1
 -64 448 l 1,128,-1
 0 448 l 1,129,-1
 64 448 l 1,130,-1
 128 448 l 1,131,-1
 192 448 l 1,132,-1
 256 448 l 1,133,-1
 320 448 l 1,134,-1
 384 448 l 1,135,-1
 448 448 l 1,136,-1
 512 448 l 1,137,-1
 576 448 l 1,138,-1
 640 448 l 1,139,-1
 704 448 l 1,106,-1
EndSplineSet
EndChar

StartChar: S
Encoding: 83 83 29
Width: 1024
Flags: W
LayerCount: 2
Fore
SplineSet
832 -64 m 1,0,-1
 896 -64 l 1,1,-1
 896 -128 l 1,2,-1
 832 -128 l 1,3,-1
 768 -128 l 1,4,-1
 704 -128 l 1,5,-1
 640 -128 l 1,6,-1
 576 -128 l 1,7,-1
 512 -128 l 1,8,-1
 448 -128 l 1,9,-1
 384 -128 l 1,10,-1
 320 -128 l 1,11,-1
 256 -128 l 1,12,-1
 192 -128 l 1,13,-1
 128 -128 l 1,14,-1
 64 -128 l 1,15,-1
 0 -128 l 1,16,-1
 -64 -128 l 1,17,-1
 -128 -128 l 1,18,-1
 -128 -64 l 1,19,-1
 -64 -64 l 1,20,-1
 0 -64 l 1,21,-1
 64 -64 l 1,22,-1
 128 -64 l 1,23,-1
 192 -64 l 1,24,-1
 256 -64 l 1,25,-1
 320 -64 l 1,26,-1
 384 -64 l 1,27,-1
 448 -64 l 1,28,-1
 512 -64 l 1,29,-1
 576 -64 l 1,30,-1
 640 -64 l 1,31,-1
 704 -64 l 1,32,-1
 768 -64 l 1,33,-1
 832 -64 l 1,0,-1
832 256 m 1,34,-1
 768 256 l 1,35,-1
 704 256 l 1,36,-1
 640 256 l 1,37,-1
 576 256 l 1,38,-1
 512 256 l 1,39,-1
 448 256 l 1,40,-1
 384 256 l 1,41,-1
 320 256 l 1,42,-1
 256 256 l 1,43,-1
 192 256 l 1,44,-1
 128 256 l 1,45,-1
 64 256 l 1,46,-1
 0 256 l 1,47,-1
 -64 256 l 1,48,-1
 -128 256 l 1,49,-1
 -128 320 l 1,50,-1
 -128 384 l 1,51,-1
 -64 384 l 1,52,-1
 0 384 l 1,53,-1
 64 384 l 1,54,-1
 128 384 l 1,55,-1
 192 384 l 1,56,-1
 256 384 l 1,57,-1
 320 384 l 1,58,-1
 384 384 l 1,59,-1
 448 384 l 1,60,-1
 512 384 l 1,61,-1
 576 384 l 1,62,-1
 640 384 l 1,63,-1
 704 384 l 1,64,-1
 768 384 l 1,65,-1
 832 384 l 1,66,-1
 896 384 l 1,67,-1
 896 320 l 1,68,-1
 896 256 l 1,69,-1
 832 256 l 1,34,-1
832 704 m 1,70,-1
 896 704 l 1,71,-1
 896 640 l 1,72,-1
 832 640 l 1,73,-1
 768 640 l 1,74,-1
 704 640 l 1,75,-1
 640 640 l 1,76,-1
 576 640 l 1,77,-1
 512 640 l 1,78,-1
 448 640 l 1,79,-1
 384 640 l 1,80,-1
 320 640 l 1,81,-1
 256 640 l 1,82,-1
 192 640 l 1,83,-1
 128 640 l 1,84,-1
 64 640 l 1,85,-1
 0 640 l 1,86,-1
 -64 640 l 1,87,-1
 -128 640 l 1,88,-1
 -128 704 l 1,89,-1
 -64 704 l 1,90,-1
 0 704 l 1,91,-1
 64 704 l 1,92,-1
 128 704 l 1,93,-1
 192 704 l 1,94,-1
 256 704 l 1,95,-1
 320 704 l 1,96,-1
 384 704 l 1,97,-1
 448 704 l 1,98,-1
 512 704 l 1,99,-1
 576 704 l 1,100,-1
 640 704 l 1,101,-1
 704 704 l 1,102,-1
 768 704 l 1,103,-1
 832 704 l 1,70,-1
EndSplineSet
EndChar

StartChar: T
Encoding: 84 84 30
Width: 1024
Flags: W
LayerCount: 2
Fore
SplineSet
704 -256 m 1,0,-1
 704 -192 l 1,1,-1
 704 -128 l 1,2,-1
 704 -64 l 1,3,-1
 704 0 l 1,4,-1
 704 64 l 1,5,-1
 704 128 l 1,6,-1
 704 192 l 1,7,-1
 704 256 l 1,8,-1
 704 320 l 1,9,-1
 704 384 l 1,10,-1
 704 448 l 1,11,-1
 704 512 l 1,12,-1
 704 576 l 1,13,-1
 704 640 l 1,14,-1
 704 704 l 1,15,-1
 704 768 l 1,16,-1
 768 768 l 1,17,-1
 768 704 l 1,18,-1
 768 640 l 1,19,-1
 768 576 l 1,20,-1
 768 512 l 1,21,-1
 768 448 l 1,22,-1
 768 384 l 1,23,-1
 768 320 l 1,24,-1
 768 256 l 1,25,-1
 768 192 l 1,26,-1
 768 128 l 1,27,-1
 768 64 l 1,28,-1
 768 0 l 1,29,-1
 768 -64 l 1,30,-1
 768 -128 l 1,31,-1
 768 -192 l 1,32,-1
 768 -256 l 1,33,-1
 704 -256 l 1,0,-1
320 -256 m 1,34,-1
 256 -256 l 1,35,-1
 256 -192 l 1,36,-1
 256 -128 l 1,37,-1
 192 -128 l 1,38,-1
 128 -128 l 1,39,-1
 64 -128 l 1,40,-1
 0 -128 l 1,41,-1
 -64 -128 l 1,42,-1
 -128 -128 l 1,43,-1
 -128 -64 l 1,44,-1
 -64 -64 l 1,45,-1
 0 -64 l 1,46,-1
 64 -64 l 1,47,-1
 128 -64 l 1,48,-1
 192 -64 l 1,49,-1
 256 -64 l 1,50,-1
 256 0 l 1,51,-1
 256 64 l 1,52,-1
 256 128 l 1,53,-1
 256 192 l 1,54,-1
 192 192 l 1,55,-1
 192 256 l 1,56,-1
 128 256 l 1,57,-1
 64 256 l 1,58,-1
 0 256 l 1,59,-1
 -64 256 l 1,60,-1
 -128 256 l 1,61,-1
 -128 320 l 1,62,-1
 -128 384 l 1,63,-1
 -64 384 l 1,64,-1
 0 384 l 1,65,-1
 64 384 l 1,66,-1
 128 384 l 1,67,-1
 192 384 l 1,68,-1
 192 448 l 1,69,-1
 256 448 l 1,70,-1
 256 512 l 1,71,-1
 256 576 l 1,72,-1
 256 640 l 1,73,-1
 256 704 l 1,74,-1
 256 768 l 1,75,-1
 320 768 l 1,76,-1
 384 768 l 1,77,-1
 384 704 l 1,78,-1
 384 640 l 1,79,-1
 384 576 l 1,80,-1
 384 512 l 1,81,-1
 384 448 l 1,82,-1
 384 384 l 1,83,-1
 384 320 l 1,84,-1
 384 256 l 1,85,-1
 384 192 l 1,86,-1
 384 128 l 1,87,-1
 384 64 l 1,88,-1
 384 0 l 1,89,-1
 384 -64 l 1,90,-1
 384 -128 l 1,91,-1
 384 -192 l 1,92,-1
 384 -256 l 1,93,-1
 320 -256 l 1,34,-1
192 448 m 1,94,-1
 128 448 l 1,95,-1
 128 512 l 1,96,-1
 128 576 l 1,97,-1
 128 640 l 1,98,-1
 192 640 l 1,99,-1
 192 576 l 1,100,-1
 192 512 l 1,101,-1
 192 448 l 1,94,-1
128 640 m 1,102,-1
 64 640 l 1,103,-1
 0 640 l 1,104,-1
 -64 640 l 1,105,-1
 -128 640 l 1,106,-1
 -128 704 l 1,107,-1
 -64 704 l 1,108,-1
 0 704 l 1,109,-1
 0 768 l 1,110,-1
 64 768 l 1,111,-1
 64 704 l 1,112,-1
 128 704 l 1,113,-1
 128 640 l 1,102,-1
EndSplineSet
EndChar

StartChar: a
Encoding: 97 97 31
Width: 1024
Flags: W
LayerCount: 2
Fore
SplineSet
704 -256 m 1,0,-1
 704 -192 l 1,1,-1
 704 -128 l 1,2,-1
 704 -64 l 1,3,-1
 704 0 l 1,4,-1
 704 64 l 1,5,-1
 704 128 l 1,6,-1
 704 192 l 1,7,-1
 704 256 l 1,8,-1
 704 320 l 1,9,-1
 704 384 l 1,10,-1
 704 448 l 1,11,-1
 704 512 l 1,12,-1
 704 576 l 1,13,-1
 704 640 l 1,14,-1
 704 704 l 1,15,-1
 704 768 l 1,16,-1
 768 768 l 1,17,-1
 768 704 l 1,18,-1
 768 640 l 1,19,-1
 768 576 l 1,20,-1
 768 512 l 1,21,-1
 768 448 l 1,22,-1
 768 384 l 1,23,-1
 768 320 l 1,24,-1
 768 256 l 1,25,-1
 768 192 l 1,26,-1
 768 128 l 1,27,-1
 768 64 l 1,28,-1
 768 0 l 1,29,-1
 768 -64 l 1,30,-1
 768 -128 l 1,31,-1
 768 -192 l 1,32,-1
 768 -256 l 1,33,-1
 704 -256 l 1,0,-1
0 -256 m 1,34,-1
 0 -192 l 1,35,-1
 0 -128 l 1,36,-1
 0 -64 l 1,37,-1
 0 0 l 1,38,-1
 0 64 l 1,39,-1
 0 128 l 1,40,-1
 0 192 l 1,41,-1
 0 256 l 1,42,-1
 0 320 l 1,43,-1
 0 384 l 1,44,-1
 0 448 l 1,45,-1
 0 512 l 1,46,-1
 0 576 l 1,47,-1
 0 640 l 1,48,-1
 0 704 l 1,49,-1
 0 768 l 1,50,-1
 64 768 l 1,51,-1
 64 704 l 1,52,-1
 64 640 l 1,53,-1
 64 576 l 1,54,-1
 64 512 l 1,55,-1
 64 448 l 1,56,-1
 64 384 l 1,57,-1
 64 320 l 1,58,-1
 64 256 l 1,59,-1
 64 192 l 1,60,-1
 64 128 l 1,61,-1
 64 64 l 1,62,-1
 64 0 l 1,63,-1
 64 -64 l 1,64,-1
 64 -128 l 1,65,-1
 64 -192 l 1,66,-1
 64 -256 l 1,67,-1
 0 -256 l 1,34,-1
320 -256 m 1,68,-1
 256 -256 l 1,69,-1
 256 -192 l 1,70,-1
 256 -128 l 1,71,-1
 256 -64 l 1,72,-1
 256 0 l 1,73,-1
 256 64 l 1,74,-1
 256 128 l 1,75,-1
 256 192 l 1,76,-1
 256 256 l 1,77,-1
 256 320 l 1,78,-1
 256 384 l 1,79,-1
 256 448 l 1,80,-1
 256 512 l 1,81,-1
 256 576 l 1,82,-1
 256 640 l 1,83,-1
 256 704 l 1,84,-1
 256 768 l 1,85,-1
 320 768 l 1,86,-1
 384 768 l 1,87,-1
 384 704 l 1,88,-1
 384 640 l 1,89,-1
 384 576 l 1,90,-1
 384 512 l 1,91,-1
 384 448 l 1,92,-1
 384 384 l 1,93,-1
 384 320 l 1,94,-1
 384 256 l 1,95,-1
 384 192 l 1,96,-1
 384 128 l 1,97,-1
 384 64 l 1,98,-1
 384 0 l 1,99,-1
 384 -64 l 1,100,-1
 384 -128 l 1,101,-1
 384 -192 l 1,102,-1
 384 -256 l 1,103,-1
 320 -256 l 1,68,-1
EndSplineSet
EndChar

StartChar: b
Encoding: 98 98 32
Width: 1024
Flags: W
LayerCount: 2
Fore
SplineSet
704 -256 m 1,0,-1
 704 -192 l 1,1,-1
 704 -128 l 1,2,-1
 704 -64 l 1,3,-1
 704 0 l 1,4,-1
 704 64 l 1,5,-1
 704 128 l 1,6,-1
 704 192 l 1,7,-1
 704 256 l 1,8,-1
 704 320 l 1,9,-1
 704 384 l 1,10,-1
 704 448 l 1,11,-1
 704 512 l 1,12,-1
 704 576 l 1,13,-1
 704 640 l 1,14,-1
 704 704 l 1,15,-1
 704 768 l 1,16,-1
 768 768 l 1,17,-1
 768 704 l 1,18,-1
 768 640 l 1,19,-1
 768 576 l 1,20,-1
 768 512 l 1,21,-1
 768 448 l 1,22,-1
 768 384 l 1,23,-1
 768 320 l 1,24,-1
 768 256 l 1,25,-1
 768 192 l 1,26,-1
 768 128 l 1,27,-1
 768 64 l 1,28,-1
 768 0 l 1,29,-1
 768 -64 l 1,30,-1
 768 -128 l 1,31,-1
 768 -192 l 1,32,-1
 768 -256 l 1,33,-1
 704 -256 l 1,0,-1
512 -256 m 1,34,-1
 512 -192 l 1,35,-1
 576 -192 l 1,36,-1
 576 -256 l 1,37,-1
 512 -256 l 1,34,-1
384 -256 m 1,38,-1
 320 -256 l 1,39,-1
 256 -256 l 1,40,-1
 192 -256 l 1,41,-1
 128 -256 l 1,42,-1
 64 -256 l 1,43,-1
 0 -256 l 1,44,-1
 -64 -256 l 1,45,-1
 -128 -256 l 1,46,-1
 -128 -192 l 1,47,-1
 -128 -128 l 1,48,-1
 -128 -64 l 1,49,-1
 -128 0 l 1,50,-1
 -128 64 l 1,51,-1
 -128 128 l 1,52,-1
 -128 192 l 1,53,-1
 -128 256 l 1,54,-1
 -128 320 l 1,55,-1
 -128 384 l 1,56,-1
 -128 448 l 1,57,-1
 -128 512 l 1,58,-1
 -128 576 l 1,59,-1
 -128 640 l 1,60,-1
 -128 704 l 1,61,-1
 -128 768 l 1,62,-1
 -64 768 l 1,63,-1
 0 768 l 1,64,-1
 64 768 l 1,65,-1
 128 768 l 1,66,-1
 192 768 l 1,67,-1
 256 768 l 1,68,-1
 320 768 l 1,69,-1
 384 768 l 1,70,-1
 384 704 l 1,71,-1
 448 704 l 1,72,-1
 448 640 l 1,73,-1
 512 640 l 1,74,-1
 512 576 l 1,75,-1
 576 576 l 1,76,-1
 576 512 l 1,77,-1
 512 512 l 1,78,-1
 512 576 l 1,79,-1
 448 576 l 1,80,-1
 448 640 l 1,81,-1
 384 640 l 1,82,-1
 384 576 l 1,83,-1
 448 576 l 1,84,-1
 448 512 l 1,85,-1
 512 512 l 1,86,-1
 512 448 l 1,87,-1
 576 448 l 1,88,-1
 576 384 l 1,89,-1
 512 384 l 1,90,-1
 512 448 l 1,91,-1
 448 448 l 1,92,-1
 448 512 l 1,93,-1
 384 512 l 1,94,-1
 384 448 l 1,95,-1
 448 448 l 1,96,-1
 448 384 l 1,97,-1
 512 384 l 1,98,-1
 512 320 l 1,99,-1
 576 320 l 1,100,-1
 576 256 l 1,101,-1
 512 256 l 1,102,-1
 512 320 l 1,103,-1
 448 320 l 1,104,-1
 448 384 l 1,105,-1
 384 384 l 1,106,-1
 384 320 l 1,107,-1
 448 320 l 1,108,-1
 448 256 l 1,109,-1
 512 256 l 1,110,-1
 512 192 l 1,111,-1
 576 192 l 1,112,-1
 576 128 l 1,113,-1
 512 128 l 1,114,-1
 512 192 l 1,115,-1
 448 192 l 1,116,-1
 448 256 l 1,117,-1
 384 256 l 1,118,-1
 384 192 l 1,119,-1
 448 192 l 1,120,-1
 448 128 l 1,121,-1
 512 128 l 1,122,-1
 512 64 l 1,123,-1
 576 64 l 1,124,-1
 576 0 l 1,125,-1
 512 0 l 1,126,-1
 512 64 l 1,127,-1
 448 64 l 1,128,-1
 448 128 l 1,129,-1
 384 128 l 1,130,-1
 384 64 l 1,131,-1
 448 64 l 1,132,-1
 448 0 l 1,133,-1
 512 0 l 1,134,-1
 512 -64 l 1,135,-1
 576 -64 l 1,136,-1
 576 -128 l 1,137,-1
 512 -128 l 1,138,-1
 512 -64 l 1,139,-1
 448 -64 l 1,140,-1
 448 0 l 1,141,-1
 384 0 l 1,142,-1
 384 -64 l 1,143,-1
 448 -64 l 1,144,-1
 448 -128 l 1,145,-1
 512 -128 l 1,146,-1
 512 -192 l 1,147,-1
 448 -192 l 1,148,-1
 448 -128 l 1,149,-1
 384 -128 l 1,150,-1
 384 -192 l 1,151,-1
 448 -192 l 1,152,-1
 448 -256 l 1,153,-1
 384 -256 l 1,38,-1
512 640 m 1,154,-1
 512 704 l 1,155,-1
 576 704 l 1,156,-1
 576 640 l 1,157,-1
 512 640 l 1,154,-1
512 704 m 1,158,-1
 448 704 l 1,159,-1
 448 768 l 1,160,-1
 512 768 l 1,161,-1
 512 704 l 1,158,-1
EndSplineSet
EndChar

StartChar: c
Encoding: 99 99 33
Width: 1024
Flags: W
LayerCount: 2
Fore
SplineSet
-64 320 m 1,0,-1
 -64 384 l 1,1,-1
 -128 384 l 1,2,-1
 -128 448 l 1,3,-1
 -128 512 l 1,4,-1
 -128 576 l 1,5,-1
 -128 640 l 1,6,-1
 -128 704 l 1,7,-1
 -128 768 l 1,8,-1
 -64 768 l 1,9,-1
 0 768 l 1,10,-1
 64 768 l 1,11,-1
 64 704 l 1,12,-1
 128 704 l 1,13,-1
 128 768 l 1,14,-1
 192 768 l 1,15,-1
 256 768 l 1,16,-1
 320 768 l 1,17,-1
 320 704 l 1,18,-1
 320 640 l 1,19,-1
 256 640 l 1,20,-1
 256 576 l 1,21,-1
 256 512 l 1,22,-1
 256 448 l 1,23,-1
 320 448 l 1,24,-1
 320 384 l 1,25,-1
 320 320 l 1,26,-1
 320 256 l 1,27,-1
 384 256 l 1,28,-1
 384 192 l 1,29,-1
 448 192 l 1,30,-1
 448 128 l 1,31,-1
 512 128 l 1,32,-1
 512 64 l 1,33,-1
 576 64 l 1,34,-1
 576 0 l 1,35,-1
 640 0 l 1,36,-1
 704 0 l 1,37,-1
 704 -64 l 1,38,-1
 640 -64 l 1,39,-1
 576 -64 l 1,40,-1
 576 0 l 1,41,-1
 512 0 l 1,42,-1
 512 64 l 1,43,-1
 448 64 l 1,44,-1
 448 128 l 1,45,-1
 384 128 l 1,46,-1
 384 192 l 1,47,-1
 320 192 l 1,48,-1
 320 256 l 1,49,-1
 256 256 l 1,50,-1
 256 320 l 1,51,-1
 256 384 l 1,52,-1
 256 448 l 1,53,-1
 192 448 l 1,54,-1
 192 384 l 1,55,-1
 192 320 l 1,56,-1
 192 256 l 1,57,-1
 256 256 l 1,58,-1
 256 192 l 1,59,-1
 320 192 l 1,60,-1
 320 128 l 1,61,-1
 256 128 l 1,62,-1
 256 192 l 1,63,-1
 192 192 l 1,64,-1
 192 256 l 1,65,-1
 128 256 l 1,66,-1
 128 192 l 1,67,-1
 128 128 l 1,68,-1
 128 64 l 1,69,-1
 192 64 l 1,70,-1
 192 128 l 1,71,-1
 256 128 l 1,72,-1
 256 64 l 1,73,-1
 256 0 l 1,74,-1
 320 0 l 1,75,-1
 384 0 l 1,76,-1
 384 -64 l 1,77,-1
 448 -64 l 1,78,-1
 448 0 l 1,79,-1
 512 0 l 1,80,-1
 512 -64 l 1,81,-1
 576 -64 l 1,82,-1
 576 -128 l 1,83,-1
 640 -128 l 1,84,-1
 704 -128 l 1,85,-1
 704 -64 l 1,86,-1
 768 -64 l 1,87,-1
 768 -128 l 1,88,-1
 832 -128 l 1,89,-1
 832 -192 l 1,90,-1
 896 -192 l 1,91,-1
 896 -256 l 1,92,-1
 832 -256 l 1,93,-1
 768 -256 l 1,94,-1
 704 -256 l 1,95,-1
 640 -256 l 1,96,-1
 640 -192 l 1,97,-1
 576 -192 l 1,98,-1
 576 -128 l 1,99,-1
 512 -128 l 1,100,-1
 448 -128 l 1,101,-1
 384 -128 l 1,102,-1
 384 -64 l 1,103,-1
 320 -64 l 1,104,-1
 256 -64 l 1,105,-1
 256 0 l 1,106,-1
 192 0 l 1,107,-1
 192 -64 l 1,108,-1
 192 -128 l 1,109,-1
 256 -128 l 1,110,-1
 320 -128 l 1,111,-1
 384 -128 l 1,112,-1
 384 -192 l 1,113,-1
 320 -192 l 1,114,-1
 256 -192 l 1,115,-1
 256 -256 l 1,116,-1
 192 -256 l 1,117,-1
 128 -256 l 1,118,-1
 64 -256 l 1,119,-1
 0 -256 l 1,120,-1
 -64 -256 l 1,121,-1
 -64 -192 l 1,122,-1
 0 -192 l 1,123,-1
 0 -128 l 1,124,-1
 64 -128 l 1,125,-1
 64 -64 l 1,126,-1
 128 -64 l 1,127,-1
 128 0 l 1,128,-1
 128 64 l 1,129,-1
 64 64 l 1,130,-1
 64 128 l 1,131,-1
 64 192 l 1,132,-1
 0 192 l 1,133,-1
 0 256 l 1,134,-1
 64 256 l 1,135,-1
 64 320 l 1,136,-1
 64 384 l 1,137,-1
 64 448 l 1,138,-1
 128 448 l 1,139,-1
 128 512 l 1,140,-1
 128 576 l 1,141,-1
 64 576 l 1,142,-1
 64 512 l 1,143,-1
 0 512 l 1,144,-1
 0 448 l 1,145,-1
 0 384 l 1,146,-1
 0 320 l 1,147,-1
 -64 320 l 1,0,-1
768 -64 m 1,148,-1
 768 0 l 1,149,-1
 704 0 l 1,150,-1
 704 64 l 1,151,-1
 768 64 l 1,152,-1
 768 128 l 1,153,-1
 768 192 l 1,154,-1
 832 192 l 1,155,-1
 832 128 l 1,156,-1
 832 64 l 1,157,-1
 832 0 l 1,158,-1
 832 -64 l 1,159,-1
 768 -64 l 1,148,-1
576 64 m 1,160,-1
 576 128 l 1,161,-1
 640 128 l 1,162,-1
 640 64 l 1,163,-1
 576 64 l 1,160,-1
640 128 m 1,164,-1
 640 192 l 1,165,-1
 704 192 l 1,166,-1
 704 128 l 1,167,-1
 640 128 l 1,164,-1
768 192 m 1,168,-1
 704 192 l 1,169,-1
 704 256 l 1,170,-1
 768 256 l 1,171,-1
 768 192 l 1,168,-1
768 256 m 1,172,-1
 768 320 l 1,173,-1
 768 384 l 1,174,-1
 768 448 l 1,175,-1
 768 512 l 1,176,-1
 832 512 l 1,177,-1
 832 448 l 1,178,-1
 832 384 l 1,179,-1
 832 320 l 1,180,-1
 832 256 l 1,181,-1
 768 256 l 1,172,-1
704 256 m 1,182,-1
 640 256 l 1,183,-1
 640 320 l 1,184,-1
 704 320 l 1,185,-1
 704 256 l 1,182,-1
384 256 m 1,186,-1
 384 320 l 1,187,-1
 448 320 l 1,188,-1
 448 256 l 1,189,-1
 384 256 l 1,186,-1
640 320 m 1,190,-1
 576 320 l 1,191,-1
 576 384 l 1,192,-1
 640 384 l 1,193,-1
 640 320 l 1,190,-1
448 320 m 1,194,-1
 448 384 l 1,195,-1
 512 384 l 1,196,-1
 512 320 l 1,197,-1
 448 320 l 1,194,-1
576 384 m 1,198,-1
 512 384 l 1,199,-1
 512 448 l 1,200,-1
 576 448 l 1,201,-1
 576 384 l 1,198,-1
576 448 m 1,202,-1
 576 512 l 1,203,-1
 640 512 l 1,204,-1
 640 448 l 1,205,-1
 576 448 l 1,202,-1
512 448 m 1,206,-1
 448 448 l 1,207,-1
 448 512 l 1,208,-1
 512 512 l 1,209,-1
 512 448 l 1,206,-1
320 448 m 1,210,-1
 320 512 l 1,211,-1
 320 576 l 1,212,-1
 384 576 l 1,213,-1
 384 640 l 1,214,-1
 448 640 l 1,215,-1
 512 640 l 1,216,-1
 576 640 l 1,217,-1
 640 640 l 1,218,-1
 704 640 l 1,219,-1
 704 576 l 1,220,-1
 768 576 l 1,221,-1
 768 512 l 1,222,-1
 704 512 l 1,223,-1
 640 512 l 1,224,-1
 640 576 l 1,225,-1
 576 576 l 1,226,-1
 512 576 l 1,227,-1
 448 576 l 1,228,-1
 448 512 l 1,229,-1
 384 512 l 1,230,-1
 384 448 l 1,231,-1
 320 448 l 1,210,-1
0 640 m 1,232,-1
 0 704 l 1,233,-1
 -64 704 l 1,234,-1
 -64 640 l 1,235,-1
 0 640 l 1,232,-1
EndSplineSet
EndChar

StartChar: d
Encoding: 100 100 34
Width: 1024
Flags: W
LayerCount: 2
Fore
SplineSet
576 512 m 1,0,-1
 576 576 l 1,1,-1
 512 576 l 1,2,-1
 512 512 l 1,3,-1
 512 448 l 1,4,-1
 512 384 l 1,5,-1
 512 320 l 1,6,-1
 448 320 l 1,7,-1
 448 256 l 1,8,-1
 512 256 l 1,9,-1
 576 256 l 1,10,-1
 576 192 l 1,11,-1
 512 192 l 1,12,-1
 448 192 l 1,13,-1
 448 256 l 1,14,-1
 384 256 l 1,15,-1
 320 256 l 1,16,-1
 320 192 l 1,17,-1
 384 192 l 1,18,-1
 448 192 l 1,19,-1
 448 128 l 1,20,-1
 448 64 l 1,21,-1
 448 0 l 1,22,-1
 448 -64 l 1,23,-1
 448 -128 l 1,24,-1
 512 -128 l 1,25,-1
 512 -192 l 1,26,-1
 576 -192 l 1,27,-1
 576 -128 l 1,28,-1
 640 -128 l 1,29,-1
 640 -64 l 1,30,-1
 704 -64 l 1,31,-1
 704 0 l 1,32,-1
 768 0 l 1,33,-1
 768 64 l 1,34,-1
 832 64 l 1,35,-1
 832 0 l 1,36,-1
 832 -64 l 1,37,-1
 768 -64 l 1,38,-1
 768 -128 l 1,39,-1
 768 -192 l 1,40,-1
 704 -192 l 1,41,-1
 704 -256 l 1,42,-1
 640 -256 l 1,43,-1
 576 -256 l 1,44,-1
 512 -256 l 1,45,-1
 448 -256 l 1,46,-1
 384 -256 l 1,47,-1
 320 -256 l 1,48,-1
 256 -256 l 1,49,-1
 192 -256 l 1,50,-1
 128 -256 l 1,51,-1
 64 -256 l 1,52,-1
 64 -192 l 1,53,-1
 0 -192 l 1,54,-1
 0 -128 l 1,55,-1
 0 -64 l 1,56,-1
 -64 -64 l 1,57,-1
 -64 0 l 1,58,-1
 -64 64 l 1,59,-1
 0 64 l 1,60,-1
 0 0 l 1,61,-1
 64 0 l 1,62,-1
 64 -64 l 1,63,-1
 128 -64 l 1,64,-1
 128 -128 l 1,65,-1
 192 -128 l 1,66,-1
 192 -192 l 1,67,-1
 256 -192 l 1,68,-1
 256 -128 l 1,69,-1
 320 -128 l 1,70,-1
 320 -64 l 1,71,-1
 320 0 l 1,72,-1
 320 64 l 1,73,-1
 320 128 l 1,74,-1
 320 192 l 1,75,-1
 256 192 l 1,76,-1
 192 192 l 1,77,-1
 128 192 l 1,78,-1
 128 256 l 1,79,-1
 64 256 l 1,80,-1
 64 320 l 1,81,-1
 128 320 l 1,82,-1
 192 320 l 1,83,-1
 192 256 l 1,84,-1
 256 256 l 1,85,-1
 320 256 l 1,86,-1
 320 320 l 1,87,-1
 384 320 l 1,88,-1
 448 320 l 1,89,-1
 448 384 l 1,90,-1
 448 448 l 1,91,-1
 448 512 l 1,92,-1
 448 576 l 1,93,-1
 448 640 l 1,94,-1
 512 640 l 1,95,-1
 576 640 l 1,96,-1
 640 640 l 1,97,-1
 640 576 l 1,98,-1
 640 512 l 1,99,-1
 576 512 l 1,0,-1
128 512 m 1,100,-1
 128 576 l 1,101,-1
 128 640 l 1,102,-1
 192 640 l 1,103,-1
 256 640 l 1,104,-1
 320 640 l 1,105,-1
 320 576 l 1,106,-1
 320 512 l 1,107,-1
 320 448 l 1,108,-1
 320 384 l 1,109,-1
 320 320 l 1,110,-1
 256 320 l 1,111,-1
 256 384 l 1,112,-1
 256 448 l 1,113,-1
 256 512 l 1,114,-1
 256 576 l 1,115,-1
 192 576 l 1,116,-1
 192 512 l 1,117,-1
 128 512 l 1,100,-1
576 -128 m 1,118,-1
 512 -128 l 1,119,-1
 512 -64 l 1,120,-1
 512 0 l 1,121,-1
 576 0 l 1,122,-1
 576 64 l 1,123,-1
 640 64 l 1,124,-1
 640 128 l 1,125,-1
 704 128 l 1,126,-1
 768 128 l 1,127,-1
 768 64 l 1,128,-1
 704 64 l 1,129,-1
 704 0 l 1,130,-1
 640 0 l 1,131,-1
 640 -64 l 1,132,-1
 576 -64 l 1,133,-1
 576 -128 l 1,118,-1
256 -128 m 1,134,-1
 192 -128 l 1,135,-1
 192 -64 l 1,136,-1
 128 -64 l 1,137,-1
 128 0 l 1,138,-1
 64 0 l 1,139,-1
 64 64 l 1,140,-1
 0 64 l 1,141,-1
 0 128 l 1,142,-1
 64 128 l 1,143,-1
 128 128 l 1,144,-1
 128 64 l 1,145,-1
 192 64 l 1,146,-1
 192 0 l 1,147,-1
 256 0 l 1,148,-1
 256 -64 l 1,149,-1
 256 -128 l 1,134,-1
832 64 m 1,150,-1
 832 128 l 1,151,-1
 768 128 l 1,152,-1
 768 192 l 1,153,-1
 832 192 l 1,154,-1
 896 192 l 1,155,-1
 896 128 l 1,156,-1
 896 64 l 1,157,-1
 832 64 l 1,150,-1
-64 64 m 1,158,-1
 -128 64 l 1,159,-1
 -128 128 l 1,160,-1
 -128 192 l 1,161,-1
 -64 192 l 1,162,-1
 0 192 l 1,163,-1
 0 128 l 1,164,-1
 -64 128 l 1,165,-1
 -64 64 l 1,158,-1
640 320 m 1,166,-1
 704 320 l 1,167,-1
 704 256 l 1,168,-1
 640 256 l 1,169,-1
 576 256 l 1,170,-1
 576 320 l 1,171,-1
 640 320 l 1,166,-1
704 320 m 1,172,-1
 704 384 l 1,173,-1
 768 384 l 1,174,-1
 768 320 l 1,175,-1
 704 320 l 1,172,-1
64 320 m 1,176,-1
 0 320 l 1,177,-1
 0 384 l 1,178,-1
 64 384 l 1,179,-1
 64 320 l 1,176,-1
768 384 m 1,180,-1
 768 448 l 1,181,-1
 768 512 l 1,182,-1
 832 512 l 1,183,-1
 832 576 l 1,184,-1
 768 576 l 1,185,-1
 768 640 l 1,186,-1
 832 640 l 1,187,-1
 832 704 l 1,188,-1
 832 768 l 1,189,-1
 896 768 l 1,190,-1
 896 704 l 1,191,-1
 896 640 l 1,192,-1
 896 576 l 1,193,-1
 896 512 l 1,194,-1
 896 448 l 1,195,-1
 832 448 l 1,196,-1
 832 384 l 1,197,-1
 768 384 l 1,180,-1
704 384 m 1,198,-1
 640 384 l 1,199,-1
 640 448 l 1,200,-1
 704 448 l 1,201,-1
 704 384 l 1,198,-1
64 384 m 1,202,-1
 64 448 l 1,203,-1
 128 448 l 1,204,-1
 128 384 l 1,205,-1
 64 384 l 1,202,-1
0 384 m 1,206,-1
 -64 384 l 1,207,-1
 -64 448 l 1,208,-1
 -128 448 l 1,209,-1
 -128 512 l 1,210,-1
 -128 576 l 1,211,-1
 -128 640 l 1,212,-1
 -128 704 l 1,213,-1
 -128 768 l 1,214,-1
 -64 768 l 1,215,-1
 -64 704 l 1,216,-1
 -64 640 l 1,217,-1
 0 640 l 1,218,-1
 0 576 l 1,219,-1
 -64 576 l 1,220,-1
 -64 512 l 1,221,-1
 0 512 l 1,222,-1
 0 448 l 1,223,-1
 0 384 l 1,206,-1
640 640 m 1,224,-1
 640 704 l 1,225,-1
 576 704 l 1,226,-1
 576 768 l 1,227,-1
 640 768 l 1,228,-1
 704 768 l 1,229,-1
 768 768 l 1,230,-1
 768 704 l 1,231,-1
 704 704 l 1,232,-1
 704 640 l 1,233,-1
 640 640 l 1,224,-1
128 640 m 1,234,-1
 64 640 l 1,235,-1
 64 704 l 1,236,-1
 0 704 l 1,237,-1
 0 768 l 1,238,-1
 64 768 l 1,239,-1
 128 768 l 1,240,-1
 192 768 l 1,241,-1
 192 704 l 1,242,-1
 128 704 l 1,243,-1
 128 640 l 1,234,-1
EndSplineSet
EndChar

StartChar: e
Encoding: 101 101 35
Width: 1024
Flags: W
LayerCount: 2
Fore
SplineSet
576 -64 m 1,0,-1
 576 0 l 1,1,-1
 640 0 l 1,2,-1
 640 -64 l 1,3,-1
 576 -64 l 1,0,-1
448 -64 m 1,4,-1
 448 0 l 1,5,-1
 512 0 l 1,6,-1
 512 -64 l 1,7,-1
 448 -64 l 1,4,-1
320 -64 m 1,8,-1
 320 0 l 1,9,-1
 384 0 l 1,10,-1
 384 -64 l 1,11,-1
 320 -64 l 1,8,-1
192 -64 m 1,12,-1
 192 0 l 1,13,-1
 256 0 l 1,14,-1
 256 -64 l 1,15,-1
 192 -64 l 1,12,-1
64 -64 m 1,16,-1
 64 0 l 1,17,-1
 128 0 l 1,18,-1
 128 -64 l 1,19,-1
 64 -64 l 1,16,-1
768 -256 m 1,20,-1
 704 -256 l 1,21,-1
 640 -256 l 1,22,-1
 576 -256 l 1,23,-1
 512 -256 l 1,24,-1
 448 -256 l 1,25,-1
 384 -256 l 1,26,-1
 320 -256 l 1,27,-1
 256 -256 l 1,28,-1
 192 -256 l 1,29,-1
 128 -256 l 1,30,-1
 64 -256 l 1,31,-1
 0 -256 l 1,32,-1
 -64 -256 l 1,33,-1
 -128 -256 l 1,34,-1
 -128 -192 l 1,35,-1
 -128 -128 l 1,36,-1
 -128 -64 l 1,37,-1
 -128 0 l 1,38,-1
 -128 64 l 1,39,-1
 -128 128 l 1,40,-1
 -128 192 l 1,41,-1
 -128 256 l 1,42,-1
 -128 320 l 1,43,-1
 -128 384 l 1,44,-1
 -128 448 l 1,45,-1
 -128 512 l 1,46,-1
 -128 576 l 1,47,-1
 -128 640 l 1,48,-1
 -128 704 l 1,49,-1
 -128 768 l 1,50,-1
 -64 768 l 1,51,-1
 -64 704 l 1,52,-1
 0 704 l 1,53,-1
 64 704 l 1,54,-1
 128 704 l 1,55,-1
 192 704 l 1,56,-1
 256 704 l 1,57,-1
 320 704 l 1,58,-1
 384 704 l 1,59,-1
 448 704 l 1,60,-1
 512 704 l 1,61,-1
 576 704 l 1,62,-1
 640 704 l 1,63,-1
 704 704 l 1,64,-1
 768 704 l 1,65,-1
 768 768 l 1,66,-1
 832 768 l 1,67,-1
 896 768 l 1,68,-1
 896 704 l 1,69,-1
 896 640 l 1,70,-1
 896 576 l 1,71,-1
 896 512 l 1,72,-1
 896 448 l 1,73,-1
 896 384 l 1,74,-1
 896 320 l 1,75,-1
 896 256 l 1,76,-1
 896 192 l 1,77,-1
 896 128 l 1,78,-1
 896 64 l 1,79,-1
 896 0 l 1,80,-1
 896 -64 l 1,81,-1
 896 -128 l 1,82,-1
 896 -192 l 1,83,-1
 832 -192 l 1,84,-1
 832 -256 l 1,85,-1
 768 -256 l 1,20,-1
704 -192 m 1,86,-1
 768 -192 l 1,87,-1
 768 -128 l 1,88,-1
 768 -64 l 1,89,-1
 704 -64 l 1,90,-1
 704 0 l 1,91,-1
 640 0 l 1,92,-1
 640 64 l 1,93,-1
 576 64 l 1,94,-1
 576 128 l 1,95,-1
 512 128 l 1,96,-1
 512 64 l 1,97,-1
 576 64 l 1,98,-1
 576 0 l 1,99,-1
 512 0 l 1,100,-1
 512 64 l 1,101,-1
 448 64 l 1,102,-1
 448 128 l 1,103,-1
 384 128 l 1,104,-1
 384 64 l 1,105,-1
 448 64 l 1,106,-1
 448 0 l 1,107,-1
 384 0 l 1,108,-1
 384 64 l 1,109,-1
 320 64 l 1,110,-1
 320 128 l 1,111,-1
 256 128 l 1,112,-1
 256 64 l 1,113,-1
 320 64 l 1,114,-1
 320 0 l 1,115,-1
 256 0 l 1,116,-1
 256 64 l 1,117,-1
 192 64 l 1,118,-1
 192 128 l 1,119,-1
 128 128 l 1,120,-1
 128 64 l 1,121,-1
 192 64 l 1,122,-1
 192 0 l 1,123,-1
 128 0 l 1,124,-1
 128 64 l 1,125,-1
 64 64 l 1,126,-1
 64 128 l 1,127,-1
 0 128 l 1,128,-1
 0 64 l 1,129,-1
 64 64 l 1,130,-1
 64 0 l 1,131,-1
 0 0 l 1,132,-1
 0 64 l 1,133,-1
 -64 64 l 1,134,-1
 -64 0 l 1,135,-1
 0 0 l 1,136,-1
 0 -64 l 1,137,-1
 -64 -64 l 1,138,-1
 -64 -128 l 1,139,-1
 -64 -192 l 1,140,-1
 0 -192 l 1,141,-1
 64 -192 l 1,142,-1
 128 -192 l 1,143,-1
 192 -192 l 1,144,-1
 256 -192 l 1,145,-1
 320 -192 l 1,146,-1
 384 -192 l 1,147,-1
 448 -192 l 1,148,-1
 512 -192 l 1,149,-1
 576 -192 l 1,150,-1
 640 -192 l 1,151,-1
 704 -192 l 1,86,-1
768 0 m 1,152,-1
 768 64 l 1,153,-1
 704 64 l 1,154,-1
 704 128 l 1,155,-1
 640 128 l 1,156,-1
 640 64 l 1,157,-1
 704 64 l 1,158,-1
 704 0 l 1,159,-1
 768 0 l 1,152,-1
EndSplineSet
EndChar

StartChar: f
Encoding: 102 102 36
Width: 1024
Flags: W
LayerCount: 2
Fore
SplineSet
768 0 m 1,0,-1
 768 64 l 1,1,-1
 832 64 l 1,2,-1
 832 0 l 1,3,-1
 768 0 l 1,0,-1
640 0 m 1,4,-1
 640 64 l 1,5,-1
 704 64 l 1,6,-1
 704 0 l 1,7,-1
 640 0 l 1,4,-1
512 0 m 1,8,-1
 512 64 l 1,9,-1
 576 64 l 1,10,-1
 576 0 l 1,11,-1
 512 0 l 1,8,-1
384 0 m 1,12,-1
 384 64 l 1,13,-1
 448 64 l 1,14,-1
 448 0 l 1,15,-1
 384 0 l 1,12,-1
256 0 m 1,16,-1
 256 64 l 1,17,-1
 320 64 l 1,18,-1
 320 0 l 1,19,-1
 256 0 l 1,16,-1
128 0 m 1,20,-1
 128 64 l 1,21,-1
 192 64 l 1,22,-1
 192 0 l 1,23,-1
 128 0 l 1,20,-1
0 0 m 1,24,-1
 0 64 l 1,25,-1
 64 64 l 1,26,-1
 64 0 l 1,27,-1
 0 0 l 1,24,-1
-128 0 m 1,28,-1
 -128 64 l 1,29,-1
 -64 64 l 1,30,-1
 -64 0 l 1,31,-1
 -128 0 l 1,28,-1
832 -128 m 1,32,-1
 896 -128 l 1,33,-1
 896 -192 l 1,34,-1
 832 -192 l 1,35,-1
 768 -192 l 1,36,-1
 704 -192 l 1,37,-1
 640 -192 l 1,38,-1
 576 -192 l 1,39,-1
 512 -192 l 1,40,-1
 448 -192 l 1,41,-1
 384 -192 l 1,42,-1
 320 -192 l 1,43,-1
 256 -192 l 1,44,-1
 192 -192 l 1,45,-1
 128 -192 l 1,46,-1
 64 -192 l 1,47,-1
 0 -192 l 1,48,-1
 -64 -192 l 1,49,-1
 -128 -192 l 1,50,-1
 -128 -128 l 1,51,-1
 -64 -128 l 1,52,-1
 0 -128 l 1,53,-1
 64 -128 l 1,54,-1
 128 -128 l 1,55,-1
 192 -128 l 1,56,-1
 256 -128 l 1,57,-1
 320 -128 l 1,58,-1
 384 -128 l 1,59,-1
 448 -128 l 1,60,-1
 512 -128 l 1,61,-1
 576 -128 l 1,62,-1
 640 -128 l 1,63,-1
 704 -128 l 1,64,-1
 768 -128 l 1,65,-1
 832 -128 l 1,32,-1
832 64 m 1,66,-1
 832 128 l 1,67,-1
 896 128 l 1,68,-1
 896 64 l 1,69,-1
 832 64 l 1,66,-1
768 64 m 1,70,-1
 704 64 l 1,71,-1
 704 128 l 1,72,-1
 768 128 l 1,73,-1
 768 64 l 1,70,-1
640 64 m 1,74,-1
 576 64 l 1,75,-1
 576 128 l 1,76,-1
 640 128 l 1,77,-1
 640 64 l 1,74,-1
512 64 m 1,78,-1
 448 64 l 1,79,-1
 448 128 l 1,80,-1
 512 128 l 1,81,-1
 512 64 l 1,78,-1
384 64 m 1,82,-1
 320 64 l 1,83,-1
 320 128 l 1,84,-1
 384 128 l 1,85,-1
 384 64 l 1,82,-1
256 64 m 1,86,-1
 192 64 l 1,87,-1
 192 128 l 1,88,-1
 256 128 l 1,89,-1
 256 64 l 1,86,-1
128 64 m 1,90,-1
 64 64 l 1,91,-1
 64 128 l 1,92,-1
 128 128 l 1,93,-1
 128 64 l 1,90,-1
0 64 m 1,94,-1
 -64 64 l 1,95,-1
 -64 128 l 1,96,-1
 0 128 l 1,97,-1
 0 64 l 1,94,-1
832 128 m 1,98,-1
 768 128 l 1,99,-1
 768 192 l 1,100,-1
 704 192 l 1,101,-1
 704 128 l 1,102,-1
 640 128 l 1,103,-1
 640 192 l 1,104,-1
 576 192 l 1,105,-1
 576 128 l 1,106,-1
 512 128 l 1,107,-1
 512 192 l 1,108,-1
 448 192 l 1,109,-1
 448 128 l 1,110,-1
 384 128 l 1,111,-1
 384 192 l 1,112,-1
 320 192 l 1,113,-1
 320 128 l 1,114,-1
 256 128 l 1,115,-1
 256 192 l 1,116,-1
 192 192 l 1,117,-1
 192 128 l 1,118,-1
 128 128 l 1,119,-1
 128 192 l 1,120,-1
 64 192 l 1,121,-1
 64 128 l 1,122,-1
 0 128 l 1,123,-1
 0 192 l 1,124,-1
 -64 192 l 1,125,-1
 -64 128 l 1,126,-1
 -128 128 l 1,127,-1
 -128 192 l 1,128,-1
 -128 256 l 1,129,-1
 -128 320 l 1,130,-1
 -128 384 l 1,131,-1
 -128 448 l 1,132,-1
 -128 512 l 1,133,-1
 -128 576 l 1,134,-1
 -128 640 l 1,135,-1
 -128 704 l 1,136,-1
 -128 768 l 1,137,-1
 -64 768 l 1,138,-1
 0 768 l 1,139,-1
 64 768 l 1,140,-1
 128 768 l 1,141,-1
 192 768 l 1,142,-1
 256 768 l 1,143,-1
 320 768 l 1,144,-1
 384 768 l 1,145,-1
 448 768 l 1,146,-1
 512 768 l 1,147,-1
 576 768 l 1,148,-1
 640 768 l 1,149,-1
 704 768 l 1,150,-1
 768 768 l 1,151,-1
 832 768 l 1,152,-1
 896 768 l 1,153,-1
 896 704 l 1,154,-1
 896 640 l 1,155,-1
 896 576 l 1,156,-1
 896 512 l 1,157,-1
 896 448 l 1,158,-1
 896 384 l 1,159,-1
 896 320 l 1,160,-1
 896 256 l 1,161,-1
 896 192 l 1,162,-1
 832 192 l 1,163,-1
 832 128 l 1,98,-1
EndSplineSet
EndChar

StartChar: g
Encoding: 103 103 37
Width: 1024
Flags: W
LayerCount: 2
Fore
SplineSet
704 -256 m 1,0,-1
 704 -192 l 1,1,-1
 704 -128 l 1,2,-1
 704 -64 l 1,3,-1
 704 0 l 1,4,-1
 704 64 l 1,5,-1
 704 128 l 1,6,-1
 704 192 l 1,7,-1
 704 256 l 1,8,-1
 704 320 l 1,9,-1
 704 384 l 1,10,-1
 704 448 l 1,11,-1
 704 512 l 1,12,-1
 704 576 l 1,13,-1
 704 640 l 1,14,-1
 704 704 l 1,15,-1
 704 768 l 1,16,-1
 768 768 l 1,17,-1
 768 704 l 1,18,-1
 768 640 l 1,19,-1
 768 576 l 1,20,-1
 768 512 l 1,21,-1
 768 448 l 1,22,-1
 768 384 l 1,23,-1
 768 320 l 1,24,-1
 768 256 l 1,25,-1
 768 192 l 1,26,-1
 768 128 l 1,27,-1
 768 64 l 1,28,-1
 768 0 l 1,29,-1
 768 -64 l 1,30,-1
 768 -128 l 1,31,-1
 768 -192 l 1,32,-1
 768 -256 l 1,33,-1
 704 -256 l 1,0,-1
0 -256 m 1,34,-1
 0 -192 l 1,35,-1
 -64 -192 l 1,36,-1
 -128 -192 l 1,37,-1
 -128 -128 l 1,38,-1
 -64 -128 l 1,39,-1
 0 -128 l 1,40,-1
 64 -128 l 1,41,-1
 128 -128 l 1,42,-1
 128 -192 l 1,43,-1
 64 -192 l 1,44,-1
 64 -256 l 1,45,-1
 0 -256 l 1,34,-1
0 0 m 1,46,-1
 0 64 l 1,47,-1
 64 64 l 1,48,-1
 64 0 l 1,49,-1
 0 0 l 1,46,-1
-128 0 m 1,50,-1
 -128 64 l 1,51,-1
 -64 64 l 1,52,-1
 -64 0 l 1,53,-1
 -128 0 l 1,50,-1
320 -256 m 1,54,-1
 256 -256 l 1,55,-1
 256 -192 l 1,56,-1
 256 -128 l 1,57,-1
 256 -64 l 1,58,-1
 256 0 l 1,59,-1
 256 64 l 1,60,-1
 192 64 l 1,61,-1
 192 128 l 1,62,-1
 128 128 l 1,63,-1
 128 192 l 1,64,-1
 64 192 l 1,65,-1
 64 128 l 1,66,-1
 128 128 l 1,67,-1
 128 64 l 1,68,-1
 192 64 l 1,69,-1
 192 0 l 1,70,-1
 192 -64 l 1,71,-1
 192 -128 l 1,72,-1
 128 -128 l 1,73,-1
 128 -64 l 1,74,-1
 128 0 l 1,75,-1
 128 64 l 1,76,-1
 64 64 l 1,77,-1
 64 128 l 1,78,-1
 0 128 l 1,79,-1
 0 192 l 1,80,-1
 -64 192 l 1,81,-1
 -64 128 l 1,82,-1
 0 128 l 1,83,-1
 0 64 l 1,84,-1
 -64 64 l 1,85,-1
 -64 128 l 1,86,-1
 -128 128 l 1,87,-1
 -128 192 l 1,88,-1
 -128 256 l 1,89,-1
 -128 320 l 1,90,-1
 -128 384 l 1,91,-1
 -128 448 l 1,92,-1
 -128 512 l 1,93,-1
 -128 576 l 1,94,-1
 -128 640 l 1,95,-1
 -128 704 l 1,96,-1
 -128 768 l 1,97,-1
 -64 768 l 1,98,-1
 0 768 l 1,99,-1
 64 768 l 1,100,-1
 128 768 l 1,101,-1
 192 768 l 1,102,-1
 256 768 l 1,103,-1
 320 768 l 1,104,-1
 384 768 l 1,105,-1
 384 704 l 1,106,-1
 384 640 l 1,107,-1
 384 576 l 1,108,-1
 384 512 l 1,109,-1
 384 448 l 1,110,-1
 384 384 l 1,111,-1
 384 320 l 1,112,-1
 384 256 l 1,113,-1
 384 192 l 1,114,-1
 384 128 l 1,115,-1
 384 64 l 1,116,-1
 384 0 l 1,117,-1
 384 -64 l 1,118,-1
 384 -128 l 1,119,-1
 384 -192 l 1,120,-1
 384 -256 l 1,121,-1
 320 -256 l 1,54,-1
EndSplineSet
EndChar

StartChar: j
Encoding: 106 106 38
Width: 1024
Flags: W
LayerCount: 2
Fore
SplineSet
832 192 m 1,0,-1
 832 256 l 1,1,-1
 768 256 l 1,2,-1
 768 320 l 1,3,-1
 704 320 l 1,4,-1
 704 384 l 1,5,-1
 640 384 l 1,6,-1
 640 448 l 1,7,-1
 576 448 l 1,8,-1
 576 512 l 1,9,-1
 512 512 l 1,10,-1
 512 576 l 1,11,-1
 448 576 l 1,12,-1
 448 640 l 1,13,-1
 384 640 l 1,14,-1
 384 704 l 1,15,-1
 448 704 l 1,16,-1
 512 704 l 1,17,-1
 576 704 l 1,18,-1
 640 704 l 1,19,-1
 704 704 l 1,20,-1
 768 704 l 1,21,-1
 832 704 l 1,22,-1
 896 704 l 1,23,-1
 896 640 l 1,24,-1
 896 576 l 1,25,-1
 896 512 l 1,26,-1
 896 448 l 1,27,-1
 896 384 l 1,28,-1
 896 320 l 1,29,-1
 896 256 l 1,30,-1
 896 192 l 1,31,-1
 832 192 l 1,0,-1
EndSplineSet
EndChar

StartChar: k
Encoding: 107 107 39
Width: 1024
Flags: W
LayerCount: 2
Fore
SplineSet
384 -256 m 1,0,-1
 320 -256 l 1,1,-1
 320 -192 l 1,2,-1
 320 -128 l 1,3,-1
 320 -64 l 1,4,-1
 320 0 l 1,5,-1
 320 64 l 1,6,-1
 320 128 l 1,7,-1
 320 192 l 1,8,-1
 320 256 l 1,9,-1
 320 320 l 1,10,-1
 320 384 l 1,11,-1
 320 448 l 1,12,-1
 320 512 l 1,13,-1
 320 576 l 1,14,-1
 320 640 l 1,15,-1
 320 704 l 1,16,-1
 320 768 l 1,17,-1
 384 768 l 1,18,-1
 448 768 l 1,19,-1
 448 704 l 1,20,-1
 448 640 l 1,21,-1
 448 576 l 1,22,-1
 448 512 l 1,23,-1
 448 448 l 1,24,-1
 448 384 l 1,25,-1
 448 320 l 1,26,-1
 448 256 l 1,27,-1
 448 192 l 1,28,-1
 448 128 l 1,29,-1
 448 64 l 1,30,-1
 448 0 l 1,31,-1
 448 -64 l 1,32,-1
 448 -128 l 1,33,-1
 448 -192 l 1,34,-1
 448 -256 l 1,35,-1
 384 -256 l 1,0,-1
EndSplineSet
EndChar

StartChar: l
Encoding: 108 108 40
Width: 1024
Flags: W
LayerCount: 2
Fore
SplineSet
64 320 m 1,0,-1
 64 384 l 1,1,-1
 128 384 l 1,2,-1
 128 320 l 1,3,-1
 64 320 l 1,0,-1
192 384 m 1,4,-1
 192 448 l 1,5,-1
 128 448 l 1,6,-1
 128 512 l 1,7,-1
 128 576 l 1,8,-1
 192 576 l 1,9,-1
 192 512 l 1,10,-1
 256 512 l 1,11,-1
 256 448 l 1,12,-1
 256 384 l 1,13,-1
 192 384 l 1,4,-1
-64 384 m 1,14,-1
 -64 448 l 1,15,-1
 -64 512 l 1,16,-1
 0 512 l 1,17,-1
 0 576 l 1,18,-1
 64 576 l 1,19,-1
 64 512 l 1,20,-1
 64 448 l 1,21,-1
 0 448 l 1,22,-1
 0 384 l 1,23,-1
 -64 384 l 1,14,-1
-128 576 m 1,24,-1
 -128 640 l 1,25,-1
 -128 704 l 1,26,-1
 -64 704 l 1,27,-1
 0 704 l 1,28,-1
 64 704 l 1,29,-1
 128 704 l 1,30,-1
 192 704 l 1,31,-1
 256 704 l 1,32,-1
 320 704 l 1,33,-1
 320 768 l 1,34,-1
 384 768 l 1,35,-1
 448 768 l 1,36,-1
 448 704 l 1,37,-1
 448 640 l 1,38,-1
 448 576 l 1,39,-1
 448 512 l 1,40,-1
 448 448 l 1,41,-1
 448 384 l 1,42,-1
 448 320 l 1,43,-1
 448 256 l 1,44,-1
 448 192 l 1,45,-1
 448 128 l 1,46,-1
 448 64 l 1,47,-1
 448 0 l 1,48,-1
 448 -64 l 1,49,-1
 448 -128 l 1,50,-1
 448 -192 l 1,51,-1
 448 -256 l 1,52,-1
 384 -256 l 1,53,-1
 320 -256 l 1,54,-1
 256 -256 l 1,55,-1
 256 -192 l 1,56,-1
 192 -192 l 1,57,-1
 192 -128 l 1,58,-1
 128 -128 l 1,59,-1
 128 -64 l 1,60,-1
 64 -64 l 1,61,-1
 64 0 l 1,62,-1
 0 0 l 1,63,-1
 0 64 l 1,64,-1
 -64 64 l 1,65,-1
 -64 128 l 1,66,-1
 -128 128 l 1,67,-1
 -128 192 l 1,68,-1
 -128 256 l 1,69,-1
 -64 256 l 1,70,-1
 0 256 l 1,71,-1
 0 192 l 1,72,-1
 64 192 l 1,73,-1
 128 192 l 1,74,-1
 192 192 l 1,75,-1
 192 256 l 1,76,-1
 256 256 l 1,77,-1
 320 256 l 1,78,-1
 320 320 l 1,79,-1
 320 384 l 1,80,-1
 320 448 l 1,81,-1
 320 512 l 1,82,-1
 320 576 l 1,83,-1
 256 576 l 1,84,-1
 256 640 l 1,85,-1
 192 640 l 1,86,-1
 128 640 l 1,87,-1
 64 640 l 1,88,-1
 0 640 l 1,89,-1
 -64 640 l 1,90,-1
 -64 576 l 1,91,-1
 -128 576 l 1,24,-1
EndSplineSet
EndChar

StartChar: n
Encoding: 110 110 41
Width: 1024
Flags: W
LayerCount: 2
Fore
SplineSet
832 -256 m 1,0,-1
 768 -256 l 1,1,-1
 704 -256 l 1,2,-1
 640 -256 l 1,3,-1
 576 -256 l 1,4,-1
 512 -256 l 1,5,-1
 448 -256 l 1,6,-1
 384 -256 l 1,7,-1
 320 -256 l 1,8,-1
 256 -256 l 1,9,-1
 192 -256 l 1,10,-1
 128 -256 l 1,11,-1
 64 -256 l 1,12,-1
 0 -256 l 1,13,-1
 -64 -256 l 1,14,-1
 -128 -256 l 1,15,-1
 -128 -192 l 1,16,-1
 -128 -128 l 1,17,-1
 -128 -64 l 1,18,-1
 -128 0 l 1,19,-1
 -128 64 l 1,20,-1
 -128 128 l 1,21,-1
 -128 192 l 1,22,-1
 -128 256 l 1,23,-1
 -128 320 l 1,24,-1
 -128 384 l 1,25,-1
 -128 448 l 1,26,-1
 -128 512 l 1,27,-1
 -128 576 l 1,28,-1
 -128 640 l 1,29,-1
 -128 704 l 1,30,-1
 -128 768 l 1,31,-1
 -64 768 l 1,32,-1
 0 768 l 1,33,-1
 64 768 l 1,34,-1
 128 768 l 1,35,-1
 192 768 l 1,36,-1
 256 768 l 1,37,-1
 320 768 l 1,38,-1
 384 768 l 1,39,-1
 448 768 l 1,40,-1
 512 768 l 1,41,-1
 576 768 l 1,42,-1
 640 768 l 1,43,-1
 704 768 l 1,44,-1
 768 768 l 1,45,-1
 832 768 l 1,46,-1
 896 768 l 1,47,-1
 896 704 l 1,48,-1
 896 640 l 1,49,-1
 896 576 l 1,50,-1
 896 512 l 1,51,-1
 896 448 l 1,52,-1
 896 384 l 1,53,-1
 896 320 l 1,54,-1
 896 256 l 1,55,-1
 896 192 l 1,56,-1
 896 128 l 1,57,-1
 896 64 l 1,58,-1
 896 0 l 1,59,-1
 896 -64 l 1,60,-1
 896 -128 l 1,61,-1
 896 -192 l 1,62,-1
 896 -256 l 1,63,-1
 832 -256 l 1,0,-1
EndSplineSet
EndChar

StartChar: o
Encoding: 111 111 42
Width: 1024
Flags: W
LayerCount: 2
Fore
SplineSet
832 -192 m 1,0,-1
 896 -192 l 1,1,-1
 896 -256 l 1,2,-1
 832 -256 l 1,3,-1
 768 -256 l 1,4,-1
 704 -256 l 1,5,-1
 640 -256 l 1,6,-1
 576 -256 l 1,7,-1
 512 -256 l 1,8,-1
 448 -256 l 1,9,-1
 384 -256 l 1,10,-1
 320 -256 l 1,11,-1
 256 -256 l 1,12,-1
 192 -256 l 1,13,-1
 128 -256 l 1,14,-1
 64 -256 l 1,15,-1
 0 -256 l 1,16,-1
 -64 -256 l 1,17,-1
 -128 -256 l 1,18,-1
 -128 -192 l 1,19,-1
 -64 -192 l 1,20,-1
 0 -192 l 1,21,-1
 64 -192 l 1,22,-1
 64 -128 l 1,23,-1
 64 -64 l 1,24,-1
 64 0 l 1,25,-1
 0 0 l 1,26,-1
 -64 0 l 1,27,-1
 -128 0 l 1,28,-1
 -128 64 l 1,29,-1
 -64 64 l 1,30,-1
 0 64 l 1,31,-1
 64 64 l 1,32,-1
 128 64 l 1,33,-1
 192 64 l 1,34,-1
 256 64 l 1,35,-1
 320 64 l 1,36,-1
 320 128 l 1,37,-1
 320 192 l 1,38,-1
 320 256 l 1,39,-1
 256 256 l 1,40,-1
 192 256 l 1,41,-1
 128 256 l 1,42,-1
 64 256 l 1,43,-1
 0 256 l 1,44,-1
 -64 256 l 1,45,-1
 -128 256 l 1,46,-1
 -128 320 l 1,47,-1
 -64 320 l 1,48,-1
 0 320 l 1,49,-1
 64 320 l 1,50,-1
 64 384 l 1,51,-1
 64 448 l 1,52,-1
 64 512 l 1,53,-1
 64 576 l 1,54,-1
 64 640 l 1,55,-1
 64 704 l 1,56,-1
 0 704 l 1,57,-1
 -64 704 l 1,58,-1
 -128 704 l 1,59,-1
 -128 768 l 1,60,-1
 -64 768 l 1,61,-1
 0 768 l 1,62,-1
 64 768 l 1,63,-1
 128 768 l 1,64,-1
 128 704 l 1,65,-1
 128 640 l 1,66,-1
 128 576 l 1,67,-1
 128 512 l 1,68,-1
 128 448 l 1,69,-1
 128 384 l 1,70,-1
 128 320 l 1,71,-1
 192 320 l 1,72,-1
 256 320 l 1,73,-1
 320 320 l 1,74,-1
 384 320 l 1,75,-1
 448 320 l 1,76,-1
 512 320 l 1,77,-1
 576 320 l 1,78,-1
 576 384 l 1,79,-1
 576 448 l 1,80,-1
 576 512 l 1,81,-1
 576 576 l 1,82,-1
 576 640 l 1,83,-1
 576 704 l 1,84,-1
 576 768 l 1,85,-1
 640 768 l 1,86,-1
 704 768 l 1,87,-1
 768 768 l 1,88,-1
 832 768 l 1,89,-1
 896 768 l 1,90,-1
 896 704 l 1,91,-1
 832 704 l 1,92,-1
 768 704 l 1,93,-1
 704 704 l 1,94,-1
 640 704 l 1,95,-1
 640 640 l 1,96,-1
 640 576 l 1,97,-1
 640 512 l 1,98,-1
 640 448 l 1,99,-1
 640 384 l 1,100,-1
 640 320 l 1,101,-1
 704 320 l 1,102,-1
 768 320 l 1,103,-1
 832 320 l 1,104,-1
 896 320 l 1,105,-1
 896 256 l 1,106,-1
 832 256 l 1,107,-1
 768 256 l 1,108,-1
 704 256 l 1,109,-1
 640 256 l 1,110,-1
 576 256 l 1,111,-1
 512 256 l 1,112,-1
 448 256 l 1,113,-1
 384 256 l 1,114,-1
 384 192 l 1,115,-1
 384 128 l 1,116,-1
 384 64 l 1,117,-1
 448 64 l 1,118,-1
 512 64 l 1,119,-1
 576 64 l 1,120,-1
 640 64 l 1,121,-1
 704 64 l 1,122,-1
 768 64 l 1,123,-1
 832 64 l 1,124,-1
 896 64 l 1,125,-1
 896 0 l 1,126,-1
 832 0 l 1,127,-1
 768 0 l 1,128,-1
 704 0 l 1,129,-1
 640 0 l 1,130,-1
 576 0 l 1,131,-1
 512 0 l 1,132,-1
 448 0 l 1,133,-1
 384 0 l 1,134,-1
 320 0 l 1,135,-1
 256 0 l 1,136,-1
 192 0 l 1,137,-1
 128 0 l 1,138,-1
 128 -64 l 1,139,-1
 128 -128 l 1,140,-1
 128 -192 l 1,141,-1
 192 -192 l 1,142,-1
 256 -192 l 1,143,-1
 320 -192 l 1,144,-1
 384 -192 l 1,145,-1
 448 -192 l 1,146,-1
 512 -192 l 1,147,-1
 576 -192 l 1,148,-1
 640 -192 l 1,149,-1
 704 -192 l 1,150,-1
 768 -192 l 1,151,-1
 832 -192 l 1,0,-1
EndSplineSet
EndChar

StartChar: p
Encoding: 112 112 43
Width: 1024
Flags: W
LayerCount: 2
Fore
SplineSet
832 -192 m 1,0,-1
 896 -192 l 1,1,-1
 896 -256 l 1,2,-1
 832 -256 l 1,3,-1
 768 -256 l 1,4,-1
 704 -256 l 1,5,-1
 640 -256 l 1,6,-1
 576 -256 l 1,7,-1
 512 -256 l 1,8,-1
 448 -256 l 1,9,-1
 384 -256 l 1,10,-1
 320 -256 l 1,11,-1
 256 -256 l 1,12,-1
 192 -256 l 1,13,-1
 128 -256 l 1,14,-1
 64 -256 l 1,15,-1
 0 -256 l 1,16,-1
 -64 -256 l 1,17,-1
 -128 -256 l 1,18,-1
 -128 -192 l 1,19,-1
 -64 -192 l 1,20,-1
 0 -192 l 1,21,-1
 64 -192 l 1,22,-1
 64 -128 l 1,23,-1
 64 -64 l 1,24,-1
 64 0 l 1,25,-1
 0 0 l 1,26,-1
 -64 0 l 1,27,-1
 -128 0 l 1,28,-1
 -128 64 l 1,29,-1
 -64 64 l 1,30,-1
 0 64 l 1,31,-1
 64 64 l 1,32,-1
 128 64 l 1,33,-1
 192 64 l 1,34,-1
 256 64 l 1,35,-1
 320 64 l 1,36,-1
 320 128 l 1,37,-1
 320 192 l 1,38,-1
 320 256 l 1,39,-1
 256 256 l 1,40,-1
 192 256 l 1,41,-1
 128 256 l 1,42,-1
 64 256 l 1,43,-1
 0 256 l 1,44,-1
 -64 256 l 1,45,-1
 -128 256 l 1,46,-1
 -128 320 l 1,47,-1
 -64 320 l 1,48,-1
 0 320 l 1,49,-1
 64 320 l 1,50,-1
 64 384 l 1,51,-1
 64 448 l 1,52,-1
 64 512 l 1,53,-1
 64 576 l 1,54,-1
 64 640 l 1,55,-1
 64 704 l 1,56,-1
 0 704 l 1,57,-1
 -64 704 l 1,58,-1
 -128 704 l 1,59,-1
 -128 768 l 1,60,-1
 -64 768 l 1,61,-1
 0 768 l 1,62,-1
 64 768 l 1,63,-1
 128 768 l 1,64,-1
 128 704 l 1,65,-1
 128 640 l 1,66,-1
 128 576 l 1,67,-1
 192 576 l 1,68,-1
 256 576 l 1,69,-1
 320 576 l 1,70,-1
 320 640 l 1,71,-1
 320 704 l 1,72,-1
 320 768 l 1,73,-1
 384 768 l 1,74,-1
 384 704 l 1,75,-1
 384 640 l 1,76,-1
 384 576 l 1,77,-1
 448 576 l 1,78,-1
 512 576 l 1,79,-1
 576 576 l 1,80,-1
 576 640 l 1,81,-1
 576 704 l 1,82,-1
 576 768 l 1,83,-1
 640 768 l 1,84,-1
 704 768 l 1,85,-1
 768 768 l 1,86,-1
 832 768 l 1,87,-1
 896 768 l 1,88,-1
 896 704 l 1,89,-1
 832 704 l 1,90,-1
 768 704 l 1,91,-1
 704 704 l 1,92,-1
 640 704 l 1,93,-1
 640 640 l 1,94,-1
 640 576 l 1,95,-1
 640 512 l 1,96,-1
 640 448 l 1,97,-1
 640 384 l 1,98,-1
 640 320 l 1,99,-1
 704 320 l 1,100,-1
 768 320 l 1,101,-1
 832 320 l 1,102,-1
 896 320 l 1,103,-1
 896 256 l 1,104,-1
 832 256 l 1,105,-1
 768 256 l 1,106,-1
 704 256 l 1,107,-1
 640 256 l 1,108,-1
 576 256 l 1,109,-1
 512 256 l 1,110,-1
 448 256 l 1,111,-1
 384 256 l 1,112,-1
 384 192 l 1,113,-1
 384 128 l 1,114,-1
 384 64 l 1,115,-1
 448 64 l 1,116,-1
 512 64 l 1,117,-1
 576 64 l 1,118,-1
 640 64 l 1,119,-1
 704 64 l 1,120,-1
 768 64 l 1,121,-1
 832 64 l 1,122,-1
 896 64 l 1,123,-1
 896 0 l 1,124,-1
 832 0 l 1,125,-1
 768 0 l 1,126,-1
 704 0 l 1,127,-1
 640 0 l 1,128,-1
 576 0 l 1,129,-1
 512 0 l 1,130,-1
 448 0 l 1,131,-1
 384 0 l 1,132,-1
 320 0 l 1,133,-1
 256 0 l 1,134,-1
 192 0 l 1,135,-1
 128 0 l 1,136,-1
 128 -64 l 1,137,-1
 128 -128 l 1,138,-1
 128 -192 l 1,139,-1
 192 -192 l 1,140,-1
 256 -192 l 1,141,-1
 320 -192 l 1,142,-1
 384 -192 l 1,143,-1
 448 -192 l 1,144,-1
 512 -192 l 1,145,-1
 576 -192 l 1,146,-1
 640 -192 l 1,147,-1
 704 -192 l 1,148,-1
 768 -192 l 1,149,-1
 832 -192 l 1,0,-1
512 320 m 1,150,-1
 576 320 l 1,151,-1
 576 384 l 1,152,-1
 576 448 l 1,153,-1
 576 512 l 1,154,-1
 512 512 l 1,155,-1
 448 512 l 1,156,-1
 384 512 l 1,157,-1
 320 512 l 1,158,-1
 256 512 l 1,159,-1
 192 512 l 1,160,-1
 128 512 l 1,161,-1
 128 448 l 1,162,-1
 128 384 l 1,163,-1
 128 320 l 1,164,-1
 192 320 l 1,165,-1
 256 320 l 1,166,-1
 320 320 l 1,167,-1
 384 320 l 1,168,-1
 448 320 l 1,169,-1
 512 320 l 1,150,-1
EndSplineSet
EndChar

StartChar: q
Encoding: 113 113 44
Width: 1024
Flags: W
LayerCount: 2
Fore
SplineSet
832 -256 m 1,0,-1
 768 -256 l 1,1,-1
 704 -256 l 1,2,-1
 640 -256 l 1,3,-1
 576 -256 l 1,4,-1
 512 -256 l 1,5,-1
 448 -256 l 1,6,-1
 384 -256 l 1,7,-1
 320 -256 l 1,8,-1
 256 -256 l 1,9,-1
 192 -256 l 1,10,-1
 128 -256 l 1,11,-1
 64 -256 l 1,12,-1
 0 -256 l 1,13,-1
 -64 -256 l 1,14,-1
 -128 -256 l 1,15,-1
 -128 -192 l 1,16,-1
 -128 -128 l 1,17,-1
 -128 -64 l 1,18,-1
 -128 0 l 1,19,-1
 -128 64 l 1,20,-1
 -128 128 l 1,21,-1
 -128 192 l 1,22,-1
 -128 256 l 1,23,-1
 -128 320 l 1,24,-1
 -128 384 l 1,25,-1
 -64 384 l 1,26,-1
 -64 448 l 1,27,-1
 -64 512 l 1,28,-1
 -128 512 l 1,29,-1
 -128 576 l 1,30,-1
 -64 576 l 1,31,-1
 0 576 l 1,32,-1
 0 640 l 1,33,-1
 64 640 l 1,34,-1
 64 704 l 1,35,-1
 128 704 l 1,36,-1
 192 704 l 1,37,-1
 192 768 l 1,38,-1
 256 768 l 1,39,-1
 320 768 l 1,40,-1
 384 768 l 1,41,-1
 448 768 l 1,42,-1
 512 768 l 1,43,-1
 576 768 l 1,44,-1
 576 704 l 1,45,-1
 640 704 l 1,46,-1
 704 704 l 1,47,-1
 704 640 l 1,48,-1
 768 640 l 1,49,-1
 768 576 l 1,50,-1
 832 576 l 1,51,-1
 832 640 l 1,52,-1
 832 704 l 1,53,-1
 832 768 l 1,54,-1
 896 768 l 1,55,-1
 896 704 l 1,56,-1
 896 640 l 1,57,-1
 896 576 l 1,58,-1
 896 512 l 1,59,-1
 832 512 l 1,60,-1
 832 448 l 1,61,-1
 832 384 l 1,62,-1
 896 384 l 1,63,-1
 896 320 l 1,64,-1
 896 256 l 1,65,-1
 896 192 l 1,66,-1
 896 128 l 1,67,-1
 896 64 l 1,68,-1
 896 0 l 1,69,-1
 896 -64 l 1,70,-1
 896 -128 l 1,71,-1
 896 -192 l 1,72,-1
 896 -256 l 1,73,-1
 832 -256 l 1,0,-1
EndSplineSet
EndChar

StartChar: r
Encoding: 114 114 45
Width: 1024
Flags: W
LayerCount: 2
Fore
SplineSet
640 -256 m 1,0,-1
 640 -192 l 1,1,-1
 704 -192 l 1,2,-1
 704 -256 l 1,3,-1
 640 -256 l 1,0,-1
384 -256 m 1,4,-1
 384 -192 l 1,5,-1
 448 -192 l 1,6,-1
 448 -256 l 1,7,-1
 384 -256 l 1,4,-1
768 -128 m 1,8,-1
 832 -128 l 1,9,-1
 832 -192 l 1,10,-1
 768 -192 l 1,11,-1
 704 -192 l 1,12,-1
 704 -128 l 1,13,-1
 768 -128 l 1,8,-1
448 -192 m 1,14,-1
 448 -128 l 1,15,-1
 512 -128 l 1,16,-1
 512 -192 l 1,17,-1
 448 -192 l 1,14,-1
512 -128 m 1,18,-1
 512 -64 l 1,19,-1
 512 0 l 1,20,-1
 512 64 l 1,21,-1
 576 64 l 1,22,-1
 576 0 l 1,23,-1
 576 -64 l 1,24,-1
 576 -128 l 1,25,-1
 512 -128 l 1,18,-1
640 128 m 1,26,-1
 704 128 l 1,27,-1
 704 64 l 1,28,-1
 640 64 l 1,29,-1
 576 64 l 1,30,-1
 576 128 l 1,31,-1
 640 128 l 1,26,-1
704 128 m 1,32,-1
 704 192 l 1,33,-1
 768 192 l 1,34,-1
 768 128 l 1,35,-1
 704 128 l 1,32,-1
832 256 m 1,36,-1
 896 256 l 1,37,-1
 896 192 l 1,38,-1
 832 192 l 1,39,-1
 768 192 l 1,40,-1
 768 256 l 1,41,-1
 832 256 l 1,36,-1
EndSplineSet
EndChar

StartChar: s
Encoding: 115 115 46
Width: 1024
Flags: W
LayerCount: 2
Fore
SplineSet
640 -256 m 1,0,-1
 640 -192 l 1,1,-1
 704 -192 l 1,2,-1
 704 -256 l 1,3,-1
 640 -256 l 1,0,-1
0 -192 m 1,4,-1
 0 -128 l 1,5,-1
 64 -128 l 1,6,-1
 64 -192 l 1,7,-1
 0 -192 l 1,4,-1
128 -64 m 1,8,-1
 128 0 l 1,9,-1
 192 0 l 1,10,-1
 192 -64 l 1,11,-1
 128 -64 l 1,8,-1
384 -256 m 1,12,-1
 320 -256 l 1,13,-1
 320 -192 l 1,14,-1
 320 -128 l 1,15,-1
 320 -64 l 1,16,-1
 384 -64 l 1,17,-1
 384 -128 l 1,18,-1
 384 -192 l 1,19,-1
 448 -192 l 1,20,-1
 448 -256 l 1,21,-1
 384 -256 l 1,12,-1
768 -128 m 1,22,-1
 832 -128 l 1,23,-1
 832 -192 l 1,24,-1
 768 -192 l 1,25,-1
 704 -192 l 1,26,-1
 704 -128 l 1,27,-1
 768 -128 l 1,22,-1
448 -192 m 1,28,-1
 448 -128 l 1,29,-1
 512 -128 l 1,30,-1
 512 -192 l 1,31,-1
 448 -192 l 1,28,-1
512 -128 m 1,32,-1
 512 -64 l 1,33,-1
 512 0 l 1,34,-1
 512 64 l 1,35,-1
 576 64 l 1,36,-1
 576 0 l 1,37,-1
 576 -64 l 1,38,-1
 576 -128 l 1,39,-1
 512 -128 l 1,32,-1
0 -128 m 1,40,-1
 -64 -128 l 1,41,-1
 -64 -64 l 1,42,-1
 0 -64 l 1,43,-1
 0 -128 l 1,40,-1
320 -64 m 1,44,-1
 256 -64 l 1,45,-1
 256 0 l 1,46,-1
 320 0 l 1,47,-1
 320 -64 l 1,44,-1
256 0 m 1,48,-1
 192 0 l 1,49,-1
 192 64 l 1,50,-1
 256 64 l 1,51,-1
 256 0 l 1,48,-1
128 0 m 1,52,-1
 64 0 l 1,53,-1
 64 64 l 1,54,-1
 64 128 l 1,55,-1
 128 128 l 1,56,-1
 128 64 l 1,57,-1
 128 0 l 1,52,-1
640 128 m 1,58,-1
 704 128 l 1,59,-1
 704 64 l 1,60,-1
 640 64 l 1,61,-1
 576 64 l 1,62,-1
 576 128 l 1,63,-1
 640 128 l 1,58,-1
704 128 m 1,64,-1
 704 192 l 1,65,-1
 768 192 l 1,66,-1
 768 128 l 1,67,-1
 704 128 l 1,64,-1
64 128 m 1,68,-1
 0 128 l 1,69,-1
 0 192 l 1,70,-1
 64 192 l 1,71,-1
 64 128 l 1,68,-1
832 256 m 1,72,-1
 896 256 l 1,73,-1
 896 192 l 1,74,-1
 832 192 l 1,75,-1
 768 192 l 1,76,-1
 768 256 l 1,77,-1
 832 256 l 1,72,-1
0 192 m 1,78,-1
 -64 192 l 1,79,-1
 -128 192 l 1,80,-1
 -128 256 l 1,81,-1
 -64 256 l 1,82,-1
 0 256 l 1,83,-1
 0 192 l 1,78,-1
EndSplineSet
EndChar

StartChar: t
Encoding: 116 116 47
Width: 1024
Flags: W
LayerCount: 2
Fore
SplineSet
320 -256 m 1,0,-1
 320 -192 l 1,1,-1
 320 -128 l 1,2,-1
 320 -64 l 1,3,-1
 384 -64 l 1,4,-1
 384 -128 l 1,5,-1
 384 -192 l 1,6,-1
 384 -256 l 1,7,-1
 320 -256 l 1,0,-1
0 -192 m 1,8,-1
 0 -128 l 1,9,-1
 64 -128 l 1,10,-1
 64 -192 l 1,11,-1
 0 -192 l 1,8,-1
128 -64 m 1,12,-1
 128 0 l 1,13,-1
 192 0 l 1,14,-1
 192 -64 l 1,15,-1
 128 -64 l 1,12,-1
0 -128 m 1,16,-1
 -64 -128 l 1,17,-1
 -64 -64 l 1,18,-1
 0 -64 l 1,19,-1
 0 -128 l 1,16,-1
320 -64 m 1,20,-1
 256 -64 l 1,21,-1
 256 0 l 1,22,-1
 320 0 l 1,23,-1
 320 -64 l 1,20,-1
256 0 m 1,24,-1
 192 0 l 1,25,-1
 192 64 l 1,26,-1
 256 64 l 1,27,-1
 256 0 l 1,24,-1
128 0 m 1,28,-1
 64 0 l 1,29,-1
 64 64 l 1,30,-1
 64 128 l 1,31,-1
 128 128 l 1,32,-1
 128 64 l 1,33,-1
 128 0 l 1,28,-1
64 128 m 1,34,-1
 0 128 l 1,35,-1
 0 192 l 1,36,-1
 64 192 l 1,37,-1
 64 128 l 1,34,-1
0 192 m 1,38,-1
 -64 192 l 1,39,-1
 -128 192 l 1,40,-1
 -128 256 l 1,41,-1
 -64 256 l 1,42,-1
 0 256 l 1,43,-1
 0 192 l 1,38,-1
EndSplineSet
EndChar

StartChar: u
Encoding: 117 117 48
Width: 1024
Flags: W
LayerCount: 2
Fore
SplineSet
-64 -256 m 1,0,-1
 -128 -256 l 1,1,-1
 -128 -192 l 1,2,-1
 -64 -192 l 1,3,-1
 -64 -128 l 1,4,-1
 0 -128 l 1,5,-1
 0 -64 l 1,6,-1
 64 -64 l 1,7,-1
 64 0 l 1,8,-1
 128 0 l 1,9,-1
 128 64 l 1,10,-1
 192 64 l 1,11,-1
 192 128 l 1,12,-1
 256 128 l 1,13,-1
 256 192 l 1,14,-1
 320 192 l 1,15,-1
 320 256 l 1,16,-1
 384 256 l 1,17,-1
 384 320 l 1,18,-1
 448 320 l 1,19,-1
 448 384 l 1,20,-1
 512 384 l 1,21,-1
 512 448 l 1,22,-1
 576 448 l 1,23,-1
 576 512 l 1,24,-1
 640 512 l 1,25,-1
 640 576 l 1,26,-1
 704 576 l 1,27,-1
 704 640 l 1,28,-1
 768 640 l 1,29,-1
 768 704 l 1,30,-1
 832 704 l 1,31,-1
 832 768 l 1,32,-1
 896 768 l 1,33,-1
 896 704 l 1,34,-1
 896 640 l 1,35,-1
 832 640 l 1,36,-1
 832 576 l 1,37,-1
 768 576 l 1,38,-1
 768 512 l 1,39,-1
 704 512 l 1,40,-1
 704 448 l 1,41,-1
 640 448 l 1,42,-1
 640 384 l 1,43,-1
 576 384 l 1,44,-1
 576 320 l 1,45,-1
 512 320 l 1,46,-1
 512 256 l 1,47,-1
 448 256 l 1,48,-1
 448 192 l 1,49,-1
 384 192 l 1,50,-1
 384 128 l 1,51,-1
 320 128 l 1,52,-1
 320 64 l 1,53,-1
 256 64 l 1,54,-1
 256 0 l 1,55,-1
 192 0 l 1,56,-1
 192 -64 l 1,57,-1
 128 -64 l 1,58,-1
 128 -128 l 1,59,-1
 64 -128 l 1,60,-1
 64 -192 l 1,61,-1
 0 -192 l 1,62,-1
 0 -256 l 1,63,-1
 -64 -256 l 1,0,-1
EndSplineSet
EndChar

StartChar: v
Encoding: 118 118 49
Width: 1024
Flags: W
LayerCount: 2
Fore
SplineSet
704 384 m 1,0,-1
 704 448 l 1,1,-1
 640 448 l 1,2,-1
 640 512 l 1,3,-1
 640 576 l 1,4,-1
 640 640 l 1,5,-1
 640 704 l 1,6,-1
 704 704 l 1,7,-1
 704 768 l 1,8,-1
 768 768 l 1,9,-1
 768 704 l 1,10,-1
 832 704 l 1,11,-1
 832 640 l 1,12,-1
 832 576 l 1,13,-1
 832 512 l 1,14,-1
 832 448 l 1,15,-1
 768 448 l 1,16,-1
 768 384 l 1,17,-1
 704 384 l 1,0,-1
512 256 m 1,18,-1
 448 256 l 1,19,-1
 448 320 l 1,20,-1
 448 384 l 1,21,-1
 448 448 l 1,22,-1
 448 512 l 1,23,-1
 512 512 l 1,24,-1
 576 512 l 1,25,-1
 576 448 l 1,26,-1
 576 384 l 1,27,-1
 576 320 l 1,28,-1
 576 256 l 1,29,-1
 512 256 l 1,18,-1
EndSplineSet
EndChar

StartChar: w
Encoding: 119 119 50
Width: 1024
Flags: W
LayerCount: 2
Fore
SplineSet
-64 -256 m 1,0,-1
 -64 -192 l 1,1,-1
 0 -192 l 1,2,-1
 0 -256 l 1,3,-1
 -64 -256 l 1,0,-1
64 64 m 1,4,-1
 64 128 l 1,5,-1
 128 128 l 1,6,-1
 128 64 l 1,7,-1
 64 64 l 1,4,-1
640 256 m 1,8,-1
 640 320 l 1,9,-1
 704 320 l 1,10,-1
 704 256 l 1,11,-1
 640 256 l 1,8,-1
-64 -192 m 1,12,-1
 -128 -192 l 1,13,-1
 -128 -128 l 1,14,-1
 -128 -64 l 1,15,-1
 -64 -64 l 1,16,-1
 -64 -128 l 1,17,-1
 -64 -192 l 1,12,-1
0 0 m 1,18,-1
 64 0 l 1,19,-1
 64 -64 l 1,20,-1
 0 -64 l 1,21,-1
 -64 -64 l 1,22,-1
 -64 0 l 1,23,-1
 0 0 l 1,18,-1
128 128 m 1,24,-1
 128 192 l 1,25,-1
 192 192 l 1,26,-1
 192 128 l 1,27,-1
 128 128 l 1,24,-1
320 256 m 1,28,-1
 384 256 l 1,29,-1
 384 192 l 1,30,-1
 320 192 l 1,31,-1
 256 192 l 1,32,-1
 192 192 l 1,33,-1
 192 256 l 1,34,-1
 256 256 l 1,35,-1
 320 256 l 1,28,-1
384 256 m 1,36,-1
 384 320 l 1,37,-1
 448 320 l 1,38,-1
 448 256 l 1,39,-1
 384 256 l 1,36,-1
768 384 m 1,40,-1
 832 384 l 1,41,-1
 832 320 l 1,42,-1
 768 320 l 1,43,-1
 704 320 l 1,44,-1
 704 384 l 1,45,-1
 768 384 l 1,40,-1
448 320 m 1,46,-1
 448 384 l 1,47,-1
 512 384 l 1,48,-1
 512 320 l 1,49,-1
 448 320 l 1,46,-1
512 384 m 1,50,-1
 512 448 l 1,51,-1
 512 512 l 1,52,-1
 512 576 l 1,53,-1
 576 576 l 1,54,-1
 576 512 l 1,55,-1
 576 448 l 1,56,-1
 576 384 l 1,57,-1
 512 384 l 1,50,-1
640 640 m 1,58,-1
 704 640 l 1,59,-1
 704 576 l 1,60,-1
 640 576 l 1,61,-1
 576 576 l 1,62,-1
 576 640 l 1,63,-1
 640 640 l 1,58,-1
704 640 m 1,64,-1
 704 704 l 1,65,-1
 768 704 l 1,66,-1
 768 640 l 1,67,-1
 704 640 l 1,64,-1
832 768 m 1,68,-1
 896 768 l 1,69,-1
 896 704 l 1,70,-1
 832 704 l 1,71,-1
 768 704 l 1,72,-1
 768 768 l 1,73,-1
 832 768 l 1,68,-1
EndSplineSet
EndChar

StartChar: x
Encoding: 120 120 51
Width: 1024
Flags: W
LayerCount: 2
Fore
SplineSet
640 256 m 1,0,-1
 640 320 l 1,1,-1
 704 320 l 1,2,-1
 704 256 l 1,3,-1
 640 256 l 1,0,-1
0 320 m 1,4,-1
 0 384 l 1,5,-1
 64 384 l 1,6,-1
 64 320 l 1,7,-1
 0 320 l 1,4,-1
128 448 m 1,8,-1
 128 512 l 1,9,-1
 192 512 l 1,10,-1
 192 448 l 1,11,-1
 128 448 l 1,8,-1
384 256 m 1,12,-1
 320 256 l 1,13,-1
 320 320 l 1,14,-1
 320 384 l 1,15,-1
 320 448 l 1,16,-1
 384 448 l 1,17,-1
 384 384 l 1,18,-1
 384 320 l 1,19,-1
 448 320 l 1,20,-1
 448 256 l 1,21,-1
 384 256 l 1,12,-1
768 384 m 1,22,-1
 832 384 l 1,23,-1
 832 320 l 1,24,-1
 768 320 l 1,25,-1
 704 320 l 1,26,-1
 704 384 l 1,27,-1
 768 384 l 1,22,-1
448 320 m 1,28,-1
 448 384 l 1,29,-1
 512 384 l 1,30,-1
 512 320 l 1,31,-1
 448 320 l 1,28,-1
512 384 m 1,32,-1
 512 448 l 1,33,-1
 512 512 l 1,34,-1
 512 576 l 1,35,-1
 576 576 l 1,36,-1
 576 512 l 1,37,-1
 576 448 l 1,38,-1
 576 384 l 1,39,-1
 512 384 l 1,32,-1
0 384 m 1,40,-1
 -64 384 l 1,41,-1
 -64 448 l 1,42,-1
 0 448 l 1,43,-1
 0 384 l 1,40,-1
320 448 m 1,44,-1
 256 448 l 1,45,-1
 256 512 l 1,46,-1
 320 512 l 1,47,-1
 320 448 l 1,44,-1
256 512 m 1,48,-1
 192 512 l 1,49,-1
 192 576 l 1,50,-1
 256 576 l 1,51,-1
 256 512 l 1,48,-1
128 512 m 1,52,-1
 64 512 l 1,53,-1
 64 576 l 1,54,-1
 64 640 l 1,55,-1
 128 640 l 1,56,-1
 128 576 l 1,57,-1
 128 512 l 1,52,-1
640 640 m 1,58,-1
 704 640 l 1,59,-1
 704 576 l 1,60,-1
 640 576 l 1,61,-1
 576 576 l 1,62,-1
 576 640 l 1,63,-1
 640 640 l 1,58,-1
704 640 m 1,64,-1
 704 704 l 1,65,-1
 768 704 l 1,66,-1
 768 640 l 1,67,-1
 704 640 l 1,64,-1
64 640 m 1,68,-1
 0 640 l 1,69,-1
 0 704 l 1,70,-1
 64 704 l 1,71,-1
 64 640 l 1,68,-1
832 768 m 1,72,-1
 896 768 l 1,73,-1
 896 704 l 1,74,-1
 832 704 l 1,75,-1
 768 704 l 1,76,-1
 768 768 l 1,77,-1
 832 768 l 1,72,-1
0 704 m 1,78,-1
 -64 704 l 1,79,-1
 -128 704 l 1,80,-1
 -128 768 l 1,81,-1
 -64 768 l 1,82,-1
 0 768 l 1,83,-1
 0 704 l 1,78,-1
EndSplineSet
EndChar

StartChar: y
Encoding: 121 121 52
Width: 1024
Flags: W
LayerCount: 2
Fore
SplineSet
768 -256 m 1,0,-1
 768 -192 l 1,1,-1
 832 -192 l 1,2,-1
 832 -256 l 1,3,-1
 768 -256 l 1,0,-1
704 -64 m 1,4,-1
 704 0 l 1,5,-1
 768 0 l 1,6,-1
 768 -64 l 1,7,-1
 704 -64 l 1,4,-1
448 64 m 1,8,-1
 448 128 l 1,9,-1
 512 128 l 1,10,-1
 512 64 l 1,11,-1
 448 64 l 1,8,-1
0 320 m 1,12,-1
 0 384 l 1,13,-1
 64 384 l 1,14,-1
 64 320 l 1,15,-1
 0 320 l 1,12,-1
128 448 m 1,16,-1
 128 512 l 1,17,-1
 192 512 l 1,18,-1
 192 448 l 1,19,-1
 128 448 l 1,16,-1
832 -192 m 1,20,-1
 832 -128 l 1,21,-1
 832 -64 l 1,22,-1
 832 0 l 1,23,-1
 896 0 l 1,24,-1
 896 -64 l 1,25,-1
 896 -128 l 1,26,-1
 896 -192 l 1,27,-1
 832 -192 l 1,20,-1
832 0 m 1,28,-1
 768 0 l 1,29,-1
 768 64 l 1,30,-1
 832 64 l 1,31,-1
 832 0 l 1,28,-1
704 0 m 1,32,-1
 640 0 l 1,33,-1
 640 64 l 1,34,-1
 640 128 l 1,35,-1
 640 192 l 1,36,-1
 704 192 l 1,37,-1
 704 128 l 1,38,-1
 704 64 l 1,39,-1
 704 0 l 1,32,-1
512 128 m 1,40,-1
 512 192 l 1,41,-1
 576 192 l 1,42,-1
 576 128 l 1,43,-1
 512 128 l 1,40,-1
448 128 m 1,44,-1
 384 128 l 1,45,-1
 384 192 l 1,46,-1
 384 256 l 1,47,-1
 448 256 l 1,48,-1
 448 192 l 1,49,-1
 448 128 l 1,44,-1
640 192 m 1,50,-1
 576 192 l 1,51,-1
 576 256 l 1,52,-1
 640 256 l 1,53,-1
 640 192 l 1,50,-1
384 256 m 1,54,-1
 320 256 l 1,55,-1
 320 320 l 1,56,-1
 320 384 l 1,57,-1
 320 448 l 1,58,-1
 384 448 l 1,59,-1
 384 384 l 1,60,-1
 384 320 l 1,61,-1
 384 256 l 1,54,-1
0 384 m 1,62,-1
 -64 384 l 1,63,-1
 -64 448 l 1,64,-1
 0 448 l 1,65,-1
 0 384 l 1,62,-1
320 448 m 1,66,-1
 256 448 l 1,67,-1
 256 512 l 1,68,-1
 320 512 l 1,69,-1
 320 448 l 1,66,-1
256 512 m 1,70,-1
 192 512 l 1,71,-1
 192 576 l 1,72,-1
 256 576 l 1,73,-1
 256 512 l 1,70,-1
128 512 m 1,74,-1
 64 512 l 1,75,-1
 64 576 l 1,76,-1
 64 640 l 1,77,-1
 128 640 l 1,78,-1
 128 576 l 1,79,-1
 128 512 l 1,74,-1
64 640 m 1,80,-1
 0 640 l 1,81,-1
 0 704 l 1,82,-1
 64 704 l 1,83,-1
 64 640 l 1,80,-1
0 704 m 1,84,-1
 -64 704 l 1,85,-1
 -128 704 l 1,86,-1
 -128 768 l 1,87,-1
 -64 768 l 1,88,-1
 0 768 l 1,89,-1
 0 704 l 1,84,-1
EndSplineSet
EndChar

